<svg preserveAspectRatio="none" width="100%" height="100%" overflow="visible" style="display: block;" viewBox="0 0 640 709" fill="none" xmlns="http://www.w3.org/2000/svg">
<g id="A Flare" filter="url(#filter0_f_3105_20977)">
<path d="M68.2082 294.363C43.1409 358.973 138.098 391.465 141.725 425C7.53661 692.377 513.386 452.5 339.067 634.708C280.94 695.466 647.351 452.053 562.962 431.584C477.89 410.95 440.146 429.867 525.373 351.92C610.6 273.973 527.892 -31.9275 513.386 94.0569C498.879 220.041 342.931 194.663 302.13 257.202C283.462 285.816 189.095 279.38 131.786 257.202C131.786 205.218 179.834 168.373 161.883 167.384C130.781 165.671 98.6008 216.028 68.2082 294.363Z" fill="url(#paint0_linear_3105_20977)" fill-opacity="0.9"/>
</g>
<defs>
<filter id="filter0_f_3105_20977" x="-4.02679e-07" y="-1.24438e-06" width="639.649" height="708.419" filterUnits="userSpaceOnUse" color-interpolation-filters="sRGB">
<feFlood flood-opacity="0" result="BackgroundImageFix"/>
<feBlend mode="normal" in="SourceGraphic" in2="BackgroundImageFix" result="shape"/>
<feGaussianBlur stdDeviation="32" result="effect1_foregroundBlur_3105_20977"/>
</filter>
<linearGradient id="paint0_linear_3105_20977" x1="166.514" y1="206.762" x2="56.9274" y2="402.161" gradientUnits="userSpaceOnUse">
<stop offset="0.240385" stop-color="#FFEB7C"/>
<stop offset="1" stop-color="#FF7B38"/>
</linearGradient>
</defs>
</svg>
