<svg preserveAspectRatio="none" width="100%" height="100%" overflow="visible" style="display: block;" viewBox="0 0 748 872" fill="none" xmlns="http://www.w3.org/2000/svg">
<g id="Vector 623" filter="url(#filter0_f_3105_3038)">
<path d="M147.021 812C127.426 783.785 88.2355 719.534 88.2355 688.248C88.2355 649.141 84.9856 586.332 70.6362 562.76C56.2869 539.189 146.096 570.385 147.021 640.033C147.248 657.083 207.203 592.487 159.982 518.926C147.272 499.125 137.913 481.144 130.954 465.069C108.77 413.822 110.979 381.938 106.751 372.151C101.196 359.293 93.3275 247.349 60 228.599C68.7947 225.563 90.4576 222.278 106.751 233.421C127.118 247.349 133.598 276.278 146.096 285.386C146.559 274.671 101.196 196.54 88.2355 108.146C96.4131 122.432 137.023 184.456 159.982 190.027C188.681 196.991 211.539 200.02 208.585 171.813C204.882 136.455 142.472 65.1786 139.54 60C154.816 63.7501 268.885 69.3128 247.29 94.7951C238.214 105.506 292.366 115.562 307.179 102.169C319.028 91.4543 608.076 137.394 688 148.644L189.485 750.042L182.548 807.227L147.021 812Z" fill="url(#paint0_linear_3105_3038)"/>
</g>
<defs>
<filter id="filter0_f_3105_3038" x="0.766106" y="0.766106" width="746.468" height="870.468" filterUnits="userSpaceOnUse" color-interpolation-filters="sRGB">
<feFlood flood-opacity="0" result="BackgroundImageFix"/>
<feBlend mode="normal" in="SourceGraphic" in2="BackgroundImageFix" result="shape"/>
<feGaussianBlur stdDeviation="29.6169" result="effect1_foregroundBlur_3105_3038"/>
</filter>
<linearGradient id="paint0_linear_3105_3038" x1="298.942" y1="77.8161" x2="30.2167" y2="714.941" gradientUnits="userSpaceOnUse">
<stop stop-color="#FFE866"/>
<stop offset="0.307692" stop-color="#FF7B38"/>
<stop offset="0.485577" stop-color="#F4B244"/>
<stop offset="0.596154" stop-color="#EDD54B"/>
<stop offset="0.840982" stop-color="#FFB653"/>
<stop offset="1" stop-color="#FB5D0B"/>
</linearGradient>
</defs>
</svg>
