<svg preserveAspectRatio="none" width="100%" height="100%" overflow="visible" style="display: block;" viewBox="0 0 787 922" fill="none" xmlns="http://www.w3.org/2000/svg">
<g id="Vector 623" filter="url(#filter0_f_3105_3036)">
<path d="M97.5463 783.015C76.3597 753.412 106.083 665.984 88 638.588C29.4715 549.916 95.0188 505.9 105.958 532.969C138.57 613.666 148.757 599.639 151.514 583.291C151.372 556.842 153.63 570.75 151.514 583.291C151.522 584.738 151.537 586.305 151.56 588C151.805 605.889 202.615 632.698 151.56 555.515C137.817 534.74 127.698 515.874 120.174 499.008C96.1887 445.238 159.577 534.886 155.006 524.617C149 511.127 71.5598 365.969 71.5598 318.469C75.4683 327.008 80.3899 333.713 85.8366 338.682C100.312 342.921 120.154 324.305 132.818 330.83C133.601 330.284 134.006 330.424 133.958 331.5C133.585 331.252 133.205 331.03 132.818 330.83C130.248 332.622 123.601 341.796 115.489 349.494C144.556 346.528 166.258 304.591 120.174 235.969C102.402 209.505 137.303 150.912 134.109 121.316C130.106 84.2182 82.6275 69.4336 79.4578 64C95.9734 67.9346 259.306 73.7712 235.958 100.508C226.144 111.746 284.695 122.297 300.71 108.244C304.746 104.703 395.516 105.849 443.958 112.469C549.291 126.863 663.265 158.922 722.458 167.008L183.458 798.008L175.958 858.008L97.5463 783.015Z" fill="url(#paint0_linear_3105_3036)" fill-opacity="0.9"/>
</g>
<defs>
<filter id="filter0_f_3105_3036" x="4.09201e-05" y="0" width="786.458" height="922.008" filterUnits="userSpaceOnUse" color-interpolation-filters="sRGB">
<feFlood flood-opacity="0" result="BackgroundImageFix"/>
<feBlend mode="normal" in="SourceGraphic" in2="BackgroundImageFix" result="shape"/>
<feGaussianBlur stdDeviation="32" result="effect1_foregroundBlur_3105_3036"/>
</filter>
<linearGradient id="paint0_linear_3105_3036" x1="301.805" y1="92.6931" x2="25.7631" y2="767.117" gradientUnits="userSpaceOnUse">
<stop stop-color="#FFE866"/>
<stop offset="0.110577" stop-color="#F4B244"/>
<stop offset="0.278846" stop-color="#FF7B38"/>
<stop offset="0.490385" stop-color="#FFB653"/>
<stop offset="0.740385" stop-color="#FB5D0B"/>
<stop offset="0.769231" stop-color="#EDD54B"/>
</linearGradient>
</defs>
</svg>
