<svg preserveAspectRatio="none" width="100%" height="100%" overflow="visible" style="display: block;" viewBox="0 0 72 30" fill="none" xmlns="http://www.w3.org/2000/svg">
<g id="Goldman Sachs_Logo_0 1" clip-path="url(#clip0_3105_3060)">
<path id="Vector" d="M16.3165 2.95034C13.5579 2.95034 11.8558 5.02434 11.8558 8.55892C11.8558 12.0643 13.5579 14.1675 16.3165 14.1675C19.0751 14.1675 20.7772 12.0935 20.7772 8.55892C20.7772 5.02434 19.1045 2.95034 16.3165 2.95034ZM16.3165 13.5248C15.26 13.5248 14.9372 12.3856 14.9372 8.52967C14.9372 4.67381 15.26 3.53457 16.3165 3.53457C17.373 3.53457 17.6958 4.70302 17.6958 8.55892C17.6958 12.3856 17.373 13.5248 16.3165 13.5248ZM36.6541 18.8121C35.4802 18.8121 34.6291 19.2502 34.1302 20.0097V16.1538H31.1662V23.3106C31.1662 27.1957 28.9358 29.036 26.9108 29.036C25.4141 29.036 24.7978 28.0137 24.7978 24.5082C24.7978 21.0029 25.1794 19.4255 26.3826 19.4255C27.1749 19.4255 27.85 20.185 28.5249 21.9377H29.2586V19.3379C28.3782 18.9873 27.2923 18.8121 26.4413 18.8121C23.4185 18.8121 21.7164 20.9738 21.7164 24.5082C21.7164 28.0137 23.4185 30 26.2945 30C28.6717 30 30.3738 28.7439 31.1662 26.6115V29.7371H34.1302V21.7917C34.1302 20.5647 34.8052 19.9513 35.5095 19.9513C36.1846 19.9513 36.4193 20.5063 36.4193 21.3534V29.7663H39.3834V21.9085C39.3834 19.7176 38.2975 18.8121 36.6541 18.8121ZM22.5968 0.292113V13.9046H25.5609V0.292113H22.5968ZM33.2792 0.292113V4.00195C33.0151 3.3593 32.3694 2.95034 31.3422 2.95034C29.0238 2.95034 27.4685 5.02434 27.4685 8.5005C27.4685 12.0642 28.8478 14.1383 31.2249 14.1383C32.34 14.1383 33.103 13.6125 33.4553 12.5317V13.8753H36.2139V0.292113H33.2792ZM31.8118 13.2912C30.8727 13.2912 30.5499 12.3564 30.5499 8.47125C30.5499 4.81987 30.8727 3.73905 31.8705 3.73905C32.9564 3.73905 33.3379 5.02434 33.3379 8.47125C33.3379 11.9474 32.839 13.2912 31.8118 13.2912ZM49.0093 2.95034C47.6887 2.95034 46.7202 3.65141 46.3093 4.61538C45.8985 3.50536 45.0767 2.95034 43.9028 2.95034C42.6409 2.95034 41.7312 3.50536 41.291 4.41091V3.21324H38.5323V13.9046H41.467V5.92989C41.467 4.70302 42.054 4.08958 42.7876 4.08958C43.4039 4.08958 43.668 4.58617 43.668 5.4333V13.9046H46.6321V5.92989C46.6321 4.70302 47.2191 4.08958 47.9527 4.08958C48.5691 4.08958 48.8331 4.58617 48.8331 5.4333V13.9046H51.7973V6.04674C51.7973 3.85589 50.682 2.95034 49.0093 2.95034ZM46.5734 23.4859L44.8713 22.4635C43.7267 21.7917 43.3159 21.3827 43.3159 20.6816C43.3159 19.8929 43.8735 19.3963 44.8126 19.3963C45.9278 19.3963 46.7495 20.1266 47.2485 21.9085H47.9821V19.1626C47.043 18.9582 45.9864 18.7828 45.0473 18.7828C42.6703 18.7828 41.2323 19.9513 41.2323 21.8501C41.2323 23.1646 41.9659 24.0701 43.4626 24.9757L44.8713 25.8228C46.0452 26.5238 46.456 27.0204 46.456 27.8092C46.456 28.8316 45.8104 29.3573 44.6952 29.3573C43.3159 29.3573 42.5235 28.481 41.9953 26.5531H41.2616V29.5618C42.3474 29.8539 43.492 29.9708 44.4311 29.9708C47.131 29.9708 48.6864 28.7147 48.6864 26.6115C48.6571 25.1802 47.9527 24.3038 46.5734 23.4859ZM57.8721 2.95034C56.7569 2.95034 55.4363 3.15482 54.2037 3.53457V6.04674H54.9374C55.5537 4.46933 56.3754 3.59299 57.5492 3.59299C58.283 3.59299 58.5764 3.94352 58.5764 4.76144V6.13437C58.5764 6.80623 58.4003 7.01071 57.6373 7.27361L56.845 7.53652C54.4972 8.32522 53.4407 9.34758 53.4407 11.1879C53.4407 13.1451 54.6146 14.1675 56.3167 14.1675C57.5199 14.1675 58.5471 13.6417 58.8699 12.6192V13.9046H61.5698V6.13437C61.5405 4.03116 60.2785 2.95034 57.8721 2.95034ZM58.5764 11.0418C58.5764 12.444 58.1069 13.0867 57.3732 13.0867C56.6688 13.0867 56.4341 12.5317 56.4341 11.1003V10.8082C56.4341 9.14317 56.7863 8.47125 57.7547 7.97468L58.5764 7.56572V11.0418ZM69.2588 2.95034C67.9675 2.95034 67.0284 3.50536 66.5589 4.41091V3.21324H63.7709V13.9046H66.7349V5.90068C66.7349 4.67381 67.4099 4.06037 68.1142 4.06037C68.7893 4.06037 69.024 4.61538 69.024 5.46252V13.8753H71.9881V6.04674C71.9881 3.85589 70.9022 2.95034 69.2588 2.95034ZM10.5938 25.1802C10.5938 27.926 8.59818 29.7663 5.39936 29.7663H0.703813V24.888H1.40814C2.05378 27.7799 3.25702 29.0652 5.28197 29.0652C6.92541 29.0652 7.80583 28.1889 7.80583 26.7576C7.80583 25.2386 6.86671 24.5375 5.4874 23.7488L3.40375 22.5219C1.64292 21.4995 0.645119 20.2434 0.645119 18.4907C0.645119 16.5336 1.78966 15.2775 3.63853 14.7517C1.02664 14.0507 0.0875227 11.6845 0.0875227 7.47809C0.0875227 2.68744 2.08313 0 6.16239 0H9.94818V4.03116H9.21445C8.33407 1.46057 7.57105 0.67186 6.19173 0.67186C4.16678 0.67186 3.60918 2.8335 3.60918 7.59493C3.60918 13.0867 4.10808 14.3135 5.60479 14.3135C6.74933 14.3135 7.30693 13.5832 7.30693 11.8597V9.75658C7.30693 8.47125 6.89607 8.00389 5.54609 7.79942V7.12756H10.0656V18.6076H9.3906C8.36342 15.7157 7.0428 15.073 5.57544 15.073C4.13743 15.073 3.25702 15.7449 3.25702 17.0594C3.25702 18.2862 3.99069 18.8705 5.37001 19.6884L7.62975 21.0322C9.4199 22.1422 10.5938 23.1646 10.5938 25.1802ZM16.2872 18.8121C15.1719 18.8121 13.8513 19.0166 12.6188 19.3963V21.9085H13.3524C13.9687 20.3311 14.7904 19.4547 15.9644 19.4547C16.698 19.4547 16.9915 19.8053 16.9915 20.6232V21.9669C16.9915 22.6387 16.8154 22.8432 16.0524 23.1062L15.26 23.369C12.9122 24.1578 11.8558 25.1802 11.8558 27.0204C11.8558 28.9776 13.0296 30 14.7317 30C15.935 30 16.9622 29.4742 17.285 28.4518V29.7371H19.9555V22.0253C19.9555 19.8929 18.6643 18.8121 16.2872 18.8121ZM16.9915 26.9036C16.9915 28.3058 16.5219 28.9484 15.7882 28.9484C15.084 28.9484 14.8491 28.3934 14.8491 26.962V26.6699C14.8491 25.0048 15.2013 24.333 16.1697 23.8364L16.9915 23.4274V26.9036Z" fill="var(--fill-0, #0F1012)"/>
</g>
<defs>
<clipPath id="clip0_3105_3060">
<rect width="72" height="30" fill="white"/>
</clipPath>
</defs>
</svg>
