<svg preserveAspectRatio="none" width="100%" height="100%" overflow="visible" style="display: block;" viewBox="0 0 90 15" fill="none" xmlns="http://www.w3.org/2000/svg">
<g id="Group">
<path id="Vector" d="M3.4196 3.79377C3.35352 3.52518 3.37004 3.25659 3.40308 3.10552C3.48568 2.68585 3.76652 2.23261 4.57599 2.23261C5.3359 2.23261 5.76542 2.70264 5.76542 3.42446C5.76542 3.65947 5.76542 4.23022 5.76542 4.23022H8.97026V3.30695C8.98678 0.453238 6.45925 0 4.64207 0C2.36233 0 0.495595 0.772182 0.148678 2.90408C0.0495595 3.49161 0.0330397 4.01199 0.181718 4.66667C0.743392 7.33573 5.31938 8.10791 5.98018 9.80336C6.11233 10.1223 6.06278 10.5252 6.01322 10.777C5.9141 11.2134 5.61674 11.6667 4.75771 11.6667C3.94824 11.6667 3.46916 11.1966 3.46916 10.4748V9.21583H0V10.223C0 13.1439 2.26322 14.0168 4.67511 14.0168C7.00441 14.0168 8.90418 13.211 9.21806 11.0288C9.36674 9.90408 9.2511 9.16547 9.20154 8.89688C8.67291 6.1271 3.78304 5.32134 3.4196 3.79377ZM45.2643 3.81055C45.2148 3.55875 45.2313 3.27338 45.2478 3.13909C45.3469 2.71942 45.6112 2.26619 46.4207 2.26619C47.1641 2.26619 47.5936 2.73621 47.5936 3.44125C47.5936 3.67626 47.5936 4.247 47.5936 4.247H50.7654V3.34053C50.7654 0.520384 48.2874 0.0839329 46.4868 0.0839329C44.2236 0.0839329 42.3733 0.839329 42.0264 2.95444C41.9438 3.52518 41.9108 4.04556 42.0595 4.70024C42.6046 7.33573 47.1311 8.10791 47.7918 9.78657C47.9075 10.1055 47.8744 10.5084 47.8084 10.7434C47.7092 11.1799 47.4284 11.6163 46.5694 11.6163C45.7764 11.6163 45.2808 11.1463 45.2808 10.4412V9.18225H41.8612V10.1727C41.8612 13.06 44.0914 13.9329 46.4868 13.9329C48.783 13.9329 50.6828 13.1271 50.9802 10.9784C51.1289 9.85372 51.0132 9.13189 50.9637 8.86331C50.4515 6.14388 45.6278 5.33813 45.2643 3.81055ZM74.4714 10.9448L71.4482 0.419664H66.674V13.3621H69.8293L69.6476 2.5012L72.902 13.3621H77.478V0.419664H74.3062L74.4714 10.9448ZM13.7775 0.419664L11.3822 13.4964H14.8513L16.652 1.39329L18.4031 13.4964H21.8557L19.4934 0.419664H13.7775ZM33.2048 0.419664L31.5859 10.6427L29.967 0.419664H24.7137L24.4328 13.4964H27.6542L27.7368 1.39329L29.9504 13.4964H33.2048L35.4185 1.39329L35.5011 13.4964H38.7225L38.4416 0.419664H33.2048ZM63.1057 0.419664H59.8513V10.0887C59.8513 10.2566 59.8513 10.4412 59.8183 10.5923C59.7522 10.9113 59.4879 11.5492 58.5793 11.5492C57.6872 11.5492 57.4229 10.9281 57.3568 10.5923C57.3238 10.458 57.3238 10.2566 57.3238 10.0887V0.419664H54.0694V9.78657C54.0694 10.0216 54.0859 10.5252 54.1024 10.6427C54.3337 13.0767 56.217 13.8825 58.5793 13.8825C60.9416 13.8825 62.8414 13.0935 63.0727 10.6427C63.0892 10.5084 63.1222 10.0216 63.1057 9.78657V0.419664ZM85.4405 6.14388V8.05755H86.7621V9.95444C86.7621 10.1223 86.7621 10.307 86.7291 10.458C86.6795 10.8106 86.3491 11.4149 85.4075 11.4149C84.4824 11.4149 84.152 10.8106 84.1024 10.458C84.0859 10.307 84.0694 10.1223 84.0694 9.95444V3.97842C84.0694 3.76019 84.0859 3.54197 84.1355 3.35731C84.2015 3.03837 84.4824 2.41727 85.4075 2.41727C86.3987 2.41727 86.63 3.07194 86.696 3.35731C86.7291 3.54197 86.7291 3.86091 86.7291 3.86091V4.58273H89.967V4.14628C89.967 4.14628 89.9835 3.69305 89.9504 3.27338C89.7026 0.839329 87.7037 0.0671463 85.424 0.0671463C83.1443 0.0671463 81.1949 0.856115 80.9141 3.29017C80.8811 3.50839 80.848 3.91127 80.848 4.16307V9.65228C80.848 9.88729 80.848 10.0719 80.8976 10.5084C81.1123 12.8921 83.1443 13.7314 85.424 13.7314C87.7203 13.7314 89.7357 12.8921 89.9504 10.5084C89.9835 10.0719 90 9.88729 90 9.65228V6.14388H85.4405Z" fill="var(--fill-0, #0F1012)"/>
</g>
</svg>
