<svg preserveAspectRatio="none" width="100%" height="100%" overflow="visible" style="display: block;" viewBox="0 0 98 30" fill="none" xmlns="http://www.w3.org/2000/svg">
<g id="AmplifyChange_Logo_0 1" clip-path="url(#clip0_3105_3040)">
<path id="Vector" d="M44.6697 16.5348C44.7165 16.6278 44.6546 16.7372 44.5292 16.7372H41.4191C41.2772 16.7372 41.1519 16.6593 41.0899 16.5348L40.6313 14.9391C40.6244 14.9145 40.601 14.8967 40.5748 14.8967H37.7099C37.6837 14.8967 37.6603 14.9145 37.6534 14.9391L37.1947 16.5348C37.1314 16.6593 37.006 16.7372 36.8655 16.7372H33.7554C33.6301 16.7372 33.5667 16.6278 33.6135 16.5348L37.1603 6.18934C37.1603 6.18934 37.163 6.18114 37.1658 6.17704C37.2168 6.08542 37.3862 5.98014 37.5391 5.98014H40.7428C40.8971 5.98014 41.0651 6.08542 41.1161 6.17704C41.1188 6.18114 41.1202 6.18524 41.1216 6.18934L44.6683 16.5348H44.6697ZM39.0858 9.90174L38.3145 12.5941C38.3035 12.631 38.3324 12.6679 38.371 12.6679H39.9123C39.9508 12.6679 39.9784 12.631 39.9687 12.5941L39.1974 9.90174C39.1809 9.84568 39.101 9.84568 39.0845 9.90174H39.0858Z" fill="var(--fill-0, #0F1012)"/>
<path id="Vector_2" d="M57.3759 5.98014C57.5302 5.98014 57.6542 6.1032 57.6542 6.25635V16.5198C57.6542 16.6292 57.5591 16.7386 57.4338 16.7386H54.5289C54.4036 16.7386 54.2934 16.6292 54.2934 16.5198V12.2823C54.2934 12.2167 54.2011 12.2017 54.1804 12.2632L52.708 16.5034C52.6612 16.6278 52.4573 16.7372 52.3155 16.7372H50.5883C50.4464 16.7372 50.2425 16.6278 50.1957 16.5034L48.7233 12.2632C48.7013 12.2017 48.6103 12.2167 48.6103 12.2823V16.5198C48.6103 16.6292 48.5002 16.7386 48.3748 16.7386H45.4699C45.3446 16.7386 45.2496 16.6292 45.2496 16.5198V6.27139C45.2496 6.1114 45.3818 5.98014 45.5429 5.98014H48.7508C48.9533 5.98014 49.1847 6.11687 49.2811 6.28643C49.2839 6.29053 49.2853 6.29463 49.2866 6.29737L51.3968 12.0964C51.4147 12.147 51.4877 12.147 51.507 12.0964L53.6171 6.29737C53.6171 6.29737 53.6198 6.28916 53.6226 6.28643C53.719 6.11687 53.9518 5.98014 54.1543 5.98014H57.3787H57.3759Z" fill="var(--fill-0, #0F1012)"/>
<path id="Vector_3" d="M62.6926 5.98014C65.4405 5.98014 67.0906 7.46099 67.0906 9.69117C67.0906 11.9213 65.4418 13.4022 62.6926 13.4022H62.1072C62.0756 13.4022 62.0494 13.4282 62.0494 13.4596V16.5198C62.0494 16.6292 61.9392 16.7386 61.7987 16.7386H59.0453C58.8924 16.7386 58.7671 16.6141 58.7671 16.4624V6.21396C58.7671 6.08953 58.8773 5.98014 58.9875 5.98014H62.694H62.6926ZM62.8345 10.61C63.2808 10.61 63.6127 10.3639 63.7229 9.97831C63.8964 9.36847 63.3937 8.77093 62.7546 8.77093H62.0769C62.0452 8.77093 62.0191 8.79691 62.0191 8.82836V10.5526C62.0191 10.5841 62.0452 10.61 62.0769 10.61H62.8359H62.8345Z" fill="var(--fill-0, #0F1012)"/>
<path id="Vector_4" d="M74.0835 13.9314C74.1936 13.9314 74.2873 14.0243 74.2873 14.1501V16.5198C74.2873 16.636 74.2157 16.7386 74.0903 16.7386H68.1456C68.0203 16.7386 67.9101 16.6292 67.9101 16.5198V6.27139C67.9101 6.1114 68.0423 5.98014 68.2035 5.98014H70.8659C71.0271 5.98014 71.1593 6.1114 71.1593 6.27139V13.8726C71.1593 13.904 71.1855 13.93 71.2171 13.93H74.0807L74.0835 13.9314Z" fill="var(--fill-0, #0F1012)"/>
<path id="Vector_5" d="M78.1825 5.98014C78.323 5.98014 78.418 6.08953 78.418 6.21396V16.5198C78.418 16.6292 78.323 16.7386 78.1825 16.7386H75.4608C75.3079 16.7386 75.1826 16.6141 75.1826 16.4624V6.21396C75.1826 6.08953 75.2928 5.98014 75.403 5.98014H78.1825Z" fill="var(--fill-0, #0F1012)"/>
<path id="Vector_6" d="M86.7718 5.98014C86.9137 5.98014 87.0073 6.08953 87.0073 6.19892V8.49472C87.0073 8.65607 86.8751 8.78597 86.714 8.78597H82.8422C82.8105 8.78597 82.7843 8.81195 82.7843 8.8434V10.1465C82.7843 10.1779 82.8105 10.2039 82.8422 10.2039H86.8021C86.9426 10.2039 87.0087 10.3147 87.006 10.4063V12.6132C87.0073 12.7363 86.9426 12.7924 86.8049 12.7924H82.8422C82.8105 12.7924 82.7843 12.8183 82.7843 12.8498V16.5184C82.7843 16.6278 82.6741 16.7372 82.5488 16.7372H79.7693C79.6439 16.7372 79.5489 16.6128 79.5489 16.5034V6.19892C79.5489 6.08953 79.6425 5.98014 79.7693 5.98014H86.7732H86.7718Z" fill="var(--fill-0, #0F1012)"/>
<path id="Vector_7" d="M97.6035 5.98014H94.3418C94.2014 5.98014 94.0443 6.10457 93.981 6.229L92.7482 8.87212C92.7358 8.8981 92.7 8.96099 92.678 9.01159C92.6573 8.95963 92.6188 8.89126 92.6105 8.87212L91.3777 6.229C91.3144 6.10457 91.1587 5.98014 91.0169 5.98014H87.7553C87.5982 5.98014 87.5046 6.08953 87.5831 6.229L90.8654 12.0882C90.875 12.1059 90.875 12.1264 90.8654 12.1442L88.4302 16.4719C88.3517 16.6128 88.4453 16.7372 88.6023 16.7372C89.3764 16.7372 91.0306 16.7372 91.6959 16.7372C91.8102 16.7372 91.9163 16.6729 91.9714 16.5731L96.5649 8.39627L97.7743 6.229C97.8528 6.08953 97.7577 5.98014 97.6021 5.98014H97.6035Z" fill="var(--fill-0, #0F1012)"/>
<path id="Vector_8" d="M29.7555 10.532C24.2295 11.2744 21.5753 12.8852 20.3081 14.1828C19.6249 14.8734 19.3343 15.4695 19.158 15.8291C18.8632 16.4827 18.6153 17.3401 18.5326 17.9868C18.4665 18.5037 18.4569 19.0247 18.512 19.5484C18.5864 20.243 18.7558 20.9075 19.0271 21.5488C19.264 22.1108 19.5822 22.6263 19.9596 23.1035C20.2929 23.5247 20.6745 23.898 21.1001 24.2289C21.1138 24.2398 21.129 24.2494 21.1428 24.2603C21.5766 24.5953 22.0394 24.8838 22.5408 25.1081C22.9843 25.3064 23.443 25.4581 23.9195 25.5621C24.3507 25.6564 24.7859 25.707 25.2267 25.7152C25.3575 25.7179 26.2087 25.6714 26.6591 25.5894C26.9153 25.5429 27.1646 25.4759 27.4112 25.3993L26.8864 23.459C26.7211 23.5397 25.6192 23.7216 24.8658 23.6518C24.6275 23.63 23.2598 23.6081 21.8686 22.2052C21.5615 21.8961 21.3163 21.542 21.1056 21.1673C21.005 20.9841 20.9169 20.7954 20.8384 20.5985C20.786 20.4604 20.7406 20.3209 20.702 20.1774C20.5932 19.7699 20.5298 19.3597 20.5188 18.9413C20.5147 18.769 20.5216 18.5994 20.5381 18.4312C20.5436 18.3793 20.5491 18.326 20.556 18.274C20.6152 17.8569 20.7172 17.4549 20.8728 17.0652C21.0698 16.5689 21.3535 16.1259 21.7034 15.7211C21.8907 15.5037 22.2212 15.2111 22.4416 15.0238C22.7075 14.8036 23.2873 14.4426 23.684 14.243C23.7005 14.2348 23.9857 14.0967 24.0049 14.0885C24.2102 13.9941 24.6702 13.8027 24.673 13.8013C24.8327 13.7384 25.8052 13.4021 25.8107 13.4007C26.7046 13.1218 27.7679 12.8674 29.0282 12.6596L29.7541 10.532H29.7555Z" fill="var(--fill-0, #0F1012)"/>
<path id="Vector_9" d="M24.4512 18.0088C24.5228 17.9145 24.6799 17.7969 24.6812 17.79C25.071 17.5152 25.5393 17.2595 26.1041 17.0899C26.5503 16.9559 27.3134 16.8014 27.6288 16.7481L28.3588 14.6191C27.5875 14.7531 26.717 14.935 26.717 14.935C26.0311 15.069 24.9994 15.3794 24.235 15.7335C24.2088 15.7458 23.7984 15.9714 23.7143 16.0398C23.7143 16.0398 23.6703 16.0644 23.6 16.1136C23.5931 16.1177 23.5862 16.1218 23.5807 16.1259C23.5477 16.1506 23.5119 16.1765 23.4705 16.208C23.246 16.3693 23.0601 16.5717 22.8659 16.7713C22.578 17.0681 22.2158 17.8447 22.1786 18.136C22.1786 18.1401 22.1772 18.1428 22.1758 18.1469C22.1744 18.1551 22.1717 18.1647 22.1703 18.1729C22.0766 18.5599 22.0945 18.7786 22.0945 18.7786C22.0945 18.7786 22.0353 19.7522 22.5339 20.5015C22.5587 20.5398 22.5725 20.5644 22.5918 20.5931C22.5973 20.6013 22.6014 20.6095 22.6069 20.6177C22.6124 20.6259 22.6166 20.6328 22.6221 20.641C22.881 21.0512 23.2295 21.3971 23.6565 21.6816C23.7226 21.7253 23.7901 21.765 23.859 21.8019C23.9747 21.8648 24.2322 21.9687 24.2308 21.9742C24.3149 22.007 24.4003 22.0384 24.487 22.0658C25.1771 22.2777 25.7983 22.2777 26.5104 22.0576L25.9856 20.1105C25.9691 20.1159 25.9553 20.12 25.9471 20.1214C25.571 20.2376 25.3148 20.2321 24.9677 20.0995C24.9443 20.0899 24.9209 20.0804 24.8975 20.0694C24.8879 20.0653 24.8796 20.0599 24.8686 20.0558C24.8589 20.0517 24.8493 20.0462 24.8396 20.0421C24.7446 19.9942 24.6565 19.9354 24.5821 19.8657C24.3562 19.6551 24.2226 19.4186 24.1702 19.1574C24.1344 19.0125 24.1234 18.8661 24.1427 18.7267C24.1826 18.4423 24.2887 18.1907 24.4526 18.0047L24.4512 18.0088Z" fill="var(--fill-0, #0F1012)"/>
<path id="Vector_10" d="M6.85943 13.8013C6.85943 13.8013 7.32223 13.9928 7.52746 14.0885C7.54536 14.0967 7.83048 14.2348 7.84839 14.243C8.24507 14.4426 8.82494 14.8023 9.09078 15.0238C9.31116 15.2125 9.64172 15.5037 9.82905 15.7211C10.1789 16.1259 10.4626 16.5703 10.6596 17.0652C10.8152 17.4549 10.9172 17.8569 10.9764 18.274C10.9847 18.326 10.9888 18.3793 10.9943 18.4312C11.0095 18.5994 11.0177 18.7703 11.0136 18.9413C11.0039 19.3597 10.9392 19.7699 10.8304 20.1774C10.7918 20.3209 10.7464 20.4618 10.694 20.5985C10.6155 20.7954 10.5274 20.9841 10.4268 21.1673C10.2161 21.542 9.97092 21.8948 9.66376 22.2052C8.27262 23.6081 6.90351 23.63 6.6666 23.6518C5.91456 23.7216 4.81128 23.5384 4.646 23.459L4.12122 25.3993C4.36777 25.4759 4.61707 25.5415 4.87326 25.5894C5.32366 25.6728 6.17488 25.7179 6.30573 25.7152C6.74511 25.7056 7.18174 25.6564 7.61286 25.5621C8.08943 25.4581 8.54809 25.3064 8.99161 25.1081C9.49297 24.8838 9.95577 24.5953 10.3896 24.2603C10.4034 24.2494 10.4186 24.2398 10.4323 24.2289C10.8579 23.8993 11.2395 23.5247 11.5728 23.1035C11.9502 22.6263 12.2684 22.1108 12.5053 21.5488C12.7766 20.9075 12.946 20.243 13.0204 19.5484C13.0769 19.0247 13.0659 18.5037 12.9998 17.9868C12.9171 17.3401 12.6678 16.4827 12.3744 15.8291C12.1981 15.4695 11.9075 14.872 11.2243 14.1828C9.95714 12.8852 7.30295 11.2758 1.77693 10.532L2.50281 12.6596C3.7631 12.8674 4.82643 13.1218 5.72035 13.4007C5.72586 13.4021 6.69828 13.7384 6.85806 13.8013H6.85943Z" fill="var(--fill-0, #0F1012)"/>
<path id="Vector_11" d="M27.0531 27.062C25.8438 27.2972 24.6372 27.2795 23.4361 26.9896C22.7888 26.8337 22.1648 26.6149 21.5753 26.3141C20.9858 26.0119 20.4307 25.655 19.9238 25.2243C19.4913 24.8579 19.096 24.4558 18.7462 24.0115C18.3633 23.526 18.041 23.0037 17.7738 22.4458C17.6553 22.1983 17.5369 21.9508 17.4459 21.6924C17.3068 21.2972 17.2049 20.8925 17.1154 20.4836C17.0162 20.0283 16.9652 19.5702 16.9501 19.1067C16.9253 18.3465 17.0052 17.5971 17.1884 16.8574C17.3206 16.3228 17.6705 15.434 17.7696 15.2261C18.0272 14.6929 18.333 14.1938 18.6897 13.7302C18.9597 13.4021 19.2861 13.0547 19.6842 12.6992C20.0877 12.3382 20.585 11.954 21.1896 11.5684C21.2998 11.4973 21.4142 11.4317 21.5285 11.3688C21.8081 11.2143 22.1717 11.0064 22.3742 10.8888C24.2226 9.93442 26.8203 9.04153 30.4442 8.5274L31.3175 5.98137C28.1137 6.26715 25.6248 7.00142 23.8204 7.75211C18.979 9.86469 17.2063 12.9071 17.2063 12.9071C17.2063 11.3606 19.1291 7.82458 22.6731 4.87107C24.3397 3.48182 25.5697 2.88428 25.5697 2.88428V0.19741C22.4265 1.90935 20.1938 4.18465 18.3096 6.47635C17.3289 7.67006 16.6388 8.99094 16.0355 10.4089C15.9212 10.6783 15.7793 11.0844 15.7559 11.1692C15.7325 11.0844 15.5906 10.6783 15.4763 10.4089C14.8716 8.98957 14.183 7.67006 13.2023 6.47635C11.3194 4.18465 9.08668 1.91072 5.94352 0.19741V2.88292C5.94352 2.88292 7.17213 3.48045 8.83875 4.8697C12.3827 7.82321 14.3055 11.3592 14.3055 12.9057C14.3055 12.9057 12.5329 9.86332 7.6914 7.75074C5.88704 7.00142 3.39813 6.26715 0.194366 5.98L1.06762 8.52603C4.69149 9.04016 7.28783 9.93305 9.13764 10.8875C9.34149 11.0051 9.70374 11.2129 9.98335 11.3674C10.0977 11.4303 10.212 11.4973 10.3222 11.5671C10.9268 11.9527 11.4227 12.3369 11.8276 12.6979C12.2257 13.0534 12.5521 13.4007 12.8221 13.7289C13.1788 14.1924 13.4846 14.6915 13.7422 15.2248C13.8427 15.4326 14.1912 16.3214 14.3234 16.856C14.5066 17.5958 14.5865 18.3451 14.5617 19.1053C14.5466 19.5675 14.4956 20.0269 14.3964 20.4823C14.3069 20.8911 14.205 21.2959 14.0659 21.691C13.975 21.9495 13.8565 22.197 13.7381 22.4444C13.4709 23.0023 13.1485 23.5247 12.7656 24.0101C12.4158 24.4531 12.0205 24.8551 11.588 25.2229C11.0811 25.6523 10.5274 26.0105 9.93652 26.3127C9.34562 26.6149 8.72168 26.8323 8.07569 26.9882C6.87462 27.2781 5.66804 27.2959 4.45871 27.0607C4.18324 27.0073 3.90225 26.9444 3.63504 26.8597L2.93809 29.4399C3.26177 29.5493 7.95035 31.0424 12.5893 27.0197C12.5797 27.021 13.256 26.4495 13.5783 26.1295C13.7353 25.9736 13.8882 25.8123 14.0314 25.6455C14.4364 25.1737 14.7973 24.6719 15.1209 24.14C15.3496 23.7653 15.5658 23.3715 15.7545 22.9791C15.9432 23.3715 16.1595 23.7653 16.3881 24.14C16.7132 24.6705 17.0727 25.1737 17.4776 25.6455C17.6223 25.8136 17.7738 25.9736 17.9308 26.1295C18.2531 26.4495 18.9294 27.0224 18.9197 27.0197C23.5587 31.0424 28.2487 29.5493 28.571 29.4399L27.874 26.8597C27.6054 26.9444 27.3258 27.0073 27.0504 27.0607L27.0531 27.062Z" fill="var(--fill-0, #0F1012)"/>
<path id="Vector_12" d="M7.93377 16.1136C7.86215 16.0644 7.81945 16.0384 7.81945 16.0384C7.73543 15.9728 7.32635 15.7458 7.2988 15.7335C6.53436 15.3794 5.50271 15.069 4.81678 14.935C4.81678 14.935 3.94628 14.7531 3.17495 14.6191L3.90496 16.7481C4.22175 16.8028 4.98482 16.9559 5.42971 17.0899C5.99443 17.2595 6.46274 17.5152 6.85253 17.79C6.85253 17.7969 7.01093 17.9145 7.08255 18.0088C7.24646 18.1948 7.35252 18.4464 7.39246 18.7308C7.41175 18.8702 7.40073 19.0166 7.36492 19.1615C7.31258 19.4227 7.17759 19.6592 6.95308 19.8698C6.8787 19.9395 6.79055 19.9983 6.69551 20.0462C6.68587 20.0503 6.67623 20.0558 6.66659 20.0599C6.65557 20.064 6.64731 20.0681 6.63766 20.0735C6.61425 20.0845 6.59221 20.094 6.56742 20.1036C6.21894 20.2362 5.96413 20.2403 5.58811 20.1255C5.57984 20.1228 5.56607 20.1187 5.54954 20.1146L5.02476 22.0617C5.73686 22.2818 6.35668 22.2805 7.04812 22.0699C7.13627 22.0425 7.22029 22.0125 7.30431 21.9783C7.30431 21.9742 7.5605 21.8689 7.6762 21.8073C7.74507 21.7691 7.81394 21.7308 7.87868 21.687C8.30566 21.4026 8.65414 21.0567 8.91308 20.6465C8.91859 20.6383 8.92272 20.6314 8.92823 20.6232C8.93374 20.615 8.93787 20.6068 8.94338 20.5986C8.96404 20.5699 8.97644 20.5439 9.00123 20.507C9.49984 19.7577 9.44062 18.7841 9.44062 18.7841C9.44062 18.7841 9.45852 18.5653 9.36486 18.1784C9.36348 18.1702 9.36073 18.1606 9.35935 18.1524C9.35935 18.1483 9.3566 18.1455 9.3566 18.1414C9.31941 17.8502 8.95578 17.0735 8.66929 16.7768C8.47508 16.5772 8.28913 16.3748 8.06462 16.2135C8.0233 16.182 7.98611 16.156 7.95443 16.1328C7.95443 16.1328 7.94066 16.1232 7.93515 16.1191L7.93377 16.1136Z" fill="var(--fill-0, #0F1012)"/>
<path id="Vector_13" d="M42.2 28.6181C42.2469 28.7275 42.1849 28.8369 42.0582 28.8984C41.1477 29.4591 39.9219 29.8023 38.7607 29.8023C35.5253 29.8023 33.3587 27.557 33.3587 24.1892C33.3587 20.8214 35.5253 18.5762 38.7607 18.5762C39.9233 18.5762 41.1477 18.9194 42.0582 19.48C42.1835 19.5429 42.2469 19.6509 42.2 19.7603L41.1629 21.9276C41.1009 22.0684 40.9907 22.1149 40.864 22.052C40.2827 21.7252 39.718 21.6158 39.0417 21.6158C37.6286 21.6158 36.6864 22.6441 36.6864 24.1879C36.6864 25.7316 37.6286 26.7599 39.0417 26.7599C39.7166 26.7599 40.2827 26.6505 40.864 26.3237C40.9893 26.2608 41.0995 26.3086 41.1629 26.4481L42.2 28.6154V28.6181Z" fill="var(--fill-0, #0F1012)"/>
<path id="Vector_14" d="M51.8472 18.8115C51.989 18.8115 52.0827 18.9209 52.0827 19.0453V29.3511C52.0827 29.4605 51.989 29.5699 51.8472 29.5699H48.9106C48.7853 29.5699 48.6902 29.4605 48.6902 29.3511V25.9163C48.6902 25.8849 48.664 25.8589 48.6324 25.8589H46.5512C46.5195 25.8589 46.4933 25.8849 46.4933 25.9163V29.3511C46.4933 29.4605 46.3996 29.5699 46.2578 29.5699H43.3791C43.2262 29.5699 43.1008 29.4455 43.1008 29.2937V19.0467C43.1008 18.9222 43.211 18.8128 43.3212 18.8128H46.2578C46.3996 18.8128 46.4933 18.9222 46.4933 19.0467V23.0585C46.4933 23.09 46.5195 23.1159 46.5512 23.1159H48.6324C48.664 23.1159 48.6902 23.09 48.6902 23.0585V19.1055C48.6902 18.9455 48.8224 18.8142 48.9836 18.8142H51.8458L51.8472 18.8115Z" fill="var(--fill-0, #0F1012)"/>
<path id="Vector_15" d="M63.716 29.3662C63.7628 29.4591 63.7008 29.5685 63.5741 29.5685H60.4654C60.3235 29.5685 60.1981 29.4906 60.1362 29.3662L59.6775 27.7705C59.6706 27.7458 59.6472 27.7281 59.621 27.7281H56.7561C56.7299 27.7281 56.7065 27.7458 56.6996 27.7705L56.241 29.3662C56.1776 29.4906 56.0523 29.5685 55.9118 29.5685H52.803C52.6777 29.5685 52.6143 29.4591 52.6612 29.3662L56.2079 19.0207C56.2079 19.0207 56.2107 19.0125 56.2134 19.0084C56.2644 18.9168 56.4338 18.8115 56.5867 18.8115H59.7904C59.9447 18.8115 60.1127 18.9168 60.1637 19.0084C60.1665 19.0125 60.1678 19.0166 60.1692 19.0207L63.716 29.3662ZM58.1321 22.7331L57.3621 25.4254C57.3511 25.4623 57.38 25.4993 57.4186 25.4993H58.9599C58.9985 25.4993 59.026 25.4623 59.0164 25.4254L58.245 22.7331C58.2285 22.677 58.1486 22.677 58.1321 22.7331Z" fill="var(--fill-0, #0F1012)"/>
<path id="Vector_16" d="M73.308 18.8115C73.4499 18.8115 73.5435 18.9209 73.5435 19.0453V29.3511C73.5435 29.4605 73.4499 29.5699 73.308 29.5699H70.5904C70.4803 29.5699 70.3398 29.492 70.2613 29.3675L67.6387 24.713C67.6098 24.6611 67.5299 24.6816 67.5299 24.7417V29.3525C67.5299 29.4619 67.4349 29.5713 67.2944 29.5713H64.5149C64.3895 29.5713 64.2945 29.4619 64.2945 29.3525V19.1055C64.2945 18.9455 64.4267 18.8142 64.5879 18.8142H67.231C67.3729 18.8142 67.5299 18.8921 67.5919 19.0166L70.1993 23.6697C70.2282 23.7217 70.3081 23.7012 70.3081 23.641V19.0467C70.3081 18.9222 70.4183 18.8128 70.5271 18.8128H73.3066L73.308 18.8115Z" fill="var(--fill-0, #0F1012)"/>
<path id="Vector_17" d="M83.8435 22.975C83.9689 22.975 84.0791 23.0844 84.0791 23.1938V28.1519C84.0791 28.2927 84.0006 28.4322 83.8904 28.5265C82.8339 29.4181 81.1466 29.898 79.4456 29.7681C76.5008 29.5439 74.3052 27.0156 74.3411 24.084C74.3824 20.7681 76.633 18.5639 79.9938 18.5639C81.1563 18.5639 82.3808 18.9071 83.2926 19.4677C83.4179 19.5306 83.4648 19.6551 83.4331 19.748L82.648 22.0397C82.6012 22.1491 82.491 22.1956 82.3491 22.1642C81.7059 21.821 80.8726 21.6186 80.0875 21.6186C78.6426 21.6186 77.6688 22.6469 77.6688 24.1756C77.6688 25.7043 78.6426 26.764 80.0875 26.764C80.6494 26.764 81.0365 26.6614 81.2169 26.4851C81.2279 26.4741 81.2334 26.4591 81.2334 26.4427V25.6209C81.2334 25.5894 81.2073 25.5635 81.1756 25.5635H79.7899C79.6481 25.5635 79.5544 25.5006 79.5393 25.3925L79.3354 23.2403C79.3203 23.0844 79.4139 22.975 79.5861 22.975H83.8422H83.8435Z" fill="var(--fill-0, #0F1012)"/>
<path id="Vector_18" d="M92.5761 26.7627C92.7014 26.7627 92.8116 26.8557 92.8116 26.965V29.3511C92.8116 29.4605 92.7014 29.5699 92.5761 29.5699H85.2733C85.1631 29.5699 85.0529 29.4454 85.0226 29.3361V19.089C85.0226 18.9359 85.1465 18.8128 85.3008 18.8128H92.3888C92.5306 18.8128 92.6394 18.9222 92.6394 19.0316V21.3274C92.6394 21.4887 92.5072 21.6186 92.3461 21.6186H88.3476C88.3159 21.6186 88.2897 21.6446 88.2897 21.6761V22.7918C88.2897 22.8233 88.3159 22.8493 88.3476 22.8493H91.6188C91.7607 22.8493 91.8282 22.9532 91.8227 23.0516L91.8282 25.234C91.8282 25.3365 91.7634 25.4363 91.6229 25.4363H88.3489C88.3173 25.4363 88.2911 25.4623 88.2911 25.4938V26.7025C88.2911 26.734 88.3173 26.7599 88.3489 26.7599H92.5775L92.5761 26.7627Z" fill="var(--fill-0, #0F1012)"/>
</g>
<defs>
<clipPath id="clip0_3105_3040">
<rect width="98" height="30" fill="white"/>
</clipPath>
</defs>
</svg>
