<svg preserveAspectRatio="none" width="100%" height="100%" overflow="visible" style="display: block;" viewBox="0 0 22 22" fill="none" xmlns="http://www.w3.org/2000/svg">
<path id="Vector" d="M11 7.80731L3.06386 12.9658C2.37601 13.4129 2.03209 13.6365 1.91297 13.92C1.80888 14.1677 1.80888 14.447 1.91297 14.6947M11 7.80731L18.9361 12.9658C19.624 13.4129 19.9679 13.6365 20.087 13.92C20.1911 14.1677 20.1911 14.447 20.087 14.6947M11 7.80731V1.30731M11 13.8073L3.06386 8.64882C2.37601 8.20172 2.03209 7.97817 1.91297 7.69467C1.80888 7.44692 1.80888 7.1677 1.91297 6.91995M11 13.8073L18.9361 8.64882C19.624 8.20172 19.9679 7.97817 20.087 7.69467C20.1911 7.44692 20.1911 7.1677 20.087 6.91995M11 13.8073V20.3073M20.272 14.7806L11.872 20.2406C11.5564 20.4457 11.3985 20.5483 11.2285 20.5882C11.0782 20.6235 10.9218 20.6235 10.7715 20.5882C10.6015 20.5483 10.4436 20.4457 10.128 20.2406L1.72802 14.7806C1.46201 14.6076 1.32901 14.5212 1.23265 14.4059C1.14735 14.3038 1.08327 14.1857 1.04417 14.0586C1 13.9149 1 13.7563 1 13.439V8.17561C1 7.85835 1 7.69972 1.04417 7.55608C1.08327 7.42892 1.14735 7.31085 1.23265 7.20877C1.32901 7.09345 1.46201 7.007 1.72802 6.8341L10.128 1.3741C10.4436 1.16894 10.6015 1.06637 10.7715 1.02646C10.9218 0.99118 11.0782 0.99118 11.2285 1.02646C11.3985 1.06637 11.5564 1.16894 11.872 1.3741L20.272 6.8341C20.538 7.007 20.671 7.09345 20.7674 7.20877C20.8527 7.31085 20.9167 7.42892 20.9558 7.55608C21 7.69972 21 7.85835 21 8.17561V13.439C21 13.7563 21 13.9149 20.9558 14.0586C20.9167 14.1857 20.8527 14.3038 20.7674 14.4059C20.671 14.5212 20.538 14.6076 20.272 14.7806Z" stroke="var(--stroke-0, #0F1012)" stroke-width="2" stroke-linecap="round" stroke-linejoin="round"/>
</svg>
