<svg preserveAspectRatio="none" width="100%" height="100%" overflow="visible" style="display: block;" viewBox="0 0 20 22" fill="none" xmlns="http://www.w3.org/2000/svg">
<path id="Union" d="M9.95649 -2.69004e-08C10.5779 4.76775e-05 11.1865 0.179883 11.7075 0.518555C12.2277 0.856732 12.6387 1.33875 12.8911 1.90527L13.4799 3.21973L13.4819 3.22461C13.603 3.49867 13.808 3.72765 14.0668 3.87891C14.3281 4.02956 14.6309 4.0946 14.9311 4.06348L16.3618 3.91113L16.5942 3.89551C17.135 3.87771 17.6732 3.99646 18.1577 4.24316C18.7116 4.52528 19.1723 4.96177 19.4829 5.5H19.4819C19.7927 6.03794 19.9413 6.65476 19.9086 7.27539C19.8759 7.89599 19.6637 8.4938 19.2983 8.99609L18.4516 10.1592C18.274 10.4036 18.1781 10.6981 18.1782 11V11.0049C18.1766 11.3064 18.2708 11.6008 18.4467 11.8457L19.2924 13.0088H19.2934C19.6592 13.5113 19.8711 14.1099 19.9038 14.7305C19.9323 15.2735 19.8227 15.8137 19.5864 16.3008L19.478 16.5059C19.1675 17.0438 18.7073 17.4807 18.1538 17.7627C17.5999 18.0448 16.9757 18.16 16.3579 18.0947H16.3569L14.9272 17.9424V17.9414C14.6271 17.9101 14.3245 17.9753 14.0629 18.126L14.062 18.125C13.8034 18.2751 13.5983 18.5035 13.476 18.7764L13.477 18.7773L12.892 20.0918C12.6398 20.6594 12.2286 21.1427 11.7075 21.4814C11.1866 21.82 10.578 22 9.95649 22C9.33493 22.0001 8.72651 21.8199 8.20551 21.4814C7.74963 21.1851 7.3774 20.778 7.1225 20.3008L7.01997 20.0918L6.43598 18.7773V18.7764C6.31362 18.5008 6.10625 18.2709 5.84516 18.1201C5.58346 17.9694 5.28027 17.9042 4.97993 17.9355L4.9809 17.9365L3.55122 18.0889H3.55024C2.93251 18.1539 2.30863 18.0384 1.75532 17.7568C1.2017 17.4749 0.74092 17.0379 0.430122 16.5C0.119241 15.962 -0.0283091 15.3451 0.00434053 14.7246C0.0370221 14.104 0.248931 13.5064 0.614692 13.0039L1.4604 11.8408L1.52387 11.7471C1.64143 11.5551 1.71215 11.3377 1.72993 11.1133L1.73383 11C1.73389 10.6981 1.63801 10.4035 1.4604 10.1592V10.1582L0.614692 8.99609C0.248949 8.49364 0.0370293 7.89601 0.00434053 7.27539C-0.028312 6.65488 0.119266 6.03801 0.430122 5.5L0.553169 5.30371C0.856862 4.85553 1.26974 4.49002 1.75434 4.24316C2.23899 3.99639 2.77771 3.87757 3.31879 3.89551L3.55024 3.91113L4.98481 4.06348H4.98383C5.28453 4.09499 5.58814 4.02998 5.85004 3.87891C6.10882 3.72765 6.31381 3.4988 6.435 3.22461L6.43598 3.22266L7.01997 1.9082L7.1225 1.69922C7.37742 1.22193 7.7497 0.814875 8.20551 0.518555C8.72659 0.180054 9.33507 -0.000101638 9.95649 -2.69004e-08ZM9.95649 2C9.72203 1.99996 9.4921 2.06849 9.29536 2.19629C9.14805 2.29208 9.02318 2.4179 8.93012 2.56543L8.84809 2.7207L8.26313 4.03223L8.26411 4.0332C7.9717 4.6947 7.47732 5.24697 6.852 5.61035L6.84907 5.61133C6.22159 5.97327 5.49528 6.12832 4.77485 6.05273L4.77387 6.05176L3.3393 5.90039V5.89941C3.10646 5.87492 2.87126 5.9192 2.66254 6.02539C2.45358 6.13182 2.27974 6.29691 2.16254 6.5H2.16157C2.04428 6.70291 1.98913 6.9359 2.00141 7.16992C2.01373 7.40401 2.09391 7.6298 2.23188 7.81934L3.07856 8.98242V8.9834C3.5045 9.56946 3.73392 10.2754 3.73383 11L3.72309 11.2705C3.67343 11.899 3.45133 12.5038 3.07856 13.0166V13.0176L2.23188 14.1807H2.2309C2.09305 14.3701 2.01372 14.596 2.00141 14.8301C1.98914 15.0641 2.04433 15.2972 2.16157 15.5H2.16254C2.27998 15.703 2.45365 15.8682 2.66254 15.9746C2.87133 16.0808 3.10657 16.1239 3.3393 16.0996L4.76899 15.9482L4.77094 15.9473C5.40112 15.8812 6.03597 15.991 6.60493 16.2617L6.84516 16.3877V16.3887C7.47253 16.7509 7.96909 17.3028 8.26313 17.9648L8.84809 19.2793C8.94338 19.4937 9.09886 19.676 9.29536 19.8037C9.49206 19.9315 9.72134 20 9.95551 20H9.95649L10.1313 19.9873C10.3038 19.9621 10.4703 19.8995 10.6176 19.8037C10.8139 19.676 10.9697 19.4936 11.0649 19.2793L11.6489 17.9648L11.6498 17.9639C11.9437 17.3053 12.4378 16.7559 13.062 16.3945L13.0629 16.3936C13.6904 16.0317 14.4167 15.8774 15.1372 15.9531H15.1391L16.5688 16.1055H16.5678C16.801 16.1301 17.0368 16.0868 17.2456 15.9805C17.4543 15.8741 17.6284 15.7089 17.7456 15.5059V15.5049C17.8627 15.3021 17.9189 15.0698 17.9067 14.8359C17.8944 14.6018 17.814 14.3759 17.6762 14.1865L16.8295 13.0225L16.8276 13.0205C16.402 12.4314 16.1745 11.7219 16.1782 10.9951C16.1791 10.2721 16.4093 9.5682 16.8344 8.9834V8.98242L17.6811 7.81934L17.7739 7.6709C17.8551 7.51653 17.9023 7.34537 17.9116 7.16992C17.9208 6.99463 17.8911 6.82009 17.8266 6.6582L17.7504 6.5C17.6333 6.29692 17.4592 6.1318 17.2504 6.02539C17.0416 5.91902 16.8057 5.87485 16.5727 5.89941L15.143 6.05176L15.142 6.05273C14.4216 6.12839 13.6953 5.97328 13.0678 5.61133L13.0649 5.61035C12.4411 5.24792 11.9474 4.69757 11.6547 4.03809L11.0659 2.72363L11.0649 2.7207C10.9697 2.50642 10.814 2.32409 10.6176 2.19629C10.4211 2.06856 10.191 2.00005 9.95649 2ZM10.06 7C12.2691 7 14.06 8.79079 14.06 11C14.06 13.2092 12.2691 15 10.06 15C7.8509 14.9999 6.06 13.2091 6.06 11C6.06 8.79087 7.8509 7.00009 10.06 7ZM10.06 9C8.95546 9.00009 8.06 9.89545 8.06 11C8.06 12.1046 8.95546 12.9999 10.06 13C11.1645 13 12.06 12.1046 12.06 11C12.06 9.89541 11.1645 9 10.06 9Z" fill="var(--fill-0, #0F1012)"/>
</svg>
