<svg preserveAspectRatio="none" width="100%" height="100%" overflow="visible" style="display: block;" viewBox="0 0 20 22" fill="none" xmlns="http://www.w3.org/2000/svg">
<path id="Vector" d="M7.75 19.6061L9.223 20.4244C9.5066 20.582 9.6484 20.6607 9.7986 20.6916C9.9315 20.719 10.0685 20.719 10.2015 20.6916C10.3516 20.6607 10.4934 20.582 10.777 20.4244L12.25 19.6061M3.25 17.1061L1.82297 16.3133C1.52346 16.1469 1.37368 16.0637 1.26463 15.9453C1.16816 15.8407 1.09515 15.7166 1.05048 15.5814C1 15.4286 1 15.2573 1 14.9146V13.3561M1 8.35605V6.79749C1 6.45485 1 6.28353 1.05048 6.13073C1.09515 5.99555 1.16816 5.87147 1.26463 5.76678C1.37368 5.64844 1.52345 5.56524 1.82297 5.39884L3.25 4.60605M7.75 2.10604L9.223 1.28773C9.5066 1.13017 9.6484 1.05139 9.7986 1.0205C9.9315 0.993168 10.0685 0.993168 10.2015 1.0205C10.3516 1.05139 10.4934 1.13017 10.777 1.28773L12.25 2.10604M16.75 4.60604L18.177 5.39884C18.4766 5.56524 18.6263 5.64844 18.7354 5.76678C18.8318 5.87147 18.9049 5.99555 18.9495 6.13073C19 6.28353 19 6.45485 19 6.79749V8.35604M19 13.3561V14.9146C19 15.2573 19 15.4286 18.9495 15.5814C18.9049 15.7166 18.8318 15.8407 18.7354 15.9453C18.6263 16.0637 18.4766 16.1469 18.177 16.3133L16.75 17.1061M7.75 9.60606L10 10.8561M10 10.8561L12.25 9.60606M10 10.8561V13.3561M1 5.85604L3.25 7.10604M16.75 7.10604L19 5.85604M10 18.3561V20.8561" stroke="var(--stroke-0, #0F1012)" stroke-width="2" stroke-linecap="round" stroke-linejoin="round"/>
</svg>
