<svg preserveAspectRatio="none" width="100%" height="100%" overflow="visible" style="display: block;" viewBox="0 0 22 22" fill="none" xmlns="http://www.w3.org/2000/svg">
<path id="Union" d="M20.2002 8C20.3235 8 20.476 7.9989 20.6094 8.00977C20.7184 8.01867 20.8631 8.03867 21.0205 8.09473L21.1807 8.16309L21.2842 8.22168C21.4855 8.34517 21.6548 8.51446 21.7783 8.71582L21.8369 8.81934L21.9053 8.97949C21.9613 9.13686 21.9813 9.28159 21.9902 9.39062C22.0011 9.52398 22 9.67649 22 9.7998V20.2002C22 20.3235 22.0011 20.476 21.9902 20.6094C21.9813 20.7184 21.9613 20.8631 21.9053 21.0205L21.8369 21.1807C21.7111 21.4278 21.5192 21.6342 21.2842 21.7783L21.1807 21.8369C20.9629 21.9478 20.7546 21.9784 20.6094 21.9902C20.476 22.0011 20.3235 22 20.2002 22H9.7998C9.67649 22 9.52398 22.0011 9.39062 21.9902C9.28159 21.9813 9.13686 21.9613 8.97949 21.9053L8.81934 21.8369C8.57224 21.7111 8.36584 21.5192 8.22168 21.2842L8.16309 21.1807C8.05225 20.9629 8.02163 20.7545 8.00977 20.6094C7.9989 20.476 8 20.3235 8 20.2002V17.7998C8 17.6765 7.9989 17.524 8.00977 17.3906C8.02163 17.2454 8.05224 17.0371 8.16309 16.8193L8.22168 16.7158C8.36584 16.4808 8.57223 16.2889 8.81934 16.1631C9.0371 16.0522 9.24544 16.0216 9.39062 16.0098C9.52398 15.9989 9.67649 16 9.7998 16H12V13.7998C12 13.6765 11.9989 13.524 12.0098 13.3906C12.0216 13.2454 12.0522 13.0371 12.1631 12.8193C12.3069 12.5368 12.5368 12.3069 12.8193 12.1631L12.9795 12.0947C13.1369 12.0387 13.2816 12.0187 13.3906 12.0098C13.524 11.9989 13.6765 12 13.7998 12H16V9.7998C16 9.67649 15.9989 9.52398 16.0098 9.39062C16.0216 9.24544 16.0522 9.0371 16.1631 8.81934L16.2217 8.71582C16.3658 8.48076 16.5722 8.28887 16.8193 8.16309L16.9795 8.09473C17.1369 8.03867 17.2816 8.01868 17.3906 8.00977C17.524 7.9989 17.6765 8 17.7998 8H20.2002ZM18 12.2002C18 12.3235 18.0011 12.476 17.9902 12.6094C17.9813 12.7184 17.9613 12.8631 17.9053 13.0205L17.8369 13.1807C17.7111 13.4278 17.5192 13.6342 17.2842 13.7783L17.1807 13.8369C16.9629 13.9478 16.7546 13.9784 16.6094 13.9902C16.476 14.0011 16.3235 14 16.2002 14H14V16.2002C14 16.3235 14.0011 16.476 13.9902 16.6094C13.9813 16.7184 13.9613 16.8631 13.9053 17.0205L13.8369 17.1807C13.7111 17.4278 13.5192 17.6342 13.2842 17.7783L13.1807 17.8369C12.9629 17.9478 12.7546 17.9784 12.6094 17.9902C12.476 18.0011 12.3235 18 12.2002 18H10V20H20V10H18V12.2002ZM5.2002 10C5.32351 10 5.47602 9.9989 5.60938 10.0098C5.71837 10.0187 5.86313 10.0387 6.02051 10.0947L6.18066 10.1631L6.28418 10.2217C6.48559 10.3452 6.65485 10.5145 6.77832 10.7158L6.83691 10.8193L6.90527 10.9795C6.96133 11.1369 6.98132 11.2816 6.99023 11.3906C7.0011 11.524 7 11.6765 7 11.7998V14.2002C7 14.3235 7.0011 14.476 6.99023 14.6094C6.97837 14.7546 6.94776 14.9629 6.83691 15.1807C6.69313 15.4629 6.4632 15.6931 6.18066 15.8369C5.96288 15.9478 5.7545 15.9784 5.60938 15.9902C5.47602 16.0011 5.32351 16 5.2002 16H2.7998C2.67648 16 2.52397 16.0011 2.39062 15.9902C2.2455 15.9784 2.03711 15.9478 1.81934 15.8369C1.53682 15.6931 1.30686 15.4629 1.16309 15.1807C1.05225 14.9629 1.02163 14.7545 1.00977 14.6094C0.998902 14.476 0.999999 14.3235 1 14.2002V11.7998C0.999999 11.6765 0.9989 11.524 1.00977 11.3906C1.02163 11.2454 1.05224 11.0371 1.16309 10.8193L1.22168 10.7158C1.36579 10.4809 1.57218 10.2889 1.81934 10.1631L1.97949 10.0947C2.13687 10.0387 2.28163 10.0187 2.39062 10.0098C2.52397 9.9989 2.67648 10 2.7998 10H5.2002ZM3 14H5V12H3V14ZM12.2002 4C12.3235 4 12.476 3.9989 12.6094 4.00977C12.7184 4.01867 12.8631 4.03867 13.0205 4.09473L13.1807 4.16309L13.2842 4.22168C13.4855 4.34515 13.6548 4.51441 13.7783 4.71582L13.8369 4.81934L13.9053 4.97949C13.9613 5.13687 13.9813 5.28163 13.9902 5.39062C14.0011 5.52397 14 5.67648 14 5.7998V8.2002C14 8.32351 14.0011 8.47602 13.9902 8.60938C13.9784 8.7545 13.9478 8.96288 13.8369 9.18066C13.6931 9.4632 13.4629 9.69313 13.1807 9.83691C12.9629 9.94776 12.7546 9.97837 12.6094 9.99023C12.476 10.0011 12.3235 10 12.2002 10H9.7998C9.67649 10 9.52398 10.0011 9.39062 9.99023C9.24544 9.97837 9.0371 9.94776 8.81934 9.83691C8.53707 9.69313 8.30693 9.46318 8.16309 9.18066C8.05223 8.96289 8.02162 8.7545 8.00977 8.60938C7.9989 8.47602 8 8.32351 8 8.2002V5.7998C8 5.67648 7.9989 5.52397 8.00977 5.39062C8.02163 5.2455 8.05222 5.03711 8.16309 4.81934L8.22168 4.71582C8.36585 4.48076 8.57243 4.28885 8.81934 4.16309L8.97949 4.09473C9.13686 4.03867 9.28159 4.01868 9.39062 4.00977C9.52398 3.9989 9.67649 4 9.7998 4H12.2002ZM10 8H12V6H10V8ZM4.2002 0C4.32351 -8.15658e-07 4.47602 -0.00109565 4.60938 0.00976562C4.71837 0.0186713 4.86313 0.0386685 5.02051 0.0947266L5.18066 0.163086L5.28418 0.22168C5.48553 0.345188 5.65481 0.514478 5.77832 0.71582L5.83691 0.819336L5.90527 0.979492C5.96134 1.13687 5.98133 1.28163 5.99023 1.39062C6.0011 1.52397 6 1.67648 6 1.7998V4.2002C6 4.32351 6.0011 4.47602 5.99023 4.60938C5.97838 4.7545 5.94778 4.96288 5.83691 5.18066C5.6931 5.46294 5.46294 5.6931 5.18066 5.83691C4.96288 5.94778 4.7545 5.97838 4.60938 5.99023C4.47602 6.0011 4.32351 6 4.2002 6H1.7998C1.67648 6 1.52397 6.0011 1.39062 5.99023C1.2455 5.97837 1.03711 5.94778 0.819336 5.83691C0.537075 5.6931 0.30689 5.46293 0.163086 5.18066C0.0522307 4.96289 0.0216232 4.7545 0.00976562 4.60938C-0.00109565 4.47602 -8.15658e-07 4.32351 0 4.2002V1.7998C-1.00047e-06 1.67648 -0.00109767 1.52397 0.00976562 1.39062C0.0216256 1.2455 0.0522224 1.03711 0.163086 0.819336L0.22168 0.71582C0.365802 0.48087 0.572381 0.288902 0.819336 0.163086L0.979492 0.0947266C1.13687 0.0386632 1.28163 0.0186732 1.39062 0.00976562C1.52397 -0.00109767 1.67648 -1.00047e-06 1.7998 0H4.2002ZM2 4H4V2H2V4Z" fill="var(--fill-0, #0F1012)"/>
</svg>
