<svg preserveAspectRatio="none" width="100%" height="100%" overflow="visible" style="display: block;" viewBox="0 0 22 22" fill="none" xmlns="http://www.w3.org/2000/svg">
<path id="Vector" d="M11 1C14 3 14.9228 7.29203 15 11C14.9228 14.708 14 19 11 21M11 1C8 3 7.07725 7.29203 7 11C7.07725 14.708 8 19 11 21M11 1C5.47715 1 1 5.47715 1 11M11 1C16.5228 1 21 5.47715 21 11M11 21C16.5229 21 21 16.5228 21 11M11 21C5.47716 21 1 16.5228 1 11M1 11C3 14 7.29203 14.9228 11 15C14.708 14.9228 19 14 21 11M1 11C3 8 7.29203 7.07725 11 7C14.708 7.07725 19 8 21 11" stroke="var(--stroke-0, #0F1012)" stroke-width="2" stroke-linecap="round" stroke-linejoin="round"/>
</svg>
