<svg preserveAspectRatio="none" width="100%" height="100%" overflow="visible" style="display: block;" viewBox="0 0 22 22" fill="none" xmlns="http://www.w3.org/2000/svg">
<path id="Vector" d="M5 19.0138H7.61029C7.95063 19.0138 8.28888 19.0543 8.61881 19.1353L11.3769 19.8055C11.9753 19.9513 12.5988 19.9655 13.2035 19.848L16.253 19.2547C17.0585 19.0978 17.7996 18.7121 18.3803 18.1471L20.5379 16.0483C21.154 15.45 21.154 14.479 20.5379 13.8797C19.9832 13.3401 19.1047 13.2793 18.4771 13.7369L15.9626 15.5715C15.6025 15.8347 15.1643 15.9764 14.7137 15.9764H12.2855H13.8311C14.7022 15.9764 15.4079 15.2899 15.4079 14.4425V14.1358C15.4079 13.4321 14.9156 12.8186 14.2141 12.6485L11.8286 12.0684C11.4404 11.9742 11.0428 11.9266 10.6431 11.9266C9.6783 11.9266 7.93189 12.7254 7.93189 12.7254L5 13.9515M1 13.5266V19.3266C1 19.8867 1 20.1667 1.10899 20.3806C1.20487 20.5688 1.35785 20.7217 1.54601 20.8176C1.75992 20.9266 2.03995 20.9266 2.6 20.9266H3.4C3.96005 20.9266 4.24008 20.9266 4.45399 20.8176C4.64215 20.7218 4.79513 20.5688 4.89101 20.3806C5 20.1667 5 19.8867 5 19.3266V13.5266C5 12.9666 5 12.6865 4.89101 12.4726C4.79513 12.2845 4.64215 12.1315 4.45399 12.0356C4.24008 11.9266 3.96005 11.9266 3.4 11.9266H2.6C2.03995 11.9266 1.75992 11.9266 1.54601 12.0356C1.35785 12.1315 1.20487 12.2845 1.10899 12.4726C1 12.6865 1 12.9666 1 13.5266ZM16.1914 2.51891C15.5946 1.27005 14.2186 0.608437 12.8804 1.24703C11.5423 1.88562 10.9722 3.40004 11.5325 4.72948C11.8787 5.55112 12.8707 7.14666 13.5781 8.24569C13.8394 8.65177 13.9701 8.85481 14.161 8.97354C14.3247 9.07544 14.5297 9.13034 14.7224 9.12404C14.9471 9.11654 15.1618 9.00604 15.5911 8.78509C16.7532 8.18697 18.4101 7.30121 19.1208 6.76278C20.2707 5.89158 20.5556 4.29023 19.6947 3.0729C18.8337 1.85556 17.3327 1.73578 16.1914 2.51891Z" stroke="var(--stroke-0, #0F1012)" stroke-width="2" stroke-linecap="round" stroke-linejoin="round"/>
</svg>
