<svg preserveAspectRatio="none" width="100%" height="100%" overflow="visible" style="display: block;" viewBox="0 0 24 24" fill="none" xmlns="http://www.w3.org/2000/svg">
<path id="Union" d="M12 0C15.2578 0 15.6658 0.0142578 16.9502 0.0751953C18.2251 0.131458 19.0973 0.337516 19.8613 0.632812C20.6487 0.937487 21.3188 1.3501 21.9844 2.01562C22.6547 2.68121 23.0621 3.35162 23.3574 4.14844C23.6527 4.90781 23.8598 5.78457 23.916 7.05957C23.9723 8.33909 23.9863 8.74725 23.9863 12.0049C23.9863 15.2625 23.9723 15.6705 23.916 16.9502C23.8598 18.2251 23.6527 19.0973 23.3574 19.8613C23.0528 20.6486 22.6401 21.3189 21.9746 21.9844C21.309 22.6499 20.639 23.0625 19.8516 23.3672C19.0922 23.6625 18.2154 23.8686 16.9404 23.9248C15.6609 23.981 15.2528 23.9951 11.9951 23.9951C8.73748 23.9951 8.32947 23.9811 7.0498 23.9248C5.77492 23.8685 4.90269 23.6625 4.13867 23.3672C3.35132 23.0625 2.68115 22.6499 2.01562 21.9844C1.34534 21.3188 0.9373 20.6486 0.62793 19.8564C0.332617 19.0971 0.126563 18.2203 0.0703125 16.9453C0.0140625 15.6656 0 15.2578 0 12C0 8.74219 0.0140625 8.33418 0.0703125 7.0498C0.126575 5.77491 0.332632 4.9027 0.62793 4.13867C0.937292 3.35129 1.34539 2.68117 2.01562 2.01562C2.68122 1.34534 3.35141 0.9373 4.14355 0.62793C4.90293 0.332617 5.77969 0.126563 7.05469 0.0703125C8.33437 0.0140625 8.74219 2.7444e-09 12 0ZM12 2.16113C8.79391 2.16113 8.41411 2.1752 7.15332 2.23145C5.98635 2.283 5.34863 2.47951 4.92676 2.64355C4.36903 2.85915 3.97063 3.1173 3.54883 3.53906C3.1317 3.95619 2.86893 4.3593 2.65332 4.91699C2.48927 5.33885 2.29181 5.97179 2.24023 7.14355C2.18399 8.40444 2.16992 8.78434 2.16992 11.9902C2.16992 15.1918 2.18398 15.5723 2.24023 16.8379C2.29182 18.0048 2.48928 18.6426 2.65332 19.0645C2.86891 19.6221 3.12705 20.0206 3.54883 20.4424C3.96591 20.8594 4.36908 21.1223 4.92676 21.3379C5.34863 21.5019 5.98172 21.6984 7.15332 21.75C8.4141 21.8062 8.79392 21.8203 12 21.8203C15.2014 21.8203 15.5812 21.8062 16.8467 21.75C18.0136 21.6984 18.6514 21.5019 19.0732 21.3379C19.6309 21.1223 20.0294 20.8641 20.4512 20.4424C20.8683 20.0253 21.1311 19.6221 21.3467 19.0645C21.5107 18.6426 21.7082 18.0095 21.7598 16.8379C21.816 15.577 21.8301 15.1965 21.8301 11.9902C21.8301 8.78903 21.816 8.40913 21.7598 7.14355C21.7082 5.97648 21.5107 5.33885 21.3467 4.91699C21.1311 4.3593 20.873 3.96088 20.4512 3.53906C20.0341 3.12199 19.631 2.85915 19.0732 2.64355C18.6514 2.47951 18.0183 2.283 16.8467 2.23145C15.5859 2.1752 15.2061 2.16113 12 2.16113ZM12 5.83594C15.4031 5.83594 18.1641 8.59688 18.1641 12C18.1641 15.4031 15.4031 18.1641 12 18.1641C8.59688 18.1641 5.83594 15.4031 5.83594 12C5.83594 8.59688 8.59688 5.83594 12 5.83594ZM12 8.00195C9.79219 8.00195 8.00195 9.79219 8.00195 12C8.00195 14.2078 9.79219 15.998 12 15.998C14.2078 15.998 15.998 14.2078 15.998 12C15.998 9.79219 14.2078 8.00195 12 8.00195ZM18.4082 4.15332C19.2001 4.15353 19.8465 4.7999 19.8467 5.5918C19.8467 6.38854 19.2002 7.03104 18.4082 7.03125C17.6113 7.03125 16.9688 6.38399 16.9688 5.5918C16.9689 4.79508 17.6161 4.15332 18.4082 4.15332Z" fill="var(--fill-0, #0F1012)"/>
</svg>
