<svg preserveAspectRatio="none" width="100%" height="100%" overflow="visible" style="display: block;" viewBox="0 0 22 18" fill="none" xmlns="http://www.w3.org/2000/svg">
<path id="Vector" d="M2 13V4.2C2 3.07989 2 2.51984 2.21799 2.09202C2.40973 1.71569 2.71569 1.40973 3.09202 1.21799C3.51984 1 4.0799 1 5.2 1H16.8C17.9201 1 18.4802 1 18.908 1.21799C19.2843 1.40973 19.5903 1.71569 19.782 2.09202C20 2.51984 20 3.0799 20 4.2V13H14.6627C14.4182 13 14.2959 13 14.1808 13.0276C14.0787 13.0521 13.9812 13.0925 13.8917 13.1474C13.7908 13.2092 13.7043 13.2957 13.5314 13.4686L13.4686 13.5314C13.2957 13.7043 13.2092 13.7908 13.1083 13.8526C13.0188 13.9075 12.9213 13.9479 12.8192 13.9724C12.7041 14 12.5818 14 12.3373 14H9.6627C9.4182 14 9.2959 14 9.1808 13.9724C9.0787 13.9479 8.98119 13.9075 8.89172 13.8526C8.7908 13.7908 8.70432 13.7043 8.53137 13.5314L8.46863 13.4686C8.29568 13.2957 8.2092 13.2092 8.10828 13.1474C8.01881 13.0925 7.92127 13.0521 7.81923 13.0276C7.70414 13 7.58185 13 7.33726 13H2ZM2 13C1.44772 13 1 13.4477 1 14V14.3333C1 14.9533 1 15.2633 1.06815 15.5176C1.25308 16.2078 1.79218 16.7469 2.48236 16.9319C2.7367 17 3.04669 17 3.66667 17H18.3333C18.9533 17 19.2633 17 19.5176 16.9319C20.2078 16.7469 20.7469 16.2078 20.9319 15.5176C21 15.2633 21 14.9533 21 14.3333C21 14.0233 21 13.8683 20.9659 13.7412C20.8735 13.3961 20.6039 13.1265 20.2588 13.0341C20.1317 13 19.9767 13 19.6667 13H19" stroke="var(--stroke-0, #0F1012)" stroke-width="2" stroke-linecap="round" stroke-linejoin="round"/>
</svg>
