<svg preserveAspectRatio="none" width="100%" height="100%" overflow="visible" style="display: block;" viewBox="0 0 22 21" fill="none" xmlns="http://www.w3.org/2000/svg">
<path id="Vector" d="M1.43113 12H7.43113M14.4312 12H20.4312M10.9312 6V20M10.9312 6C12.3119 6 13.4312 4.88071 13.4312 3.5M10.9312 6C9.55046 6 8.43113 4.88071 8.43113 3.5M13.4312 3.5C13.4312 2.11929 12.3119 1 10.9312 1C9.55046 1 8.43113 2.11929 8.43113 3.5M13.4312 3.5H18.9312M8.43113 3.5L2.93113 3.50001M2.93113 20H18.9312M7.81157 13.3364C7.41088 14.8706 6.04924 16 4.43113 16C2.81303 16 1.45139 14.8706 1.0507 13.3364C1.01796 13.211 1.00159 13.1483 1.00001 12.8979C0.999042 12.7443 1.0561 12.3904 1.10525 12.2449C1.18544 12.0076 1.27224 11.8737 1.44585 11.6059L4.43113 7L7.41642 11.6059C7.59003 11.8737 7.67683 12.0076 7.75702 12.2449C7.80617 12.3904 7.86323 12.7443 7.86226 12.8979C7.86068 13.1483 7.84431 13.211 7.81157 13.3364ZM20.8116 13.3364C20.4109 14.8706 19.0493 16 17.4312 16C15.8131 16 14.4514 14.8706 14.0507 13.3364C14.018 13.211 14.0016 13.1483 14 12.8979C13.9991 12.7443 14.0561 12.3904 14.1053 12.2449C14.1855 12.0076 14.2723 11.8737 14.4459 11.6059L17.4312 7L20.4165 11.6059C20.5901 11.8737 20.6769 12.0076 20.7571 12.2449C20.8062 12.3904 20.8633 12.7443 20.8623 12.8979C20.8607 13.1483 20.8444 13.211 20.8116 13.3364Z" stroke="var(--stroke-0, #0F1012)" stroke-width="2" stroke-linecap="round" stroke-linejoin="round"/>
</svg>
