<svg preserveAspectRatio="none" width="100%" height="100%" overflow="visible" style="display: block;" viewBox="0 0 22 22" fill="none" xmlns="http://www.w3.org/2000/svg">
<path id="Vector" d="M9.12255 12.1096L19.6225 1.60955M9.25015 12.4376L11.8782 19.1956C12.1097 19.791 12.2255 20.0886 12.3923 20.1755C12.5369 20.2509 12.7092 20.251 12.8538 20.1758C13.0207 20.0891 13.1369 19.7916 13.3691 19.1965L19.9594 2.30875C20.1691 1.77157 20.2739 1.50298 20.2165 1.33135C20.1667 1.1823 20.0498 1.06533 19.9007 1.01554C19.7291 0.958206 19.4605 1.06302 18.9233 1.27265L2.03563 7.86299C1.44055 8.09522 1.14302 8.21133 1.05631 8.37823C0.981136 8.52292 0.981236 8.6952 1.05658 8.8398C1.14348 9.0066 1.44116 9.1223 2.0365 9.3539L8.79455 11.982C8.91535 12.029 8.97575 12.0525 9.02665 12.0888C9.07175 12.1209 9.11115 12.1604 9.14335 12.2055C9.17965 12.2563 9.20315 12.3168 9.25015 12.4376Z" stroke="var(--stroke-0, #0F1012)" stroke-width="2" stroke-linecap="round" stroke-linejoin="round"/>
</svg>
