<svg preserveAspectRatio="none" width="100%" height="100%" overflow="visible" style="display: block;" viewBox="0 0 22 22" fill="none" xmlns="http://www.w3.org/2000/svg">
<path id="Vector" d="M13.7527 6.63137C13.3566 6.23535 13.1586 6.03735 13.0844 5.80902C13.0192 5.60817 13.0192 5.39183 13.0844 5.19098C13.1586 4.96265 13.3566 4.76465 13.7527 4.36863L16.591 1.53026C15.8378 1.18962 15.0017 1 14.1213 1C10.8076 1 8.12132 3.68629 8.12132 7C8.12132 7.49104 8.18034 7.9683 8.29154 8.42509C8.41074 8.91424 8.47033 9.1588 8.45973 9.3133C8.44863 9.4751 8.42453 9.5612 8.34993 9.7051C8.27873 9.8426 8.14213 9.9791 7.86913 10.2522L1.62132 16.5C0.792895 17.3284 0.792895 18.6716 1.62132 19.5C2.44974 20.3284 3.7929 20.3284 4.62132 19.5L10.8691 13.2522C11.1421 12.9791 11.2787 12.8426 11.4162 12.7714C11.5601 12.6968 11.6462 12.6727 11.808 12.6616C11.9625 12.651 12.207 12.7106 12.6962 12.8297C13.153 12.941 13.6302 13 14.1213 13C17.435 13 20.1213 10.3137 20.1213 7C20.1213 6.11959 19.9317 5.28347 19.591 4.53026L16.7527 7.36863C16.3566 7.76465 16.1586 7.96265 15.9303 8.03684C15.7295 8.1021 15.5131 8.1021 15.3123 8.03684C15.0839 7.96265 14.8859 7.76465 14.4899 7.36863L13.7527 6.63137Z" stroke="var(--stroke-0, #0F1012)" stroke-width="2" stroke-linecap="round" stroke-linejoin="round"/>
</svg>
