<svg preserveAspectRatio="none" width="100%" height="100%" overflow="visible" style="display: block;" viewBox="0 0 298 323" fill="none" xmlns="http://www.w3.org/2000/svg">
<g id="Benefit Input">
<g id="Group 4692">
<g id="Ellipse 233" filter="url(#filter0_dddd_3052_10763)">
<circle cx="134.224" cy="134.224" r="134.224" transform="matrix(-1 0 0 1 283.448 3.00009)" fill="var(--fill-0, white)" fill-opacity="0.8"/>
<circle cx="134.224" cy="134.224" r="133.415" transform="matrix(-1 0 0 1 283.448 3.00009)" stroke="var(--stroke-0, white)" stroke-width="1.61716"/>
</g>
</g>
<path id="Union" d="M136.473 194.251V201.344H162.445V199.781C162.445 196.472 160.224 194.16 157.028 194.16L136.473 194.251ZM94.9699 173.539L113.328 191.897L114.439 190.786C116.796 188.452 116.841 185.234 114.598 182.99L114.574 183.012L99.9787 168.53L94.9699 173.539ZM198.754 170.416C197.372 170.416 196.057 170.982 194.969 172.07L180.486 186.666L185.495 191.674L203.854 173.317L202.743 172.206C201.565 171.027 200.182 170.393 198.732 170.393L198.754 170.416ZM136.603 189.774L162.463 189.683V188.278C162.463 184.969 160.242 182.657 157.046 182.657L136.603 182.612V189.774ZM108.287 160.356L103.234 165.41L121.592 183.632L122.589 182.635C123.745 181.457 124.379 180.006 124.379 178.624C124.379 177.241 123.813 175.926 122.725 174.839L108.311 160.356H108.287ZM190.593 162.303C189.21 162.303 187.896 162.87 186.808 163.958L172.325 178.373L177.379 183.426L195.602 165.068L194.604 164.071C193.425 162.893 192.043 162.258 190.593 162.257V162.303ZM136.178 178.091H162.445V177.049H162.423C162.423 173.468 160.02 170.952 156.575 170.952H136.178V178.091ZM116.291 151.848L111.237 156.902L129.8 175.465L130.547 174.716C133.063 172.178 133.131 168.687 130.706 166.262L116.269 151.825L116.291 151.848ZM182.335 154.166C180.839 154.166 179.411 154.778 178.255 155.957L163.818 170.393L168.872 175.448L187.435 156.885L186.687 156.137C185.417 154.891 183.876 154.188 182.312 154.188L182.335 154.166ZM96.9865 150.494H98.3908C101.7 150.494 104.012 148.272 104.012 145.077H103.989L104.034 124.633H96.8957L96.9865 150.494ZM189.03 124.248C185.45 124.248 182.934 126.65 182.934 130.094V150.493H190.072V124.248H189.03ZM85.342 150.473H86.9064C90.2153 150.473 92.5274 148.252 92.5275 145.056L92.4367 124.5H85.342V150.473ZM108.571 150.467H109.613C113.194 150.467 115.71 148.065 115.71 144.62V124.2H108.571V150.467ZM211.76 124.224C208.451 124.224 206.139 126.446 206.139 129.641L206.23 150.198H213.323V124.224H211.76ZM200.242 124.224C196.933 124.224 194.621 126.446 194.621 129.641L194.576 150.085H201.715L201.625 124.224H200.242ZM168.108 99.9782C166.861 101.225 166.204 102.675 166.158 104.216C166.136 105.758 166.77 107.254 167.948 108.432L182.386 122.869L182.363 122.846L187.417 117.793L168.856 99.2301L168.108 99.9782ZM111.203 117.808L111.95 118.556C113.22 119.803 114.762 120.506 116.325 120.506L116.302 120.528C117.798 120.528 119.203 119.916 120.382 118.738L134.82 104.3L129.765 99.2467L111.203 117.808ZM176.034 92.0583C173.7 94.3927 173.655 97.6114 175.899 99.8551L190.313 114.338L195.367 109.283L177.031 91.0612L176.034 92.0583ZM103.058 109.622L104.032 110.619C105.211 111.797 106.593 112.432 108.043 112.432H108.067C109.449 112.432 110.763 111.865 111.851 110.777L126.334 96.3405L121.279 91.2858L103.058 109.622ZM184.184 83.9049C181.849 86.2394 181.804 89.4571 184.048 91.7008V91.6784L198.644 106.161L203.653 101.152L185.294 82.7936L184.184 83.9049ZM94.7931 101.352L95.9035 102.463C97.082 103.641 98.5327 104.276 99.9152 104.276C101.298 104.276 102.613 103.71 103.7 102.622L118.183 88.0251L113.152 82.9938L94.7931 101.352ZM136.195 97.6325C136.195 101.213 138.597 103.729 142.042 103.729H162.463V96.5895H136.195V97.6325ZM136.202 85.0143V86.4196C136.203 89.7282 138.423 92.0395 141.618 92.0397L162.062 92.0856V84.9235L136.202 85.0143ZM136.189 74.902C136.189 78.211 138.41 80.5231 141.606 80.5231L162.162 80.4323V73.3385H136.189V74.902Z" fill="var(--fill-0, #121212)"/>
</g>
<defs>
<filter id="filter0_dddd_3052_10763" x="0.445509" y="0.574357" width="297.557" height="321.814" filterUnits="userSpaceOnUse" color-interpolation-filters="sRGB">
<feFlood flood-opacity="0" result="BackgroundImageFix"/>
<feColorMatrix in="SourceAlpha" type="matrix" values="0 0 0 0 0 0 0 0 0 0 0 0 0 0 0 0 0 0 127 0" result="hardAlpha"/>
<feOffset dy="2.42573"/>
<feGaussianBlur stdDeviation="2.42573"/>
<feColorMatrix type="matrix" values="0 0 0 0 0 0 0 0 0 0 0 0 0 0 0 0 0 0 0.05 0"/>
<feBlend mode="normal" in2="BackgroundImageFix" result="effect1_dropShadow_3052_10763"/>
<feColorMatrix in="SourceAlpha" type="matrix" values="0 0 0 0 0 0 0 0 0 0 0 0 0 0 0 0 0 0 127 0" result="hardAlpha"/>
<feOffset dy="8.89436"/>
<feGaussianBlur stdDeviation="4.44718"/>
<feColorMatrix type="matrix" values="0 0 0 0 0 0 0 0 0 0 0 0 0 0 0 0 0 0 0.04 0"/>
<feBlend mode="normal" in2="effect1_dropShadow_3052_10763" result="effect2_dropShadow_3052_10763"/>
<feColorMatrix in="SourceAlpha" type="matrix" values="0 0 0 0 0 0 0 0 0 0 0 0 0 0 0 0 0 0 127 0" result="hardAlpha"/>
<feOffset dy="20.2144"/>
<feGaussianBlur stdDeviation="6.06433"/>
<feColorMatrix type="matrix" values="0 0 0 0 0 0 0 0 0 0 0 0 0 0 0 0 0 0 0.03 0"/>
<feBlend mode="normal" in2="effect2_dropShadow_3052_10763" result="effect3_dropShadow_3052_10763"/>
<feColorMatrix in="SourceAlpha" type="matrix" values="0 0 0 0 0 0 0 0 0 0 0 0 0 0 0 0 0 0 127 0" result="hardAlpha"/>
<feOffset dy="36.386"/>
<feGaussianBlur stdDeviation="7.2772"/>
<feColorMatrix type="matrix" values="0 0 0 0 0 0 0 0 0 0 0 0 0 0 0 0 0 0 0.01 0"/>
<feBlend mode="normal" in2="effect3_dropShadow_3052_10763" result="effect4_dropShadow_3052_10763"/>
<feBlend mode="normal" in="SourceGraphic" in2="effect4_dropShadow_3052_10763" result="shape"/>
</filter>
</defs>
</svg>
