<svg preserveAspectRatio="none" width="100%" height="100%" overflow="visible" style="display: block;" viewBox="0 0 20 20" fill="none" xmlns="http://www.w3.org/2000/svg">
<g id="Frame">
<path id="Vector" d="M16.5759 5.88471L9.70304 9.70303M9.70304 9.70303L2.8301 5.88471M9.70304 9.70303V17.3845M16.9802 9.70303V6.42136C16.9802 6.14431 16.9802 6.00578 16.9394 5.88223C16.9033 5.77293 16.8442 5.6726 16.7663 5.58795C16.6781 5.49226 16.557 5.42499 16.3148 5.29044L10.3313 1.96629C10.102 1.83889 9.98733 1.77519 9.86597 1.75021C9.75843 1.72812 9.64765 1.72812 9.54019 1.75021C9.41874 1.77519 9.30409 1.83889 9.07477 1.96629L3.09127 5.29044C2.84909 5.42499 2.72799 5.49226 2.63981 5.58795C2.56181 5.6726 2.50277 5.77293 2.46666 5.88223C2.42584 6.00578 2.42584 6.14431 2.42584 6.42136V12.9846C2.42584 13.2617 2.42584 13.4003 2.46666 13.5238C2.50277 13.6331 2.56181 13.7335 2.63981 13.818C2.72799 13.9138 2.8491 13.9811 3.09127 14.1156L9.07477 17.4397C9.30409 17.5672 9.41874 17.6308 9.54019 17.6558C9.64765 17.678 9.75843 17.678 9.86597 17.6558C9.98733 17.6308 10.102 17.5672 10.3313 17.4397L10.5116 17.3396M6.06444 3.63868L13.3416 7.68157M17.7888 17.3845L16.9802 16.5759M17.7888 14.5545C17.7888 15.8941 16.7028 16.9802 15.3631 16.9802C14.0234 16.9802 12.9373 15.8941 12.9373 14.5545C12.9373 13.2148 14.0234 12.1288 15.3631 12.1288C16.7028 12.1288 17.7888 13.2148 17.7888 14.5545Z" stroke="var(--stroke-0, black)" stroke-width="1.61716" stroke-linecap="round" stroke-linejoin="round"/>
</g>
</svg>
