<svg preserveAspectRatio="none" width="100%" height="100%" overflow="visible" style="display: block;" viewBox="0 0 20 20" fill="none" xmlns="http://www.w3.org/2000/svg">
<g id="Frame">
<path id="Vector" d="M8.08575 14.5544V4.85147C8.08575 4.09797 8.08575 3.72122 7.96266 3.42403C7.79852 3.02779 7.4837 2.71297 7.08746 2.54883C6.79027 2.42574 6.41352 2.42574 5.66002 2.42574C4.90652 2.42574 4.52977 2.42574 4.23258 2.54883C3.83634 2.71297 3.52152 3.02779 3.35739 3.42403C3.23429 3.72122 3.23429 4.09797 3.23429 4.85147V14.5544C3.23429 15.3079 3.23429 15.6846 3.35739 15.9819C3.52152 16.3781 3.83634 16.6929 4.23258 16.8571C4.52977 16.9801 4.90652 16.9801 5.66002 16.9801C6.41352 16.9801 6.79027 16.9801 7.08746 16.8571C7.4837 16.6929 7.79852 16.3781 7.96266 15.9819C8.08575 15.6846 8.08575 15.3079 8.08575 14.5544Z" stroke="var(--stroke-0, black)" stroke-width="1.61716" stroke-linecap="round" stroke-linejoin="round"/>
<path id="Vector_2" d="M16.1715 14.5544V8.08578C16.1715 7.33228 16.1715 6.95553 16.0485 6.65834C15.8843 6.2621 15.5695 5.94728 15.1733 5.78315C14.876 5.66005 14.4993 5.66005 13.7458 5.66005C12.9923 5.66005 12.6156 5.66005 12.3183 5.78315C11.9221 5.94728 11.6073 6.2621 11.4431 6.65834C11.3201 6.95553 11.3201 7.33228 11.3201 8.08578V14.5544C11.3201 15.3079 11.3201 15.6846 11.4431 15.9819C11.6073 16.3781 11.9221 16.6929 12.3183 16.8571C12.6156 16.9801 12.9923 16.9801 13.7458 16.9801C14.4993 16.9801 14.876 16.9801 15.1733 16.8571C15.5695 16.6929 15.8843 16.3781 16.0485 15.9819C16.1715 15.6846 16.1715 15.3079 16.1715 14.5544Z" stroke="var(--stroke-0, black)" stroke-width="1.61716" stroke-linecap="round" stroke-linejoin="round"/>
</g>
</svg>
