<svg preserveAspectRatio="none" width="100%" height="100%" overflow="visible" style="display: block;" viewBox="0 0 18 16" fill="none" xmlns="http://www.w3.org/2000/svg">
<path id="Vector" d="M12.3201 1.37822C13.5182 1.97362 14.3415 3.20996 14.3415 4.6386C14.3415 6.06724 13.5182 7.30359 12.3201 7.89895M13.9372 12.1312C15.1594 12.6842 16.2599 13.5855 17.1716 14.7458M1 14.7458C2.57389 12.7427 4.71071 11.5115 7.06433 11.5115C9.41794 11.5115 11.5548 12.7427 13.1287 14.7458M10.7029 4.6386C10.7029 6.64814 9.07389 8.2772 7.06433 8.2772C5.05479 8.2772 3.42573 6.64814 3.42573 4.6386C3.42573 2.62906 5.05479 1 7.06433 1C9.07389 1 10.7029 2.62906 10.7029 4.6386Z" stroke="var(--stroke-0, black)" stroke-width="1.61716" stroke-linecap="round" stroke-linejoin="round"/>
</svg>
