<svg preserveAspectRatio="none" width="100%" height="100%" overflow="visible" style="display: block;" viewBox="0 0 819 805" fill="none" xmlns="http://www.w3.org/2000/svg">
<g id="C Flare" filter="url(#filter0_f_3379_23897)">
<path d="M119.628 377.227C94.9813 440.686 159.054 435.633 162.619 468.571C30.6818 731.186 528.048 495.581 356.653 674.544C299.5 734.22 778.284 613.904 695.31 593.8C611.665 573.533 456.036 473.351 539.835 396.792C623.633 320.233 542.312 19.7809 528.048 143.522C513.785 267.262 360.452 242.336 320.335 303.761C301.981 331.866 284.623 325.544 228.275 303.761C228.275 252.703 273.947 144.493 256.297 143.522C225.716 141.838 149.511 300.287 119.628 377.227Z" fill="url(#paint0_linear_3379_23897)" fill-opacity="0.9"/>
</g>
<defs>
<filter id="filter0_f_3379_23897" x="5.42071e-06" y="1.0428e-06" width="819" height="805" filterUnits="userSpaceOnUse" color-interpolation-filters="sRGB">
<feFlood flood-opacity="0" result="BackgroundImageFix"/>
<feBlend mode="normal" in="SourceGraphic" in2="BackgroundImageFix" result="shape"/>
<feGaussianBlur stdDeviation="57" result="effect1_foregroundBlur_3379_23897"/>
</filter>
<linearGradient id="paint0_linear_3379_23897" x1="186.993" y1="254.22" x2="79.4178" y2="446.236" gradientUnits="userSpaceOnUse">
<stop stop-color="#FF7B38"/>
<stop offset="0.322115" stop-color="#FFAB55"/>
<stop offset="0.759615" stop-color="#FFEB7C"/>
</linearGradient>
</defs>
</svg>
