<svg preserveAspectRatio="none" width="100%" height="100%" overflow="visible" style="display: block;" viewBox="0 0 787 828" fill="none" xmlns="http://www.w3.org/2000/svg">
<g id="Hero B Flare" filter="url(#filter0_f_3377_20518)">
<path d="M134.803 381.878C135.348 369.247 79.2603 277.523 64 173.314C73.6285 190.156 74.0354 219.239 101.068 225.808C134.859 234.018 161.773 237.588 158.294 204.334C154.521 168.261 98.9793 100.474 81.8594 78.9237C79.9122 76.9078 78.2754 74.7746 76.9991 72.517C77.4636 73.3387 79.1969 75.572 81.8594 78.9237C115.294 113.537 240.261 113.537 203.867 113.537C187.337 113.537 396.617 258.582 414.794 64C414.794 64 753.26 434.474 666.13 538.808C645.362 563.676 635.374 575.886 631.178 579.827C682.865 647.331 760.7 731.21 702.148 688.53C627.765 634.312 525.533 750.112 301.232 538.808C258.984 565.129 326.162 645.781 373.829 704.738C433.59 752.444 438.213 791.164 400.725 739.192C393.544 729.236 384.143 717.495 373.829 704.738C335.987 674.529 276.036 640.716 190.669 624.045C269.58 666.744 300.644 809.609 148.754 560.618C133.62 555.36 61.4213 451.09 134.803 381.878Z" fill="url(#paint0_linear_3377_20518)" fill-opacity="0.9"/>
</g>
<defs>
<filter id="filter0_f_3377_20518" x="0.932224" y="0.932224" width="785.167" height="826.099" filterUnits="userSpaceOnUse" color-interpolation-filters="sRGB">
<feFlood flood-opacity="0" result="BackgroundImageFix"/>
<feBlend mode="normal" in="SourceGraphic" in2="BackgroundImageFix" result="shape"/>
<feGaussianBlur stdDeviation="31.5339" result="effect1_foregroundBlur_3377_20518"/>
</filter>
<linearGradient id="paint0_linear_3377_20518" x1="314.77" y1="137.172" x2="-2.31196" y2="888.002" gradientUnits="userSpaceOnUse">
<stop stop-color="#FFE866"/>
<stop offset="0.307692" stop-color="#FF7B38"/>
<stop offset="0.485577" stop-color="#F4B244"/>
<stop offset="0.596154" stop-color="#EDD54B"/>
<stop offset="0.840982" stop-color="#FFB653"/>
<stop offset="1" stop-color="#FB5D0B"/>
</linearGradient>
</defs>
</svg>
