<svg preserveAspectRatio="none" width="100%" height="100%" overflow="visible" style="display: block;" viewBox="0 0 8 8" fill="none" xmlns="http://www.w3.org/2000/svg">
<path id="Vector" d="M7.29446 7.0048C7.32532 7.06651 7.28448 7.13911 7.2019 7.13911H5.15282C5.05935 7.13911 4.97677 7.08738 4.93594 7.0048L4.63375 5.94578C4.62921 5.92944 4.61378 5.91764 4.59654 5.91764H2.70899C2.69175 5.91764 2.67632 5.92944 2.67179 5.94578L2.3696 7.0048C2.32785 7.08738 2.24527 7.13911 2.15271 7.13911H0.103634C0.0210538 7.13911 -0.0206913 7.06651 0.0101628 7.0048L2.34691 0.138844C2.34691 0.138844 2.34872 0.133399 2.35054 0.130676C2.38412 0.0698754 2.49574 0 2.59647 0H4.70725C4.80889 0 4.9196 0.0698754 4.95318 0.130676C4.95499 0.133399 4.9559 0.136121 4.95681 0.138844L7.29356 7.0048H7.29446ZM3.61556 2.60264L3.10738 4.38946C3.10012 4.41396 3.11917 4.43846 3.14458 4.43846H4.16004C4.18545 4.43846 4.2036 4.41396 4.19725 4.38946L3.68907 2.60264C3.67818 2.56543 3.62554 2.56543 3.61465 2.60264H3.61556Z" fill="var(--fill-0, #0F1012)"/>
</svg>
