<svg preserveAspectRatio="none" width="100%" height="100%" overflow="visible" style="display: block;" viewBox="0 0 9 8" fill="none" xmlns="http://www.w3.org/2000/svg">
<path id="Vector" d="M7.98941 0C8.09105 0 8.17272 0.0816728 8.17272 0.18331V6.99482C8.17272 7.06741 8.1101 7.14001 8.02752 7.14001H6.11366C6.03108 7.14001 5.95848 7.06741 5.95848 6.99482V4.18255C5.95848 4.13899 5.89768 4.12901 5.88407 4.16985L4.91398 6.98393C4.88312 7.06651 4.74882 7.1391 4.65535 7.1391H3.51737C3.4239 7.1391 3.2896 7.06651 3.25874 6.98393L2.28865 4.16985C2.27413 4.12901 2.21424 4.13899 2.21424 4.18255V6.99482C2.21424 7.06741 2.14164 7.14001 2.05906 7.14001H0.145197C0.0626163 7.14001 0 7.06741 0 6.99482V0.193292C0 0.0871177 0.087118 0 0.193293 0H2.3068C2.4402 0 2.59266 0.0907476 2.65618 0.203275C2.658 0.205997 2.6589 0.208719 2.65981 0.210534L4.05006 4.05913C4.06186 4.09271 4.10995 4.09271 4.12266 4.05913L5.51291 0.210534C5.51291 0.210534 5.51472 0.205089 5.51654 0.203275C5.58006 0.0907476 5.73343 0 5.86683 0H7.99122H7.98941Z" fill="var(--fill-0, #0F1012)"/>
</svg>
