<svg preserveAspectRatio="none" width="100%" height="100%" overflow="visible" style="display: block;" viewBox="0 0 162 50" fill="none" xmlns="http://www.w3.org/2000/svg">
<g id="AmplifyChange_Logo_0 1" clip-path="url(#clip0_81_415)">
<path id="Vector" d="M73.8418 27.5581C73.9192 27.713 73.8167 27.8953 73.6095 27.8953H68.4683C68.2338 27.8953 68.0266 27.7654 67.9242 27.5581L67.166 24.8985C67.1546 24.8575 67.1159 24.8279 67.0726 24.8279H62.3367C62.2934 24.8279 62.2547 24.8575 62.2433 24.8985L61.4851 27.5581C61.3804 27.7654 61.1732 27.8953 60.941 27.8953H55.7998C55.5926 27.8953 55.4878 27.713 55.5653 27.5581L61.4282 10.3156C61.4282 10.3156 61.4328 10.3019 61.4373 10.2951C61.5216 10.1424 61.8016 9.9669 62.0544 9.9669H67.3504C67.6054 9.9669 67.8832 10.1424 67.9674 10.2951C67.972 10.3019 67.9742 10.3087 67.9765 10.3156L73.8395 27.5581H73.8418ZM64.6113 16.5029L63.3362 20.9901C63.318 21.0517 63.3658 21.1132 63.4296 21.1132H65.9774C66.0412 21.1132 66.0867 21.0517 66.0708 20.9901L64.7957 16.5029C64.7684 16.4095 64.6363 16.4095 64.609 16.5029H64.6113Z" fill="var(--fill-0, white)"/>
<path id="Vector_2" d="M94.8459 9.9669C95.101 9.9669 95.3059 10.172 95.3059 10.4272V27.533C95.3059 27.7153 95.1488 27.8976 94.9416 27.8976H90.1396C89.9324 27.8976 89.7503 27.7153 89.7503 27.533V20.4705C89.7503 20.3612 89.5977 20.3361 89.5636 20.4386L87.1296 27.5056C87.0522 27.713 86.7152 27.8953 86.4807 27.8953H83.6255C83.391 27.8953 83.054 27.713 82.9766 27.5056L80.5426 20.4386C80.5062 20.3361 80.3559 20.3612 80.3559 20.4705V27.533C80.3559 27.7153 80.1737 27.8976 79.9665 27.8976H75.1646C74.9574 27.8976 74.8003 27.7153 74.8003 27.533V10.4523C74.8003 10.1857 75.0189 9.9669 75.2853 9.9669H80.5881C80.9228 9.9669 81.3053 10.1948 81.4647 10.4774C81.4693 10.4842 81.4716 10.4911 81.4738 10.4956L84.962 20.1606C84.9916 20.2449 85.1123 20.2449 85.1442 20.1606L88.6323 10.4956C88.6323 10.4956 88.6369 10.4819 88.6414 10.4774C88.8008 10.1948 89.1856 9.9669 89.5203 9.9669H94.8505H94.8459Z" fill="var(--fill-0, white)"/>
<path id="Vector_3" d="M103.635 9.9669C108.177 9.9669 110.905 12.435 110.905 16.1519C110.905 19.8689 108.179 22.337 103.635 22.337H102.667C102.615 22.337 102.571 22.3803 102.571 22.4327V27.533C102.571 27.7153 102.389 27.8976 102.157 27.8976H97.6055C97.3528 27.8976 97.1456 27.6902 97.1456 27.4373V10.3566C97.1456 10.1492 97.3278 9.9669 97.5099 9.9669H103.637H103.635ZM103.869 17.6834C104.607 17.6834 105.156 17.2732 105.338 16.6305C105.625 15.6141 104.794 14.6182 103.737 14.6182H102.617C102.565 14.6182 102.521 14.6615 102.521 14.7139V17.5877C102.521 17.6401 102.565 17.6834 102.617 17.6834H103.872H103.869Z" fill="var(--fill-0, white)"/>
<path id="Vector_4" d="M122.464 23.2189C122.647 23.2189 122.801 23.3739 122.801 23.5836V27.533C122.801 27.7267 122.683 27.8976 122.476 27.8976H112.649C112.442 27.8976 112.26 27.7153 112.26 27.533V10.4523C112.26 10.1857 112.478 9.9669 112.744 9.9669H117.146C117.412 9.9669 117.631 10.1857 117.631 10.4523V23.121C117.631 23.1734 117.674 23.2167 117.726 23.2167H122.46L122.464 23.2189Z" fill="var(--fill-0, white)"/>
<path id="Vector_5" d="M129.24 9.9669C129.473 9.9669 129.63 10.1492 129.63 10.3566V27.533C129.63 27.7153 129.473 27.8976 129.24 27.8976H124.741C124.489 27.8976 124.281 27.6902 124.281 27.4373V10.3566C124.281 10.1492 124.464 9.9669 124.646 9.9669H129.24Z" fill="var(--fill-0, white)"/>
<path id="Vector_6" d="M143.439 9.9669C143.674 9.9669 143.828 10.1492 143.828 10.3315V14.1579C143.828 14.4268 143.61 14.6433 143.343 14.6433H136.943C136.891 14.6433 136.848 14.6866 136.848 14.739V16.9108C136.848 16.9632 136.891 17.0066 136.943 17.0066H143.489C143.721 17.0066 143.831 17.1911 143.826 17.3438V21.022C143.828 21.2272 143.721 21.3206 143.494 21.3206H136.943C136.891 21.3206 136.848 21.3639 136.848 21.4163V27.5307C136.848 27.713 136.665 27.8953 136.458 27.8953H131.863C131.656 27.8953 131.499 27.688 131.499 27.5056V10.3315C131.499 10.1492 131.654 9.9669 131.863 9.9669H143.441H143.439Z" fill="var(--fill-0, white)"/>
<path id="Vector_7" d="M161.345 9.9669H155.953C155.721 9.9669 155.461 10.1743 155.356 10.3817L153.319 14.7869C153.298 14.8302 153.239 14.935 153.202 15.0193C153.168 14.9327 153.104 14.8188 153.091 14.7869L151.053 10.3817C150.948 10.1743 150.691 9.9669 150.456 9.9669H145.065C144.805 9.9669 144.65 10.1492 144.78 10.3817L150.206 20.1469C150.222 20.1766 150.222 20.2107 150.206 20.2404L146.18 27.4532C146.051 27.688 146.206 27.8953 146.465 27.8953C147.745 27.8953 150.479 27.8953 151.579 27.8953C151.768 27.8953 151.943 27.7882 152.034 27.6219L159.628 13.9938L161.627 10.3817C161.757 10.1492 161.6 9.9669 161.342 9.9669H161.345Z" fill="var(--fill-0, white)"/>
<path id="Vector_8" d="M49.1876 17.5533C40.0528 18.7907 35.6652 21.4753 33.5705 23.6381C32.4412 24.7889 31.9607 25.7825 31.6693 26.3819C31.182 27.4712 30.7722 28.9001 30.6356 29.9781C30.5263 30.8395 30.5104 31.7078 30.6014 32.5806C30.7244 33.7383 31.0045 34.8459 31.453 35.9147C31.8446 36.8514 32.3706 37.7105 32.9944 38.5059C33.5454 39.2078 34.1761 39.8299 34.8797 40.3815C34.9025 40.3997 34.9275 40.4156 34.9503 40.4339C35.6675 40.9922 36.4325 41.4731 37.2613 41.8468C37.9945 42.1773 38.7527 42.4302 39.5405 42.6034C40.2531 42.7607 40.9726 42.845 41.7012 42.8587C41.9175 42.8632 43.3246 42.7857 44.0692 42.649C44.4927 42.5715 44.9048 42.4598 45.3124 42.3322L44.4449 39.0984C44.1716 39.2329 42.3501 39.536 41.1047 39.4197C40.7108 39.3833 38.4498 39.3468 36.1502 37.0086C35.6425 36.4936 35.2372 35.9033 34.8888 35.2789C34.7226 34.9735 34.5769 34.659 34.4471 34.3309C34.3606 34.1007 34.2854 33.8682 34.2217 33.6289C34.0418 32.9498 33.9371 32.2661 33.9189 31.5688C33.912 31.2816 33.9234 30.999 33.9507 30.7187C33.9598 30.6321 33.9689 30.5433 33.9803 30.4567C34.0782 29.7616 34.2467 29.0916 34.504 28.4421C34.8296 27.6148 35.2986 26.8764 35.877 26.2019C36.1866 25.8395 36.7331 25.3518 37.0974 25.0396C37.5368 24.6727 38.4954 24.0711 39.1511 23.7383C39.1784 23.7247 39.6498 23.4945 39.6816 23.4808C40.0209 23.3236 40.7814 23.0045 40.7859 23.0022C41.05 22.8974 42.6575 22.3368 42.6666 22.3345C44.1443 21.8696 45.9021 21.4457 47.9854 21.0993L49.1853 17.5533H49.1876Z" fill="var(--fill-0, white)"/>
<path id="Vector_9" d="M40.4194 30.0147C40.5378 29.8574 40.7973 29.6614 40.7996 29.6501C41.444 29.192 42.2181 28.7658 43.1516 28.4832C43.8893 28.2599 45.1507 28.0024 45.6721 27.9135L46.8789 24.3652C45.6038 24.5885 44.1648 24.8916 44.1648 24.8916C43.031 25.115 41.3256 25.6323 40.0619 26.2225C40.0186 26.243 39.3401 26.6191 39.2012 26.733C39.2012 26.733 39.1284 26.774 39.0123 26.8561C39.0009 26.8629 38.9895 26.8697 38.9804 26.8766C38.9257 26.9176 38.8665 26.9609 38.7982 27.0133C38.4271 27.2822 38.1197 27.6195 37.7987 27.9522C37.3228 28.4468 36.724 29.7412 36.6625 30.2266C36.6625 30.2335 36.6602 30.238 36.658 30.2449C36.6557 30.2585 36.6511 30.2745 36.6489 30.2882C36.494 30.9331 36.5236 31.2977 36.5236 31.2977C36.5236 31.2977 36.4257 32.9203 37.25 34.1692C37.2909 34.233 37.3137 34.274 37.3456 34.3219C37.3547 34.3356 37.3615 34.3492 37.3706 34.3629C37.3797 34.3766 37.3866 34.388 37.3957 34.4016C37.8237 35.0853 38.3998 35.6619 39.1056 36.1359C39.2149 36.2088 39.3265 36.2749 39.4403 36.3365C39.6316 36.4413 40.0573 36.6145 40.0551 36.6236C40.194 36.6783 40.3351 36.7307 40.4786 36.7763C41.6193 37.1295 42.6462 37.1295 43.8233 36.7626L42.9558 33.5174C42.9285 33.5265 42.9057 33.5334 42.8921 33.5356C42.2705 33.7294 41.847 33.7202 41.2732 33.4992C41.2345 33.4832 41.1958 33.4673 41.1571 33.4491C41.1411 33.4422 41.1275 33.4331 41.1093 33.4263C41.0933 33.4194 41.0774 33.4103 41.0615 33.4035C40.9043 33.3237 40.7586 33.2257 40.6357 33.1095C40.2623 32.7585 40.0414 32.3643 39.9549 31.929C39.8957 31.6874 39.8775 31.4436 39.9094 31.2111C39.9754 30.7371 40.1507 30.3178 40.4216 30.0078L40.4194 30.0147Z" fill="var(--fill-0, white)"/>
<path id="Vector_10" d="M11.3391 23.0022C11.3391 23.0022 12.1041 23.3213 12.4434 23.4808C12.4729 23.4945 12.9443 23.7247 12.9739 23.7383C13.6296 24.0711 14.5882 24.6704 15.0276 25.0396C15.3919 25.3541 15.9384 25.8395 16.248 26.2019C16.8263 26.8764 17.2954 27.6171 17.621 28.4421C17.8783 29.0916 18.0468 29.7616 18.1447 30.4567C18.1583 30.5433 18.1651 30.6321 18.1743 30.7187C18.1993 30.999 18.213 31.2839 18.2061 31.5688C18.1902 32.2661 18.0832 32.9498 17.9033 33.6289C17.8396 33.8682 17.7644 34.103 17.6779 34.3309C17.5481 34.659 17.4024 34.9735 17.2362 35.2789C16.8878 35.9033 16.4825 36.4913 15.9748 37.0086C13.6751 39.3468 11.4119 39.3833 11.0203 39.4197C9.77712 39.536 7.95334 39.2306 7.68012 39.0984L6.81263 42.3322C7.22019 42.4598 7.6323 42.5692 8.0558 42.649C8.80034 42.788 10.2075 42.8632 10.4238 42.8587C11.1501 42.8427 11.8719 42.7607 12.5845 42.6034C13.3723 42.4302 14.1305 42.1773 14.8637 41.8468C15.6925 41.4731 16.4575 40.9922 17.1747 40.4339C17.1975 40.4156 17.2225 40.3997 17.2453 40.3815C17.9488 39.8322 18.5795 39.2078 19.1305 38.5059C19.7544 37.7105 20.2804 36.8514 20.672 35.9147C21.1205 34.8459 21.4006 33.7383 21.5235 32.5806C21.6169 31.7078 21.5987 30.8395 21.4894 29.9781C21.3528 28.9001 20.9407 27.4712 20.4557 26.3819C20.1642 25.7825 19.6838 24.7866 18.5545 23.6381C16.4598 21.4753 12.0722 18.793 2.93738 17.5533L4.13729 21.0993C6.22064 21.4457 7.97839 21.8696 9.45608 22.3345C9.46519 22.3368 11.0727 22.8974 11.3368 23.0022H11.3391Z" fill="var(--fill-0, white)"/>
<path id="Vector_11" d="M44.7205 45.1034C42.7214 45.4954 40.7268 45.4658 38.7414 44.9826C37.6712 44.7228 36.6398 44.3582 35.6653 43.8568C34.6908 43.3532 33.7732 42.7584 32.9353 42.0405C32.2204 41.4297 31.5669 40.7597 30.9886 40.0191C30.3556 39.2101 29.8228 38.3395 29.3811 37.4097C29.1853 36.9972 28.9895 36.5847 28.8392 36.154C28.6093 35.4954 28.4408 34.8208 28.2928 34.1394C28.1288 33.3805 28.0446 32.6171 28.0195 31.8445C27.9786 30.5774 28.1106 29.3286 28.4134 28.0957C28.632 27.2046 29.2103 25.7233 29.3743 25.3769C29.8001 24.4881 30.3055 23.6563 30.8952 22.8837C31.3415 22.3368 31.8811 21.7579 32.5391 21.1654C33.2063 20.5637 34.0282 19.9234 35.0278 19.2807C35.2099 19.1622 35.3989 19.0528 35.5879 18.948C36.0501 18.6905 36.6512 18.3441 36.9859 18.1481C40.0415 16.5574 44.3357 15.0692 50.3261 14.2123L51.7697 9.96894C46.4737 10.4452 42.3593 11.669 39.3766 12.9202C31.3734 16.4411 28.443 21.5118 28.443 21.5118C28.443 18.9343 31.6216 13.041 37.48 8.11844C40.235 5.80304 42.2683 4.80714 42.2683 4.80714V0.329016C37.0724 3.18225 33.3816 6.97441 30.2668 10.7939C28.6457 12.7834 27.505 14.9849 26.5077 17.3482C26.3187 17.7971 26.0842 18.474 26.0455 18.6153C26.0068 18.474 25.7723 17.7971 25.5833 17.3482C24.5837 14.9826 23.4453 12.7834 21.8242 10.7939C18.7117 6.97441 15.0208 3.18453 9.825 0.329016V4.80486C9.825 4.80486 11.856 5.80076 14.611 8.11616C20.4694 13.0387 23.6479 18.932 23.6479 21.5095C23.6479 21.5095 20.7176 16.4389 12.7144 12.9179C9.73164 11.669 5.61732 10.4452 0.3213 9.96666L1.76484 14.2101C7.75531 15.0669 12.0472 16.5551 15.1051 18.1458C15.4421 18.3418 16.0409 18.6882 16.5031 18.9457C16.6921 19.0505 16.881 19.1622 17.0632 19.2784C18.0627 19.9211 18.8824 20.5615 19.5518 21.1631C20.2098 21.7556 20.7495 22.3345 21.1957 22.8814C21.7854 23.654 22.2909 24.4858 22.7167 25.3746C22.8829 25.721 23.459 27.2023 23.6775 28.0934C23.9804 29.3263 24.1124 30.5751 24.0714 31.8422C24.0464 32.6125 23.9621 33.3782 23.7982 34.1371C23.6502 34.8185 23.4817 35.4931 23.2518 36.1517C23.1015 36.5824 22.9057 36.9949 22.7099 37.4074C22.2681 38.3372 21.7354 39.2078 21.1024 40.0168C20.5241 40.7552 19.8706 41.4252 19.1556 42.0382C18.3178 42.7538 17.4025 43.3509 16.4257 43.8545C15.4489 44.3582 14.4175 44.7205 13.3496 44.9803C11.3642 45.4635 9.36962 45.4931 7.37052 45.1011C6.91514 45.0122 6.45066 44.9074 6.00895 44.7661L4.85684 49.0665C5.39191 49.2488 13.1424 51.7374 20.8109 45.0328C20.795 45.035 21.913 44.0824 22.4457 43.5492C22.7053 43.2894 22.958 43.0204 23.1948 42.7424C23.8642 41.9562 24.4608 41.1198 24.9958 40.2333C25.3738 39.6089 25.7313 38.9525 26.0432 38.2985C26.3551 38.9525 26.7126 39.6089 27.0906 40.2333C27.6279 41.1175 28.2222 41.9562 28.8916 42.7424C29.1307 43.0227 29.3811 43.2894 29.6407 43.5492C30.1735 44.0824 31.2914 45.0373 31.2755 45.0328C38.944 51.7374 46.6968 49.2488 47.2296 49.0665L46.0775 44.7661C45.6335 44.9074 45.1713 45.0122 44.7159 45.1011L44.7205 45.1034Z" fill="var(--fill-0, white)"/>
<path id="Vector_12" d="M13.115 26.8561C12.9966 26.774 12.926 26.7307 12.926 26.7307C12.7871 26.6213 12.1109 26.243 12.0654 26.2225C10.8017 25.6323 9.09632 25.115 7.96243 24.8916C7.96243 24.8916 6.52344 24.5885 5.24839 24.3652L6.45513 27.9135C6.97882 28.0047 8.24021 28.2599 8.97564 28.4832C9.90916 28.7658 10.6833 29.192 11.3277 29.6501C11.3277 29.6614 11.5895 29.8574 11.7079 30.0147C11.9788 30.3246 12.1542 30.7439 12.2202 31.218C12.2521 31.4504 12.2339 31.6943 12.1747 31.9358C12.0881 32.3711 11.865 32.7654 11.4939 33.1163C11.3709 33.2325 11.2252 33.3305 11.0681 33.4103C11.0522 33.4171 11.0362 33.4263 11.0203 33.4331C11.0021 33.4399 10.9884 33.4468 10.9725 33.4559C10.9338 33.4741 10.8973 33.4901 10.8563 33.506C10.2803 33.7271 9.85907 33.7339 9.23748 33.5425C9.22382 33.5379 9.20105 33.5311 9.17373 33.5243L8.30624 36.7695C9.48339 37.1364 10.508 37.1341 11.651 36.7831C11.7967 36.7376 11.9356 36.6874 12.0745 36.6305C12.0745 36.6236 12.498 36.4481 12.6892 36.3456C12.8031 36.2818 12.9169 36.218 13.0239 36.145C13.7298 35.671 14.3058 35.0944 14.7339 34.4108C14.743 34.3971 14.7498 34.3857 14.7589 34.372C14.768 34.3583 14.7749 34.3447 14.784 34.331C14.8181 34.2831 14.8386 34.2398 14.8796 34.1783C15.7038 32.9295 15.6059 31.3068 15.6059 31.3068C15.6059 31.3068 15.6355 30.9422 15.4807 30.2973C15.4784 30.2836 15.4739 30.2676 15.4716 30.254C15.4716 30.2471 15.467 30.2426 15.467 30.2357C15.4056 29.7503 14.8045 28.4559 14.3309 27.9614C14.0098 27.6286 13.7024 27.2913 13.3313 27.0224C13.263 26.97 13.2015 26.9267 13.1492 26.888C13.1492 26.888 13.1264 26.872 13.1173 26.8652L13.115 26.8561Z" fill="var(--fill-0, white)"/>
<path id="Vector_13" d="M69.7593 47.6969C69.8367 47.8792 69.7342 48.0615 69.5247 48.1641C68.0197 49.0984 65.9933 49.6704 64.0739 49.6704C58.7255 49.6704 55.144 45.9284 55.144 40.3154C55.144 34.7023 58.7255 30.9603 64.0739 30.9603C65.9956 30.9603 68.0197 31.5323 69.5247 32.4667C69.7319 32.5715 69.8367 32.7516 69.7593 32.9339L68.0448 36.546C67.9423 36.7807 67.7602 36.8582 67.5507 36.7534C66.5898 36.2087 65.6563 36.0264 64.5384 36.0264C62.2023 36.0264 60.6449 37.7402 60.6449 40.3131C60.6449 42.886 62.2023 44.5998 64.5384 44.5998C65.654 44.5998 66.5898 44.4175 67.5507 43.8728C67.7579 43.768 67.94 43.8477 68.0448 44.0802L69.7593 47.6923V47.6969Z" fill="var(--fill-0, white)"/>
<path id="Vector_14" d="M85.7065 31.3525C85.941 31.3525 86.0959 31.5348 86.0959 31.7422V48.9185C86.0959 49.1009 85.941 49.2832 85.7065 49.2832H80.8522C80.645 49.2832 80.4879 49.1009 80.4879 48.9185V43.1938C80.4879 43.1414 80.4446 43.0981 80.3923 43.0981H76.9519C76.8996 43.0981 76.8563 43.1414 76.8563 43.1938V48.9185C76.8563 49.1009 76.7015 49.2832 76.4669 49.2832H71.7083C71.4555 49.2832 71.2483 49.0758 71.2483 48.8228V31.7444C71.2483 31.537 71.4305 31.3547 71.6126 31.3547H76.4669C76.7015 31.3547 76.8563 31.537 76.8563 31.7444V38.4309C76.8563 38.4833 76.8996 38.5266 76.9519 38.5266H80.3923C80.4446 38.5266 80.4879 38.4833 80.4879 38.4309V31.8424C80.4879 31.5758 80.7065 31.357 80.9729 31.357H85.7042L85.7065 31.3525Z" fill="var(--fill-0, white)"/>
<path id="Vector_15" d="M105.326 48.9436C105.404 49.0986 105.301 49.2809 105.092 49.2809H99.9529C99.7184 49.2809 99.5112 49.151 99.4088 48.9436L98.6506 46.2841C98.6392 46.2431 98.6005 46.2134 98.5572 46.2134H93.8213C93.778 46.2134 93.7393 46.2431 93.7279 46.2841L92.9697 48.9436C92.865 49.151 92.6578 49.2809 92.4256 49.2809H87.2866C87.0794 49.2809 86.9747 49.0986 87.0521 48.9436L92.9151 31.7011C92.9151 31.7011 92.9196 31.6875 92.9242 31.6806C93.0084 31.5279 93.2885 31.3525 93.5412 31.3525H98.8373C99.0923 31.3525 99.37 31.5279 99.4543 31.6806C99.4588 31.6875 99.4611 31.6943 99.4634 31.7011L105.326 48.9436ZM96.0959 37.8885L94.8231 42.3757C94.8049 42.4372 94.8527 42.4988 94.9165 42.4988H97.4643C97.5281 42.4988 97.5736 42.4372 97.5577 42.3757L96.2826 37.8885C96.2553 37.795 96.1232 37.795 96.0959 37.8885Z" fill="var(--fill-0, white)"/>
<path id="Vector_16" d="M121.183 31.3525C121.417 31.3525 121.572 31.5348 121.572 31.7422V48.9185C121.572 49.1009 121.417 49.2832 121.183 49.2832H116.69C116.508 49.2832 116.276 49.1533 116.146 48.9459L111.811 41.1884C111.763 41.1018 111.631 41.136 111.631 41.2362V48.9208C111.631 49.1031 111.474 49.2855 111.242 49.2855H106.647C106.44 49.2855 106.283 49.1031 106.283 48.9208V31.8424C106.283 31.5758 106.501 31.357 106.768 31.357H111.137C111.372 31.357 111.631 31.4869 111.734 31.6943L116.044 39.4495C116.092 39.5361 116.224 39.502 116.224 39.4017V31.7444C116.224 31.537 116.406 31.3547 116.586 31.3547H121.18L121.183 31.3525Z" fill="var(--fill-0, white)"/>
<path id="Vector_17" d="M138.599 38.2917C138.806 38.2917 138.988 38.474 138.988 38.6563V46.9198C138.988 47.1545 138.858 47.387 138.676 47.5442C136.93 49.0301 134.14 49.83 131.328 49.6135C126.46 49.2398 122.831 45.026 122.89 40.1399C122.959 34.6135 126.679 30.9398 132.235 30.9398C134.156 30.9398 136.18 31.5119 137.688 32.4462C137.895 32.5511 137.972 32.7584 137.92 32.9134L136.622 36.7329C136.545 36.9152 136.363 36.9927 136.128 36.9403C135.065 36.3683 133.687 36.031 132.389 36.031C130.001 36.031 128.391 37.7448 128.391 40.2926C128.391 42.8405 130.001 44.6067 132.389 44.6067C133.318 44.6067 133.958 44.4357 134.257 44.1418C134.275 44.1235 134.284 44.0985 134.284 44.0711V42.7015C134.284 42.6491 134.241 42.6058 134.188 42.6058H131.898C131.663 42.6058 131.508 42.5009 131.483 42.3209L131.146 38.7338C131.121 38.474 131.276 38.2917 131.561 38.2917H138.596H138.599Z" fill="var(--fill-0, white)"/>
<path id="Vector_18" d="M153.034 44.6045C153.241 44.6045 153.423 44.7594 153.423 44.9417V48.9185C153.423 49.1008 153.241 49.2831 153.034 49.2831H140.962C140.78 49.2831 140.598 49.0757 140.548 48.8934V31.815C140.548 31.5598 140.752 31.3547 141.007 31.3547H152.724C152.959 31.3547 153.139 31.537 153.139 31.7193V35.5457C153.139 35.8146 152.92 36.0311 152.654 36.0311H146.044C145.992 36.0311 145.948 36.0744 145.948 36.1268V37.9864C145.948 38.0388 145.992 38.0821 146.044 38.0821H151.451C151.686 38.0821 151.798 38.2553 151.788 38.4194L151.798 42.0566C151.798 42.2275 151.691 42.3939 151.458 42.3939H146.046C145.994 42.3939 145.951 42.4372 145.951 42.4896V44.5042C145.951 44.5566 145.994 44.5999 146.046 44.5999H153.036L153.034 44.6045Z" fill="var(--fill-0, white)"/>
</g>
<defs>
<clipPath id="clip0_81_415">
<rect width="162" height="50" fill="white"/>
</clipPath>
</defs>
</svg>
