<svg preserveAspectRatio="none" width="100%" height="100%" overflow="visible" style="display: block;" viewBox="0 0 130 40" fill="none" xmlns="http://www.w3.org/2000/svg">
<g id="AmplifyChange_Logo_0 1" clip-path="url(#clip0_89_542)">
<path id="Vector" d="M59.0734 22.028C59.1354 22.1518 59.0534 22.2976 58.8877 22.2976H54.7747C54.5871 22.2976 54.4213 22.1937 54.3394 22.028L53.7328 19.9023C53.7237 19.8695 53.6927 19.8458 53.6581 19.8458H49.8694C49.8348 19.8458 49.8038 19.8695 49.7947 19.9023L49.1881 22.028C49.1044 22.1937 48.9386 22.2976 48.7528 22.2976H44.6399C44.4741 22.2976 44.3903 22.1518 44.4522 22.028L49.1426 8.24647C49.1426 8.24647 49.1462 8.23554 49.1499 8.23008C49.2173 8.10804 49.4413 7.96778 49.6435 7.96778H53.8803C54.0843 7.96778 54.3066 8.10804 54.374 8.23008C54.3776 8.23554 54.3794 8.24101 54.3813 8.24647L59.0716 22.028H59.0734ZM51.6891 13.1919L50.669 16.7784C50.6545 16.8276 50.6927 16.8768 50.7437 16.8768H52.782C52.833 16.8768 52.8694 16.8276 52.8567 16.7784L51.8366 13.1919C51.8148 13.1172 51.7091 13.1172 51.6873 13.1919H51.6891Z" fill="var(--fill-0, #211F1F)"/>
<path id="Vector_2" d="M75.8762 7.96778C76.0802 7.96778 76.2441 8.13172 76.2441 8.33573V22.0079C76.2441 22.1537 76.1184 22.2994 75.9527 22.2994H72.1111C71.9454 22.2994 71.7996 22.1537 71.7996 22.0079V16.3631C71.7996 16.2757 71.6776 16.2556 71.6503 16.3376L69.7031 21.9861C69.6412 22.1518 69.3716 22.2976 69.184 22.2976H66.8998C66.7122 22.2976 66.4426 22.1518 66.3807 21.9861L64.4335 16.3376C64.4043 16.2556 64.2841 16.2757 64.2841 16.3631V22.0079C64.2841 22.1537 64.1384 22.2994 63.9726 22.2994H60.1311C59.9653 22.2994 59.8396 22.1537 59.8396 22.0079V8.35576C59.8396 8.14265 60.0145 7.96778 60.2276 7.96778H64.4699C64.7377 7.96778 65.0437 8.14993 65.1712 8.3758C65.1748 8.38126 65.1767 8.38673 65.1785 8.39037L67.969 16.1154C67.9927 16.1828 68.0892 16.1828 68.1147 16.1154L70.9053 8.39037C70.9053 8.39037 70.9089 8.37944 70.9126 8.3758C71.0401 8.14993 71.3479 7.96778 71.6157 7.96778H75.8798H75.8762Z" fill="var(--fill-0, #211F1F)"/>
<path id="Vector_3" d="M82.9075 7.96778C86.5414 7.96778 88.7236 9.94047 88.7236 12.9113C88.7236 15.8822 86.5432 17.8549 82.9075 17.8549H82.1334C82.0915 17.8549 82.0569 17.8895 82.0569 17.9314V22.0079C82.0569 22.1537 81.9111 22.2994 81.7253 22.2994H78.0842C77.882 22.2994 77.7162 22.1336 77.7162 21.9314V8.27926C77.7162 8.1135 77.8619 7.96778 78.0077 7.96778H82.9093H82.9075ZM83.0951 14.1354C83.6853 14.1354 84.1243 13.8075 84.27 13.2939C84.4995 12.4815 83.8346 11.6855 82.9895 11.6855H82.0933C82.0514 11.6855 82.0168 11.7201 82.0168 11.762V14.0589C82.0168 14.1008 82.0514 14.1354 82.0933 14.1354H83.0969H83.0951Z" fill="var(--fill-0, #211F1F)"/>
<path id="Vector_4" d="M97.9708 18.5598C98.1165 18.5598 98.2404 18.6837 98.2404 18.8513V22.0079C98.2404 22.1628 98.1457 22.2994 97.9799 22.2994H90.1183C89.9526 22.2994 89.8068 22.1537 89.8068 22.0079V8.35576C89.8068 8.14265 89.9817 7.96778 90.1948 7.96778H93.7158C93.9289 7.96778 94.1038 8.14265 94.1038 8.35576V18.4815C94.1038 18.5234 94.1384 18.558 94.1803 18.558H97.9672L97.9708 18.5598Z" fill="var(--fill-0, #211F1F)"/>
<path id="Vector_5" d="M103.393 7.96778C103.579 7.96778 103.704 8.1135 103.704 8.27926V22.0079C103.704 22.1537 103.579 22.2994 103.393 22.2994H99.7935C99.5913 22.2994 99.4256 22.1336 99.4256 21.9314V8.27926C99.4256 8.1135 99.5713 7.96778 99.717 7.96778H103.393Z" fill="var(--fill-0, #211F1F)"/>
<path id="Vector_6" d="M114.751 7.96778C114.939 7.96778 115.062 8.1135 115.062 8.25922V11.3175C115.062 11.5325 114.888 11.7055 114.674 11.7055H109.554C109.512 11.7055 109.478 11.7401 109.478 11.782V13.5179C109.478 13.5598 109.512 13.5944 109.554 13.5944H114.791C114.977 13.5944 115.064 13.742 115.061 13.864V16.8039C115.062 16.9678 114.977 17.0425 114.795 17.0425H109.554C109.512 17.0425 109.478 17.0771 109.478 17.119V22.0061C109.478 22.1518 109.332 22.2976 109.166 22.2976H105.49C105.325 22.2976 105.199 22.1318 105.199 21.9861V8.25922C105.199 8.1135 105.323 7.96778 105.49 7.96778H114.753H114.751Z" fill="var(--fill-0, #211F1F)"/>
<path id="Vector_7" d="M129.075 7.96778H124.762C124.576 7.96778 124.369 8.13354 124.285 8.2993L122.655 11.8203C122.638 11.8549 122.591 11.9387 122.562 12.0061C122.534 11.9368 122.483 11.8458 122.472 11.8203L120.842 8.2993C120.758 8.13354 120.553 7.96778 120.365 7.96778H116.052C115.844 7.96778 115.72 8.1135 115.824 8.2993L120.165 16.1044C120.177 16.1281 120.177 16.1554 120.165 16.1791L116.944 21.9442C116.84 22.1318 116.964 22.2976 117.172 22.2976C118.196 22.2976 120.383 22.2976 121.263 22.2976C121.414 22.2976 121.554 22.2119 121.627 22.079L127.702 11.1864L129.301 8.2993C129.405 8.1135 129.279 7.96778 129.074 7.96778H129.075Z" fill="var(--fill-0, #211F1F)"/>
<path id="Vector_8" d="M39.3497 14.031C32.0418 15.0201 28.5318 17.1658 26.856 18.8945C25.9526 19.8143 25.5682 20.6085 25.3351 21.0875C24.9453 21.9582 24.6174 23.1003 24.5081 23.9619C24.4207 24.6504 24.4079 25.3444 24.4808 26.042C24.5791 26.9674 24.8032 27.8526 25.162 28.7069C25.4753 29.4555 25.8961 30.1422 26.3952 30.778C26.836 31.339 27.3405 31.8362 27.9034 32.277C27.9216 32.2916 27.9416 32.3044 27.9599 32.3189C28.5336 32.7652 29.1457 33.1495 29.8087 33.4483C30.3952 33.7124 31.0018 33.9146 31.632 34.053C32.2021 34.1787 32.7777 34.2461 33.3606 34.257C33.5337 34.2607 34.6594 34.1987 35.255 34.0894C35.5938 34.0275 35.9235 33.9383 36.2495 33.8363L35.5555 31.2515C35.3369 31.359 33.8797 31.6013 32.8834 31.5084C32.5683 31.4792 30.7595 31.4501 28.9198 29.5812C28.5136 29.1696 28.1894 28.6978 27.9107 28.1987C27.7777 27.9546 27.6611 27.7033 27.5573 27.441C27.4881 27.257 27.428 27.0712 27.377 26.8799C27.2331 26.3371 27.1493 25.7907 27.1347 25.2333C27.1293 25.0038 27.1384 24.7779 27.1602 24.5539C27.1675 24.4847 27.1748 24.4136 27.1839 24.3444C27.2622 23.7888 27.397 23.2533 27.6028 22.7342C27.8633 22.073 28.2385 21.4828 28.7012 20.9436C28.9489 20.654 29.3861 20.2642 29.6775 20.0147C30.0291 19.7214 30.7959 19.2405 31.3205 18.9746C31.3424 18.9637 31.7194 18.7797 31.7449 18.7688C32.0163 18.6431 32.6247 18.3881 32.6284 18.3863C32.8397 18.3025 34.1256 17.8544 34.1329 17.8526C35.3151 17.481 36.7213 17.1422 38.388 16.8653L39.3479 14.031H39.3497Z" fill="var(--fill-0, #211F1F)"/>
<path id="Vector_9" d="M32.3357 23.9885C32.4304 23.8628 32.6381 23.7062 32.6399 23.6971C33.1554 23.3309 33.7747 22.9903 34.5215 22.7644C35.1117 22.5859 36.1208 22.3801 36.5379 22.3091L37.5033 19.473C36.4833 19.6515 35.3321 19.8938 35.3321 19.8938C34.425 20.0723 33.0606 20.4857 32.0497 20.9575C32.0151 20.9739 31.4723 21.2745 31.3612 21.3655C31.3612 21.3655 31.3029 21.3983 31.21 21.4639C31.2009 21.4694 31.1918 21.4748 31.1845 21.4803C31.1408 21.5131 31.0934 21.5477 31.0388 21.5896C30.7419 21.8045 30.496 22.0741 30.2391 22.34C29.8584 22.7353 29.3794 23.7699 29.3302 24.1579C29.3302 24.1634 29.3284 24.167 29.3266 24.1725C29.3247 24.1834 29.3211 24.1961 29.3193 24.2071C29.1954 24.7226 29.2191 25.014 29.2191 25.014C29.2191 25.014 29.1408 26.3109 29.8002 27.3091C29.8329 27.3601 29.8512 27.3929 29.8767 27.4311C29.8839 27.4421 29.8894 27.453 29.8967 27.4639C29.904 27.4749 29.9094 27.484 29.9167 27.4949C30.2592 28.0413 30.72 28.5022 31.2847 28.8811C31.3721 28.9393 31.4614 28.9922 31.5524 29.0413C31.7054 29.1251 32.0461 29.2636 32.0442 29.2709C32.1554 29.3146 32.2683 29.3565 32.383 29.3929C33.2956 29.6752 34.1171 29.6752 35.0588 29.382L34.3648 26.7881C34.343 26.7954 34.3248 26.8009 34.3138 26.8027C33.8166 26.9575 33.4778 26.9503 33.0188 26.7736C32.9878 26.7608 32.9568 26.7481 32.9259 26.7335C32.9131 26.728 32.9022 26.7208 32.8876 26.7153C32.8749 26.7098 32.8621 26.7025 32.8494 26.6971C32.7237 26.6333 32.6071 26.555 32.5087 26.4621C32.21 26.1816 32.0333 25.8665 31.9641 25.5186C31.9167 25.3255 31.9022 25.1306 31.9277 24.9448C31.9805 24.5659 32.1208 24.2308 32.3375 23.983L32.3357 23.9885Z" fill="var(--fill-0, #211F1F)"/>
<path id="Vector_10" d="M9.07115 18.3863C9.07115 18.3863 9.68318 18.6413 9.95458 18.7688C9.97826 18.7797 10.3553 18.9637 10.379 18.9746C10.9036 19.2405 11.6704 19.7196 12.022 20.0147C12.3134 20.266 12.7506 20.654 12.9983 20.9436C13.461 21.4828 13.8362 22.0748 14.0967 22.7342C14.3025 23.2533 14.4373 23.7888 14.5156 24.3444C14.5266 24.4136 14.532 24.4847 14.5393 24.5539C14.5593 24.7779 14.5703 25.0056 14.5648 25.2333C14.5521 25.7907 14.4664 26.3371 14.3225 26.8799C14.2715 27.0712 14.2114 27.2588 14.1422 27.441C14.0384 27.7032 13.9218 27.9546 13.7888 28.1987C13.5102 28.6978 13.1859 29.1677 12.7797 29.5812C10.94 31.4501 9.12944 31.4792 8.81614 31.5084C7.8216 31.6013 6.36258 31.3572 6.144 31.2515L5.45 33.8363C5.77605 33.9383 6.10575 34.0257 6.44455 34.0894C7.04018 34.2006 8.16587 34.2607 8.33891 34.257C8.91997 34.2443 9.49739 34.1787 10.0675 34.053C10.6978 33.9146 11.3043 33.7124 11.8908 33.4483C12.5539 33.1495 13.1659 32.7652 13.7397 32.3189C13.7579 32.3044 13.7779 32.2916 13.7961 32.277C14.359 31.8381 14.8635 31.339 15.3043 30.7779C15.8034 30.1422 16.2242 29.4555 16.5375 28.7069C16.8963 27.8526 17.1204 26.9674 17.2187 26.042C17.2934 25.3444 17.2789 24.6504 17.1914 23.9619C17.0821 23.1003 16.7524 21.9582 16.3645 21.0875C16.1313 20.6085 15.747 19.8125 14.8435 18.8945C13.1677 17.1658 9.65768 15.0219 2.3498 14.031L3.30974 16.8653C4.97641 17.1422 6.38261 17.481 7.56477 17.8526C7.57206 17.8544 8.85804 18.3025 9.06933 18.3863H9.07115Z" fill="var(--fill-0, #211F1F)"/>
<path id="Vector_11" d="M35.7762 36.0496C34.1769 36.3629 32.5812 36.3392 30.9929 35.9531C30.1368 35.7454 29.3116 35.454 28.532 35.0532C27.7524 34.6507 27.0184 34.1753 26.3481 33.6015C25.7761 33.1133 25.2533 32.5778 24.7907 31.9858C24.2843 31.3392 23.8581 30.6434 23.5047 29.9002C23.348 29.5705 23.1914 29.2408 23.0712 28.8965C22.8872 28.3701 22.7524 27.831 22.634 27.2863C22.5029 26.6798 22.4355 26.0696 22.4154 25.4521C22.3826 24.4393 22.4883 23.4411 22.7305 22.4557C22.9054 21.7435 23.3681 20.5595 23.4992 20.2827C23.8398 19.5723 24.2442 18.9074 24.716 18.2899C25.073 17.8528 25.5047 17.3901 26.0311 16.9165C26.5648 16.4356 27.2224 15.9238 28.022 15.4101C28.1677 15.3154 28.3189 15.228 28.4701 15.1442C28.8399 14.9384 29.3208 14.6615 29.5885 14.5048C32.033 13.2334 35.4683 12.044 40.2607 11.3591L41.4155 7.96746C37.1787 8.34816 33.8873 9.32631 31.5011 10.3263C25.0985 13.1405 22.7542 17.1934 22.7542 17.1934C22.7542 15.1333 25.297 10.4229 29.9838 6.4884C32.1878 4.63775 33.8144 3.84176 33.8144 3.84176V0.2625C29.6577 2.54302 26.7051 5.57401 24.2133 8.62685C22.9163 10.217 22.0038 11.9766 21.206 13.8655C21.0548 14.2243 20.8672 14.7653 20.8362 14.8782C20.8052 14.7653 20.6176 14.2243 20.4664 13.8655C19.6668 11.9748 18.756 10.217 17.4591 8.62685C14.9691 5.57401 12.0165 2.54484 7.85979 0.2625V3.83993C7.85979 3.83993 9.48457 4.63593 11.6886 6.48658C16.3753 10.421 18.9181 15.1314 18.9181 17.1916C18.9181 17.1916 16.5739 13.1387 10.1713 10.3245C7.78511 9.32631 4.49365 8.34816 0.256836 7.96564L1.41167 11.3573C6.20405 12.0422 9.63758 13.2316 12.0839 14.503C12.3534 14.6597 12.8325 14.9365 13.2023 15.1424C13.3534 15.2262 13.5046 15.3154 13.6504 15.4083C14.45 15.922 15.1057 16.4338 15.6413 16.9147C16.1677 17.3883 16.5994 17.8509 16.9564 18.2881C17.4282 18.9056 17.8325 19.5704 18.1731 20.2808C18.3061 20.5577 18.767 21.7417 18.9418 22.4539C19.1841 23.4393 19.2897 24.4375 19.2569 25.4503C19.2369 26.0659 19.1695 26.678 19.0384 27.2845C18.92 27.8291 18.7852 28.3683 18.6012 28.8947C18.481 29.239 18.3243 29.5687 18.1677 29.8984C17.8143 30.6415 17.3881 31.3374 16.8817 31.984C16.419 32.5742 15.8963 33.1097 15.3243 33.5997C14.654 34.1716 13.9218 34.6489 13.1403 35.0514C12.3589 35.454 11.5338 35.7436 10.6795 35.9512C9.09113 36.3374 7.49549 36.3611 5.89621 36.0478C5.53191 35.9767 5.16032 35.8929 4.80695 35.78L3.88527 39.2172C4.31332 39.3629 10.5137 41.352 16.6485 35.9931C16.6358 35.9949 17.5302 35.2336 17.9564 34.8073C18.164 34.5997 18.3662 34.3847 18.5557 34.1625C19.0912 33.5341 19.5684 32.8656 19.9965 32.157C20.2988 31.6579 20.5848 31.1334 20.8344 30.6106C21.0839 31.1334 21.3699 31.6579 21.6723 32.157C22.1021 32.8638 22.5775 33.5341 23.1131 34.1625C23.3043 34.3866 23.5047 34.5997 23.7123 34.8073C24.1386 35.2336 25.0329 35.9968 25.0202 35.9931C31.155 41.352 37.3572 39.3629 37.7835 39.2172L36.8618 35.78C36.5066 35.8929 36.1368 35.9767 35.7725 36.0478L35.7762 36.0496Z" fill="var(--fill-0, #211F1F)"/>
<path id="Vector_12" d="M10.4915 21.4639C10.3968 21.3983 10.3404 21.3637 10.3404 21.3637C10.2292 21.2763 9.68826 20.9739 9.65183 20.9575C8.64089 20.4857 7.27658 20.0723 6.36948 19.8938C6.36948 19.8938 5.21828 19.6515 4.19824 19.473L5.16364 22.3091C5.58259 22.3819 6.5917 22.5859 7.18004 22.7644C7.92686 22.9903 8.54617 23.3309 9.06166 23.6971C9.06166 23.7062 9.27113 23.8628 9.36585 23.9885C9.58261 24.2362 9.72286 24.5714 9.77569 24.9502C9.80119 25.136 9.78662 25.3309 9.73926 25.524C9.67004 25.8719 9.49153 26.187 9.19463 26.4676C9.09627 26.5605 8.97969 26.6388 8.85401 26.7025C8.84126 26.708 8.82851 26.7153 8.81576 26.7207C8.80118 26.7262 8.79025 26.7317 8.7775 26.739C8.74654 26.7535 8.71739 26.7663 8.68461 26.779C8.22377 26.9557 7.88679 26.9612 7.38952 26.8082C7.37859 26.8045 7.36037 26.7991 7.33852 26.7936L6.64452 29.3874C7.58624 29.6807 8.40592 29.6789 9.32031 29.3984C9.43689 29.3619 9.548 29.3219 9.65911 29.2763C9.65911 29.2709 9.99791 29.1306 10.1509 29.0486C10.242 28.9976 10.3331 28.9466 10.4187 28.8883C10.9833 28.5095 11.4442 28.0486 11.7866 27.5022C11.7939 27.4912 11.7994 27.4821 11.8067 27.4712C11.814 27.4603 11.8194 27.4494 11.8267 27.4384C11.854 27.4002 11.8704 27.3656 11.9032 27.3164C12.5626 26.3182 12.4843 25.0213 12.4843 25.0213C12.4843 25.0213 12.5079 24.7298 12.3841 24.2144C12.3823 24.2034 12.3786 24.1907 12.3768 24.1798C12.3768 24.1743 12.3732 24.1706 12.3732 24.1652C12.324 23.7772 11.8431 22.7426 11.4642 22.3473C11.2074 22.0814 10.9615 21.8118 10.6646 21.5969C10.6099 21.555 10.5608 21.5204 10.5189 21.4894C10.5189 21.4894 10.5006 21.4766 10.4934 21.4712L10.4915 21.4639Z" fill="var(--fill-0, #211F1F)"/>
<path id="Vector_13" d="M55.8069 38.1235C55.8688 38.2692 55.7868 38.4149 55.6193 38.4969C54.4153 39.2437 52.7941 39.7009 51.2586 39.7009C46.9799 39.7009 44.1146 36.71 44.1146 32.2236C44.1146 27.7372 46.9799 24.7463 51.2586 24.7463C52.7959 24.7463 54.4153 25.2035 55.6193 25.9503C55.785 26.0341 55.8688 26.178 55.8069 26.3238L54.4353 29.2108C54.3533 29.3985 54.2076 29.4604 54.04 29.3766C53.2713 28.9413 52.5245 28.7955 51.6302 28.7955C49.7613 28.7955 48.5154 30.1653 48.5154 32.2218C48.5154 34.2783 49.7613 35.648 51.6302 35.648C52.5227 35.648 53.2713 35.5023 54.04 35.067C54.2058 34.9832 54.3515 35.0469 54.4353 35.2327L55.8069 38.1198V38.1235Z" fill="var(--fill-0, #211F1F)"/>
<path id="Vector_14" d="M68.5656 25.0585C68.7532 25.0585 68.877 25.2043 68.877 25.37V39.0987C68.877 39.2444 68.7532 39.3901 68.5656 39.3901H64.6821C64.5164 39.3901 64.3907 39.2444 64.3907 39.0987V34.5231C64.3907 34.4812 64.3561 34.4466 64.3142 34.4466H61.5619C61.52 34.4466 61.4854 34.4812 61.4854 34.5231V39.0987C61.4854 39.2444 61.3615 39.3901 61.1739 39.3901H57.367C57.1648 39.3901 56.999 39.2244 56.999 39.0222V25.3718C56.999 25.2061 57.1447 25.0604 57.2905 25.0604H61.1739C61.3615 25.0604 61.4854 25.2061 61.4854 25.3718V30.7161C61.4854 30.758 61.52 30.7926 61.5619 30.7926H64.3142C64.3561 30.7926 64.3907 30.758 64.3907 30.7161V25.4502C64.3907 25.2371 64.5655 25.0622 64.7787 25.0622H68.5638L68.5656 25.0585Z" fill="var(--fill-0, #211F1F)"/>
<path id="Vector_15" d="M84.2607 39.1187C84.3226 39.2426 84.2407 39.3883 84.0731 39.3883H79.9619C79.7743 39.3883 79.6086 39.2845 79.5266 39.1187L78.92 36.993C78.9109 36.9603 78.88 36.9366 78.8454 36.9366H75.0566C75.022 36.9366 74.9911 36.9603 74.9819 36.993L74.3754 39.1187C74.2916 39.2845 74.1258 39.3883 73.94 39.3883H69.8289C69.6632 39.3883 69.5794 39.2426 69.6413 39.1187L74.3317 25.3372C74.3317 25.3372 74.3353 25.3263 74.339 25.3208C74.4064 25.1988 74.6304 25.0585 74.8326 25.0585H79.0694C79.2734 25.0585 79.4956 25.1988 79.563 25.3208C79.5667 25.3263 79.5685 25.3318 79.5703 25.3372L84.2607 39.1187ZM76.8763 30.2826L75.8581 33.8692C75.8435 33.9183 75.8818 33.9675 75.9328 33.9675H77.971C78.022 33.9675 78.0585 33.9183 78.0457 33.8692L77.0257 30.2826C77.0038 30.2079 76.8982 30.2079 76.8763 30.2826Z" fill="var(--fill-0, #211F1F)"/>
<path id="Vector_16" d="M96.9455 25.0585C97.1331 25.0585 97.257 25.2043 97.257 25.37V39.0987C97.257 39.2444 97.1331 39.3901 96.9455 39.3901H93.3517C93.206 39.3901 93.0202 39.2863 92.9163 39.1206L89.4482 32.9202C89.4099 32.8509 89.3043 32.8783 89.3043 32.9584V39.1005C89.3043 39.2462 89.1786 39.392 88.9928 39.392H85.317C85.1513 39.392 85.0256 39.2462 85.0256 39.1005V25.4502C85.0256 25.2371 85.2005 25.0622 85.4136 25.0622H88.909C89.0966 25.0622 89.3043 25.166 89.3863 25.3318L92.8344 31.5304C92.8726 31.5996 92.9783 31.5722 92.9783 31.4921V25.3718C92.9783 25.2061 93.124 25.0604 93.2679 25.0604H96.9437L96.9455 25.0585Z" fill="var(--fill-0, #211F1F)"/>
<path id="Vector_17" d="M110.879 30.6069C111.044 30.6069 111.19 30.7526 111.19 30.8983V37.5031C111.19 37.6907 111.086 37.8765 110.941 38.0022C109.543 39.1898 107.312 39.8292 105.063 39.6561C101.168 39.3574 98.2647 35.9894 98.3121 32.0841C98.3667 27.667 101.343 24.7307 105.788 24.7307C107.325 24.7307 108.944 25.1879 110.15 25.9347C110.316 26.0185 110.378 26.1843 110.336 26.3081L109.298 29.361C109.236 29.5067 109.09 29.5686 108.902 29.5267C108.052 29.0695 106.95 28.8 105.911 28.8C104.001 28.8 102.713 30.1697 102.713 32.2062C102.713 34.2426 104.001 35.6543 105.911 35.6543C106.655 35.6543 107.166 35.5177 107.405 35.2827C107.42 35.2681 107.427 35.2481 107.427 35.2262V34.1315C107.427 34.0896 107.392 34.055 107.35 34.055H105.518C105.33 34.055 105.206 33.9712 105.186 33.8273L104.917 30.9603C104.897 30.7526 105.021 30.6069 105.248 30.6069H110.877H110.879Z" fill="var(--fill-0, #211F1F)"/>
<path id="Vector_18" d="M122.427 35.6519C122.593 35.6519 122.739 35.7758 122.739 35.9215V39.1C122.739 39.2457 122.593 39.3914 122.427 39.3914H112.77C112.624 39.3914 112.478 39.2257 112.438 39.08V25.4296C112.438 25.2256 112.602 25.0617 112.806 25.0617H122.179C122.367 25.0617 122.511 25.2074 122.511 25.3531V28.4114C122.511 28.6264 122.336 28.7994 122.123 28.7994H116.835C116.793 28.7994 116.759 28.834 116.759 28.8759V30.3622C116.759 30.4041 116.793 30.4388 116.835 30.4388H121.161C121.349 30.4388 121.438 30.5772 121.431 30.7083L121.438 33.6155C121.438 33.7521 121.353 33.885 121.167 33.885H116.837C116.795 33.885 116.761 33.9196 116.761 33.9615V35.5718C116.761 35.6136 116.795 35.6483 116.837 35.6483H122.429L122.427 35.6519Z" fill="var(--fill-0, #211F1F)"/>
</g>
<defs>
<clipPath id="clip0_89_542">
<rect width="129.6" height="39.9638" fill="white"/>
</clipPath>
</defs>
</svg>
