<svg preserveAspectRatio="none" width="100%" height="100%" overflow="visible" style="display: block;" viewBox="0 0 6 8" fill="none" xmlns="http://www.w3.org/2000/svg">
<path id="Vector" d="M2.5863 0C4.39672 0 5.48387 0.982796 5.48387 2.46289C5.48387 3.94298 4.39762 4.92577 2.5863 4.92577H2.20063C2.17975 4.92577 2.16251 4.94302 2.16251 4.96389V6.99482C2.16251 7.06741 2.08992 7.14001 1.99735 7.14001H0.183309C0.0825792 7.14001 0 7.05743 0 6.9567V0.155178C0 0.0725979 0.0725985 0 0.145197 0H2.58721H2.5863ZM2.67977 3.07271C2.9738 3.07271 3.1925 2.90936 3.2651 2.65346C3.37944 2.24872 3.04821 1.85216 2.62714 1.85216H2.18066C2.15979 1.85216 2.14255 1.8694 2.14255 1.89027V3.0346C2.14255 3.05547 2.15979 3.07271 2.18066 3.07271H2.68068H2.67977Z" fill="var(--fill-0, #0F1012)"/>
</svg>
