<svg preserveAspectRatio="none" width="100%" height="100%" overflow="visible" style="display: block;" viewBox="0 0 32 32" fill="none" xmlns="http://www.w3.org/2000/svg">
<g id="Vector" opacity="0">
<path d="M21.3989 53.1686V53.8262H32.3224V50.8433L23.6771 50.8052C22.3331 50.8052 21.3989 51.7772 21.3989 53.1686Z" fill="var(--fill-0, white)"/>
<path d="M21.3989 43.6101V44.0485H32.4463V41.0464H23.8677C22.4189 41.0464 21.4085 42.1043 21.4085 43.6101H21.3989Z" fill="var(--fill-0, white)"/>
<path d="M32.2652 45.9448L23.6675 45.9638C22.3235 45.9638 21.3894 46.9359 21.3894 48.3273V48.9182L32.2652 48.9563V45.9448Z" fill="var(--fill-0, white)"/>
<path d="M9.56042 37.3869C8.95038 37.3869 8.36894 37.6538 7.87329 38.1494L7.45388 38.5687L15.1175 46.2881L17.2431 44.1629L11.1522 38.1017C10.6947 37.6443 10.1419 37.406 9.56042 37.406V37.3869Z" fill="var(--fill-0, white)"/>
<path d="M13.0395 33.9943C12.3818 33.9943 11.7337 34.2897 11.1999 34.8139L10.8853 35.1284L18.6919 42.9336L20.8175 40.8084L14.7457 34.7377C14.2596 34.2421 13.6591 33.9848 13.03 33.9848L13.0395 33.9943Z" fill="var(--fill-0, white)"/>
<path d="M6.1385 40.8086C5.52847 40.8086 4.94702 41.0754 4.45137 41.571L3.98431 42.038L11.7051 49.7574L13.8116 47.6512L7.72079 41.5138C7.26326 41.0564 6.71041 40.8181 6.12897 40.8181L6.1385 40.8086Z" fill="var(--fill-0, white)"/>
<path d="M5.50939 21.3953H4.91842L4.88029 32.2692H7.88282L7.86375 23.673C7.86375 22.3293 6.89151 21.3953 5.49986 21.3953H5.50939Z" fill="var(--fill-0, white)"/>
<path d="M9.77965 21.3953V32.4408H12.7822V23.8636C12.7822 22.415 11.7241 21.4048 10.2181 21.4048H9.77965V21.3953Z" fill="var(--fill-0, white)"/>
<path d="M0.657698 21.3953H0V32.3169H2.98347L3.02159 23.673C3.02159 22.3293 2.04935 21.3953 0.657698 21.3953Z" fill="var(--fill-0, white)"/>
<path d="M9.6748 17.24L15.737 11.1503C16.6807 10.2068 16.6616 8.85347 15.6799 7.87186L15.2605 7.45253L7.5492 15.1148L9.6748 17.24Z" fill="var(--fill-0, white)"/>
<path d="M13.0109 20.8234L19.0827 14.7527C19.5784 14.2571 19.8453 13.6281 19.8357 12.9801C19.8167 12.332 19.5402 11.7221 19.016 11.1979L18.7014 10.8834L10.8949 18.6886L13.0205 20.8139L13.0109 20.8234Z" fill="var(--fill-0, white)"/>
<path d="M12.3151 7.71938C13.2588 6.77589 13.2397 5.4226 12.2579 4.44099L11.7909 3.97401L4.07009 11.6935L6.17662 13.7997L12.3151 7.70985V7.71938Z" fill="var(--fill-0, white)"/>
<path d="M29.9776 12.7801C31.4264 12.7801 32.4368 11.7223 32.4368 10.2165V9.7781H21.3894V12.7801H29.9776Z" fill="var(--fill-0, white)"/>
<path d="M21.561 7.88161L30.1587 7.86255C31.5027 7.86255 32.4368 6.89047 32.4368 5.49906V4.90819L21.561 4.87007V7.88161Z" fill="var(--fill-0, white)"/>
<path d="M21.5133 2.98295L30.1587 3.02107C31.5027 3.02107 32.4368 2.04899 32.4368 0.657585V0H21.5133V2.98295Z" fill="var(--fill-0, white)"/>
<path d="M40.0146 6.1757L46.1054 12.3131C46.563 12.7706 47.1158 13.0088 47.6973 13.0088C48.2787 13.0088 48.8887 12.742 49.3844 12.2464L49.8515 11.7794L42.1307 4.06L40.0146 6.1757Z" fill="var(--fill-0, white)"/>
<path d="M44.2753 16.4399C44.8854 16.4399 45.4668 16.173 45.9625 15.6775L46.3723 15.2582L38.7087 7.5482L36.5831 9.67346L42.674 15.7442C43.1315 16.2016 43.6844 16.4399 44.2658 16.4399H44.2753Z" fill="var(--fill-0, white)"/>
<path d="M40.7962 19.8324C41.4539 19.8324 42.1021 19.5369 42.6359 19.0128L42.9504 18.6983L35.1438 10.893L33.0182 13.0183L39.09 19.089C39.5857 19.5846 40.1766 19.8419 40.8057 19.8419L40.7962 19.8324Z" fill="var(--fill-0, white)"/>
<path d="M50.8428 21.5096L50.8046 30.1534C50.8046 31.4972 51.7769 32.4312 53.1685 32.4312H53.8262V21.5096H50.8428Z" fill="var(--fill-0, white)"/>
<path d="M41.0536 29.9723C41.0536 31.4209 42.1116 32.4311 43.6176 32.4311H44.0561V21.3856H41.0536V29.9723Z" fill="var(--fill-0, white)"/>
<path d="M45.972 30.1627C45.972 31.5064 46.9442 32.4404 48.3359 32.4404H48.9269L48.965 21.5665H45.9625L45.9815 30.1627H45.972Z" fill="var(--fill-0, white)"/>
<path d="M41.5206 46.1071C40.577 47.0506 40.596 48.4038 41.5874 49.3855L42.0544 49.8524L49.7752 42.133L47.6687 40.0268L41.5302 46.1166L41.5206 46.1071Z" fill="var(--fill-0, white)"/>
<path d="M40.8153 33.0031L34.7435 39.0738C33.7236 40.0935 33.7522 41.5612 34.8102 42.6286L35.1248 42.943L42.9313 35.1378L40.8057 33.0126L40.8153 33.0031Z" fill="var(--fill-0, white)"/>
<path d="M44.161 36.5866L38.0987 42.6764C37.6412 43.1338 37.4029 43.6866 37.4029 44.2679C37.4029 44.8493 37.6698 45.4592 38.1559 45.9548L38.5753 46.3741L46.2961 38.7118L44.1705 36.5866H44.161Z" fill="var(--fill-0, white)"/>
</g>
</svg>
