<svg preserveAspectRatio="none" width="100%" height="100%" overflow="visible" style="display: block;" viewBox="0 0 368 398" fill="none" xmlns="http://www.w3.org/2000/svg">
<g id="Benefit Input">
<g id="Group 4692">
<g id="Ellipse 233" filter="url(#filter0_dddd_81_313)">
<circle cx="166" cy="166" r="166" transform="matrix(-1 0 0 1 350 3)" fill="var(--fill-0, white)" fill-opacity="0.8"/>
<circle cx="166" cy="166" r="165" transform="matrix(-1 0 0 1 350 3)" stroke="var(--stroke-0, white)" stroke-width="2"/>
</g>
</g>
<path id="Union" d="M168.229 239.527V248.301H200.353V246.367C200.353 242.275 197.605 239.415 193.653 239.415L168.229 239.527ZM116.902 213.912L139.606 236.616L140.98 235.242C143.895 232.355 143.951 228.375 141.176 225.601L141.148 225.628L123.097 207.717L116.902 213.912ZM245.256 210.05C243.546 210.05 241.921 210.75 240.575 212.096L222.664 230.147L228.858 236.342L251.562 213.638L250.189 212.264C248.732 210.806 247.022 210.022 245.229 210.021L245.256 210.05ZM168.392 233.99L200.373 233.878V232.141C200.373 228.048 197.626 225.189 193.674 225.189L168.392 225.133V233.99ZM133.373 197.608L127.122 203.858L149.826 226.395L151.06 225.161C152.489 223.704 153.274 221.91 153.274 220.2C153.274 218.49 152.573 216.865 151.228 215.52L133.401 197.608H133.373ZM235.162 200.017C233.452 200.017 231.827 200.717 230.481 202.062L212.57 219.89L218.821 226.141L241.357 203.437L240.124 202.203C238.666 200.746 236.956 199.96 235.162 199.96V200.017ZM167.865 219.542H200.353V218.253H200.324C200.324 213.824 197.353 210.713 193.093 210.713H167.865V219.542ZM137.021 193.337L159.978 216.293L160.902 215.368C164.014 212.229 164.098 207.912 161.099 204.913L143.271 187.086L137.021 193.337ZM224.95 189.953C223.1 189.953 221.334 190.709 219.904 192.167L202.05 210.022L208.3 216.272L231.257 193.316L230.331 192.392C228.761 190.85 226.856 189.981 224.922 189.98L224.95 189.953ZM119.396 185.411H121.134C125.226 185.411 128.085 182.664 128.085 178.712H128.057L128.112 153.429H119.283L119.396 185.411ZM233.229 152.951C228.801 152.951 225.69 155.922 225.689 160.183V185.41H234.52V152.951H233.229ZM104.995 185.386H106.93C111.022 185.386 113.881 182.639 113.881 178.687L113.769 153.263H104.995V185.386ZM133.723 185.379H135.013C139.441 185.379 142.553 182.408 142.553 178.147V152.893H133.723V185.379ZM261.341 152.923C257.249 152.923 254.39 155.67 254.39 159.622L254.502 185.045H263.275V152.923H261.341ZM247.097 152.923C243.004 152.923 240.145 155.67 240.145 159.622L240.089 184.905H248.918L248.807 152.923H247.097ZM207.354 122.937C205.812 124.478 204.999 126.273 204.943 128.179C204.915 130.085 205.701 131.934 207.158 133.392L224.985 151.218L231.235 144.968L208.279 122.012L207.354 122.937ZM136.978 144.988L137.903 145.913C139.473 147.454 141.379 148.323 143.312 148.323L143.284 148.352C145.134 148.352 146.873 147.594 148.33 146.137L166.185 128.282L159.935 122.031L136.978 144.988ZM217.158 113.142C214.271 116.029 214.215 120.009 216.99 122.784L234.816 140.695L241.067 134.444L218.392 111.908L217.158 113.142ZM126.904 134.863L128.109 136.097C129.567 137.554 131.277 138.339 133.071 138.339H133.099C134.808 138.339 136.435 137.637 137.78 136.292L155.691 118.438L149.44 112.187L126.904 134.863ZM227.236 103.058C224.349 105.945 224.293 109.925 227.068 112.7V112.672L245.119 130.583L251.314 124.389L228.61 101.685L227.236 103.058ZM116.684 124.636L118.057 126.009C119.514 127.466 121.309 128.252 123.019 128.252C124.728 128.252 126.354 127.55 127.699 126.205L145.61 108.154L139.388 101.932L116.684 124.636ZM167.887 120.035C167.887 124.464 170.858 127.575 175.118 127.575H200.373V118.746H167.887V120.035ZM167.896 104.43V106.168C167.896 110.26 170.643 113.119 174.595 113.119L199.877 113.175V104.317L167.896 104.43ZM167.879 91.9248C167.879 96.0169 170.626 98.876 174.578 98.876L200.001 98.7637V89.9902H167.879V91.9248Z" fill="var(--fill-0, #121212)"/>
</g>
<defs>
<filter id="filter0_dddd_81_313" x="0" y="0" width="368" height="398" filterUnits="userSpaceOnUse" color-interpolation-filters="sRGB">
<feFlood flood-opacity="0" result="BackgroundImageFix"/>
<feColorMatrix in="SourceAlpha" type="matrix" values="0 0 0 0 0 0 0 0 0 0 0 0 0 0 0 0 0 0 127 0" result="hardAlpha"/>
<feOffset dy="3"/>
<feGaussianBlur stdDeviation="3"/>
<feColorMatrix type="matrix" values="0 0 0 0 0 0 0 0 0 0 0 0 0 0 0 0 0 0 0.05 0"/>
<feBlend mode="normal" in2="BackgroundImageFix" result="effect1_dropShadow_81_313"/>
<feColorMatrix in="SourceAlpha" type="matrix" values="0 0 0 0 0 0 0 0 0 0 0 0 0 0 0 0 0 0 127 0" result="hardAlpha"/>
<feOffset dy="11"/>
<feGaussianBlur stdDeviation="5.5"/>
<feColorMatrix type="matrix" values="0 0 0 0 0 0 0 0 0 0 0 0 0 0 0 0 0 0 0.04 0"/>
<feBlend mode="normal" in2="effect1_dropShadow_81_313" result="effect2_dropShadow_81_313"/>
<feColorMatrix in="SourceAlpha" type="matrix" values="0 0 0 0 0 0 0 0 0 0 0 0 0 0 0 0 0 0 127 0" result="hardAlpha"/>
<feOffset dy="25"/>
<feGaussianBlur stdDeviation="7.5"/>
<feColorMatrix type="matrix" values="0 0 0 0 0 0 0 0 0 0 0 0 0 0 0 0 0 0 0.03 0"/>
<feBlend mode="normal" in2="effect2_dropShadow_81_313" result="effect3_dropShadow_81_313"/>
<feColorMatrix in="SourceAlpha" type="matrix" values="0 0 0 0 0 0 0 0 0 0 0 0 0 0 0 0 0 0 127 0" result="hardAlpha"/>
<feOffset dy="45"/>
<feGaussianBlur stdDeviation="9"/>
<feColorMatrix type="matrix" values="0 0 0 0 0 0 0 0 0 0 0 0 0 0 0 0 0 0 0.01 0"/>
<feBlend mode="normal" in2="effect3_dropShadow_81_313" result="effect4_dropShadow_81_313"/>
<feBlend mode="normal" in="SourceGraphic" in2="effect4_dropShadow_81_313" result="shape"/>
</filter>
</defs>
</svg>
