<svg preserveAspectRatio="none" width="100%" height="100%" overflow="visible" style="display: block;" viewBox="0 0 20 20" fill="none" xmlns="http://www.w3.org/2000/svg">
<g id="Frame">
<path id="Vector" d="M2.5 13.3333V6C2.5 5.06657 2.5 4.59987 2.68166 4.24335C2.84144 3.92974 3.09641 3.67477 3.41002 3.51499C3.76653 3.33333 4.23325 3.33333 5.16667 3.33333H14.8333C15.7667 3.33333 16.2335 3.33333 16.59 3.51499C16.9036 3.67477 17.1586 3.92974 17.3183 4.24335C17.5 4.59987 17.5 5.06658 17.5 6V13.3333H13.0522C12.8485 13.3333 12.7466 13.3333 12.6507 13.3563C12.5656 13.3767 12.4843 13.4104 12.4097 13.4562C12.3257 13.5077 12.2536 13.5797 12.1095 13.7238L12.0572 13.7762C11.9131 13.9203 11.841 13.9923 11.7569 14.0438C11.6823 14.0896 11.6011 14.1233 11.516 14.1437C11.4201 14.1667 11.3182 14.1667 11.1144 14.1667H8.88558C8.68183 14.1667 8.57992 14.1667 8.484 14.1437C8.39892 14.1233 8.31766 14.0896 8.2431 14.0438C8.159 13.9923 8.08693 13.9203 7.94281 13.7762L7.89052 13.7238C7.7464 13.5797 7.67433 13.5077 7.59023 13.4562C7.51567 13.4104 7.43439 13.3767 7.34936 13.3563C7.25345 13.3333 7.15154 13.3333 6.94772 13.3333H2.5ZM2.5 13.3333C2.03977 13.3333 1.66667 13.7064 1.66667 14.1667V14.4444C1.66667 14.9611 1.66667 15.2194 1.72346 15.4313C1.87757 16.0065 2.32682 16.4557 2.90197 16.6099C3.11392 16.6667 3.37224 16.6667 3.88889 16.6667H16.1111C16.6277 16.6667 16.8861 16.6667 17.098 16.6099C17.6732 16.4557 18.1224 16.0065 18.2766 15.4313C18.3333 15.2194 18.3333 14.9611 18.3333 14.4444C18.3333 14.1861 18.3333 14.0569 18.3049 13.951C18.2279 13.6634 18.0032 13.4387 17.7157 13.3617C17.6097 13.3333 17.4806 13.3333 17.2222 13.3333H16.6667" stroke="var(--stroke-0, #595959)" stroke-width="2" stroke-linecap="round" stroke-linejoin="round"/>
</g>
</svg>
