<svg preserveAspectRatio="none" width="100%" height="100%" overflow="visible" style="display: block;" viewBox="0 0 20 20" fill="none" xmlns="http://www.w3.org/2000/svg">
<g id="Frame" clip-path="url(#clip0_112_4835)">
<path id="Vector" d="M8.33333 12.5L5.77062 15.0948C5.41316 15.4567 5.23442 15.6377 5.08079 15.6504C4.94751 15.6615 4.81702 15.6079 4.72997 15.5063C4.62963 15.3893 4.62963 15.135 4.62963 14.6262V13.3263C4.62963 12.87 4.25589 12.5397 3.80433 12.4736C2.71145 12.3135 1.85315 11.4552 1.69307 10.3623C1.66667 10.1822 1.66667 9.96708 1.66667 9.537V5.66667C1.66667 4.26653 1.66667 3.56647 1.93915 3.03169C2.17883 2.56128 2.56128 2.17883 3.03169 1.93915C3.56647 1.66667 4.26653 1.66667 5.66667 1.66667H11.8333C13.2335 1.66667 13.9335 1.66667 14.4683 1.93915C14.9387 2.17883 15.3212 2.56128 15.5608 3.03169C15.8333 3.56647 15.8333 4.26653 15.8333 5.66667V9.16667M15.8333 18.3333L14.0197 17.0724C13.7648 16.8952 13.6372 16.8065 13.4985 16.7437C13.3753 16.6879 13.2459 16.6473 13.113 16.6228C12.9632 16.5952 12.8079 16.5953 12.4974 16.5953H11C10.0666 16.5953 9.59983 16.5953 9.24333 16.4136C8.92975 16.2538 8.67475 15.9988 8.515 15.6852C8.33333 15.3287 8.33333 14.862 8.33333 13.9286V11.8333C8.33333 10.8999 8.33333 10.4332 8.515 10.0767C8.67475 9.76308 8.92975 9.50808 9.24333 9.34833C9.59983 9.16667 10.0666 9.16667 11 9.16667H15.6667C16.6001 9.16667 17.0668 9.16667 17.4233 9.34833C17.7369 9.50808 17.9919 9.76308 18.1517 10.0767C18.3333 10.4332 18.3333 10.8999 18.3333 11.8333V14.0953C18.3333 14.8718 18.3333 15.2601 18.2065 15.5664C18.0373 15.9748 17.7128 16.2992 17.3045 16.4683C16.9982 16.5952 16.6099 16.5953 15.8333 16.5953V18.3333Z" stroke="var(--stroke-0, #595959)" stroke-width="2" stroke-linecap="round" stroke-linejoin="round"/>
</g>
<defs>
<clipPath id="clip0_112_4835">
<rect width="20" height="20" fill="white"/>
</clipPath>
</defs>
</svg>
