<svg preserveAspectRatio="none" width="100%" height="100%" overflow="visible" style="display: block;" viewBox="0 0 20 20" fill="none" xmlns="http://www.w3.org/2000/svg">
<g id="Frame" clip-path="url(#clip0_112_4838)">
<path id="Vector" d="M5 16.7393H7.17524C7.45886 16.7393 7.74073 16.7731 8.01567 16.8406L10.3141 17.3991C10.8127 17.5206 11.3323 17.5324 11.8362 17.4345L14.3775 16.9401C15.0487 16.8093 15.6663 16.4879 16.1503 16.0171L17.9483 14.2681C18.4617 13.7695 18.4617 12.9603 17.9483 12.4609C17.486 12.0113 16.7539 11.9606 16.2309 12.3419L14.1355 13.8708C13.8354 14.0901 13.4702 14.2082 13.0947 14.2082H11.0712H12.3593C13.0852 14.2082 13.6732 13.6361 13.6732 12.9299V12.6743C13.6732 12.0879 13.263 11.5767 12.6784 11.4349L10.6905 10.9515C10.367 10.873 10.0357 10.8333 9.70258 10.8333C8.89858 10.8333 7.44324 11.499 7.44324 11.499L5 12.5208M1.66667 12.1667V17C1.66667 17.4668 1.66667 17.7001 1.75749 17.8783C1.83739 18.0352 1.96487 18.1626 2.12167 18.2425C2.29993 18.3333 2.53329 18.3333 3 18.3333H3.66667C4.13337 18.3333 4.36673 18.3333 4.54499 18.2425C4.70179 18.1627 4.82927 18.0352 4.90917 17.8783C5 17.7001 5 17.4668 5 17V12.1667C5 11.7 5 11.4666 4.90917 11.2883C4.82927 11.1316 4.70179 11.0041 4.54499 10.9242C4.36673 10.8333 4.13337 10.8333 3.66667 10.8333H3C2.53329 10.8333 2.29993 10.8333 2.12167 10.9242C1.96487 11.0041 1.83739 11.1316 1.75749 11.2883C1.66667 11.4666 1.66667 11.7 1.66667 12.1667ZM14.3262 2.99356C13.8288 1.95284 12.6822 1.4015 11.567 1.93366C10.4519 2.46582 9.97683 3.72783 10.4437 4.8357C10.7322 5.5204 11.5589 6.85002 12.1484 7.76587C12.3662 8.10427 12.4751 8.27347 12.6342 8.37242C12.7706 8.45733 12.9414 8.50308 13.102 8.49783C13.2892 8.49158 13.4682 8.3995 13.8259 8.21538C14.7943 7.71694 16.1751 6.97881 16.7673 6.53012C17.7256 5.80412 17.963 4.46966 17.2456 3.45522C16.5281 2.44077 15.2773 2.34095 14.3262 2.99356Z" stroke="var(--stroke-0, #595959)" stroke-width="2" stroke-linecap="round" stroke-linejoin="round"/>
</g>
<defs>
<clipPath id="clip0_112_4838">
<rect width="20" height="20" fill="white"/>
</clipPath>
</defs>
</svg>
