<svg preserveAspectRatio="none" width="100%" height="100%" overflow="visible" style="display: block;" viewBox="0 0 625 742" fill="none" xmlns="http://www.w3.org/2000/svg">
<g id="D Flare" filter="url(#filter0_f_3074_2901)">
<path d="M168.214 612.183C138.251 593.974 64 424.241 64 424.241C86.151 406.496 97.0434 400.231 102.779 400.484C59.8943 285.926 69.1012 64 69.1012 64C165.321 617.644 133.068 69.3174 155.903 150.375C224.089 392.415 349.261 454.444 292.803 308.114C282.678 281.87 373.293 223.222 393.055 190.414C392.065 182.194 393.186 176.784 396.634 175.167C402.1 172.605 399.821 179.18 393.055 190.414C398.216 233.282 460.788 352.566 550.039 408.634C597.249 438.291 480.053 439.407 424.404 527.91C377.053 603.217 407.088 642.216 429.53 661.072C462.986 675.183 441.289 681.547 447.289 676.015C449.045 674.395 440.135 669.983 429.53 661.072C408.112 652.038 204.933 459.404 212.786 556.131C220.694 653.532 304.688 670.53 168.214 612.183Z" fill="url(#paint0_linear_3074_2901)"/>
</g>
<defs>
<filter id="filter0_f_3074_2901" x="0" y="0" width="625" height="742" filterUnits="userSpaceOnUse" color-interpolation-filters="sRGB">
<feFlood flood-opacity="0" result="BackgroundImageFix"/>
<feBlend mode="normal" in="SourceGraphic" in2="BackgroundImageFix" result="shape"/>
<feGaussianBlur stdDeviation="32" result="effect1_foregroundBlur_3074_2901"/>
</filter>
<linearGradient id="paint0_linear_3074_2901" x1="140.336" y1="577.559" x2="428.396" y2="429.014" gradientUnits="userSpaceOnUse">
<stop stop-color="#F7F5F5"/>
<stop offset="0.097969" stop-color="#FFEB7C"/>
<stop offset="0.355769" stop-color="#FFC15C"/>
<stop offset="0.451923" stop-color="#FFE241"/>
<stop offset="0.673077" stop-color="#FF9157"/>
<stop offset="0.822115" stop-color="#FF6415"/>
<stop offset="1" stop-color="#F7F5F5"/>
</linearGradient>
</defs>
</svg>
