<svg preserveAspectRatio="none" width="100%" height="100%" overflow="visible" style="display: block;" viewBox="0 0 80 14" fill="none" xmlns="http://www.w3.org/2000/svg">
<g id="Drata_wordmark_dark_0 1" clip-path="url(#clip0_77_174)">
<path id="Vector" d="M7.69267 0H0V14H7.69267C12.5993 14 15.7687 11.2525 15.7687 7.00135C15.7687 2.75019 12.5987 0 7.69267 0ZM7.52333 11.2255H3.38333V2.77584H7.52333C10.256 2.77584 12.02 4.43473 12.02 7C12.02 9.56527 10.256 11.2242 7.52333 11.2242V11.2255Z" fill="var(--fill-0, #252938)"/>
<path id="Vector_2" d="M29.952 9.46876C31.768 8.61772 32.7274 7.11271 32.7274 5.11502C32.7274 1.96057 30.286 9.26781e-07 26.356 9.26781e-07H18.0327V14H21.5667V10.1477H26.1907L28.8974 14H32.7947L29.6827 9.59429L29.9507 9.46944H29.9527L29.952 9.46876ZM26.1 7.47783H21.5674V2.73467H26.1C27.9547 2.73467 28.978 3.57964 28.978 5.1157C28.978 6.65176 27.9294 7.47715 26.1 7.47715V7.47783Z" fill="var(--fill-0, #252938)"/>
<path id="Vector_3" d="M65.498 9.26781e-07H48.7834L49.8494 2.75559H55.2967V14H59.0054V2.75559H64.4307L65.4967 9.26781e-07H65.4974H65.498Z" fill="var(--fill-0, #252938)"/>
<path id="Vector_4" d="M40.3854 9.26781e-07L34.3834 14H38.1227L38.8634 12.0023C41.6834 11.1594 43.6427 11.0986 46.4167 12.0961L47.1194 14H50.944L44.9174 9.26781e-07H40.384H40.386H40.3854ZM39.8307 9.28047L42.4374 2.98573H42.804L45.4347 9.34121C43.524 8.57453 41.7427 8.51446 39.8307 9.28047Z" fill="var(--fill-0, #252938)"/>
<path id="Vector_5" d="M69.442 9.26781e-07L63.44 14H67.1794L67.92 12.0023C70.74 11.1594 72.6994 11.0986 75.4734 12.0961L76.176 14H80.0007L73.9734 9.26781e-07H69.44H69.442ZM68.8867 9.28047L71.4934 2.98573H71.86L74.4907 9.34121C72.58 8.57453 70.7987 8.51446 68.8867 9.28047Z" fill="var(--fill-0, #252938)"/>
</g>
<defs>
<clipPath id="clip0_77_174">
<rect width="80" height="14" fill="white"/>
</clipPath>
</defs>
</svg>
