<svg preserveAspectRatio="none" width="100%" height="100%" overflow="visible" style="display: block;" viewBox="0 0 120 21" fill="none" xmlns="http://www.w3.org/2000/svg">
<g id="Drata_wordmark_dark_0 1" clip-path="url(#clip0_89_528)">
<path id="Vector" d="M11.5393 0H0.000279018V21H11.5393C18.8993 21 23.6533 16.8788 23.6533 10.502C23.6533 4.12529 18.8983 0 11.5393 0ZM11.2853 16.8383H5.07528V4.16376H11.2853C15.3843 4.16376 18.0303 6.65209 18.0303 10.5C18.0303 14.3479 15.3843 16.8362 11.2853 16.8362V16.8383Z" fill="var(--fill-0, #252938)"/>
<path id="Vector_2" d="M44.9275 14.2031C47.6515 12.9266 49.0905 10.6691 49.0905 7.67253C49.0905 2.94085 45.4285 0 39.5335 0H27.0485V21H32.3495V15.2216H39.2855L43.3455 21H49.1915L44.5235 14.3914L44.9255 14.2042H44.9285L44.9275 14.2031ZM39.1495 11.2167H32.3505V4.10201H39.1495C41.9315 4.10201 43.4665 5.36946 43.4665 7.67354C43.4665 9.97763 41.8935 11.2157 39.1495 11.2157V11.2167Z" fill="var(--fill-0, #252938)"/>
<path id="Vector_3" d="M98.247 0H73.175L74.774 4.13339H82.945V21H88.508V4.13339H96.646L98.245 0H98.246H98.247Z" fill="var(--fill-0, #252938)"/>
<path id="Vector_4" d="M60.5789 0L51.5759 21H57.1849L58.2959 18.0035C62.5259 16.7391 65.4649 16.6479 69.6259 18.1442L70.6799 21H76.4169L67.3769 0H60.5769H60.5799H60.5789ZM59.7469 13.9207L63.6569 4.4786H64.2069L68.1529 14.0118C65.2869 12.8618 62.6149 12.7717 59.7469 13.9207Z" fill="var(--fill-0, #252938)"/>
<path id="Vector_5" d="M104.164 0L95.1609 21H100.77L101.881 18.0035C106.111 16.7391 109.05 16.6479 113.211 18.1442L114.265 21H120.002L110.961 0H104.161H104.164ZM103.331 13.9207L107.241 4.4786H107.791L111.737 14.0118C108.871 12.8618 106.199 12.7717 103.331 13.9207Z" fill="var(--fill-0, #252938)"/>
</g>
<defs>
<clipPath id="clip0_89_528">
<rect width="120" height="21" fill="white"/>
</clipPath>
</defs>
</svg>
