<svg preserveAspectRatio="none" width="100%" height="100%" overflow="visible" style="display: block;" viewBox="0 0 154 27" fill="none" xmlns="http://www.w3.org/2000/svg">
<g id="Drata_wordmark_dark_0 1" clip-path="url(#clip0_81_365)">
<path id="Vector" d="M14.8087 0H0.000279018V27H14.8087C24.254 27 30.355 21.7013 30.355 13.5026C30.355 5.30394 24.2527 0 14.8087 0ZM14.4827 21.6492H6.5132V5.3534H14.4827C19.7431 5.3534 23.1388 8.55269 23.1388 13.5C23.1388 18.4473 19.7431 21.6466 14.4827 21.6466V21.6492Z" fill="var(--fill-0, white)"/>
<path id="Vector_2" d="M57.6571 18.2612C61.1529 16.6199 62.9996 13.7174 62.9996 9.86468C62.9996 3.78109 58.3 0 50.7348 0H34.7124V27H41.5153V19.5706H50.4165L55.6269 27H63.1292L57.1386 18.5033L57.6545 18.2625H57.6584L57.6571 18.2612ZM50.242 14.4215H41.5166V5.27401H50.242C53.8122 5.27401 55.7821 6.90359 55.7821 9.86599C55.7821 12.8284 53.7635 14.4202 50.242 14.4202V14.4215Z" fill="var(--fill-0, white)"/>
<path id="Vector_3" d="M126.084 0H93.908L95.9601 5.31436H106.446V27H113.585V5.31436H124.029L126.081 0H126.082H126.084Z" fill="var(--fill-0, white)"/>
<path id="Vector_4" d="M77.743 0L66.1891 27H73.3874L74.8131 23.1473C80.2416 21.5216 84.0134 21.4045 89.3533 23.3282L90.7059 27H98.0684L86.4671 0H77.7404H77.7443H77.743ZM76.6753 17.898L81.6931 5.7582H82.3989L87.463 18.0152C83.7849 16.5366 80.3559 16.4207 76.6753 17.898Z" fill="var(--fill-0, white)"/>
<path id="Vector_5" d="M133.677 0L122.123 27H129.321L130.747 23.1473C136.176 21.5216 139.947 21.4045 145.287 23.3282L146.64 27H154.002L142.4 0H133.673H133.677ZM132.608 17.898L137.626 5.7582H138.332L143.396 18.0152C139.718 16.5366 136.289 16.4207 132.608 17.898Z" fill="var(--fill-0, white)"/>
</g>
<defs>
<clipPath id="clip0_81_365">
<rect width="154" height="27" fill="white"/>
</clipPath>
</defs>
</svg>
