<svg preserveAspectRatio="none" width="100%" height="100%" overflow="visible" style="display: block;" viewBox="0 0 46 48" fill="none" xmlns="http://www.w3.org/2000/svg">
<g id="Frame">
<rect width="46" height="47.8561" rx="6" fill="var(--fill-0, #F4F4F4)"/>
<path id="Vector" d="M20.75 32.6061L22.223 33.4244C22.5066 33.582 22.6484 33.6607 22.7986 33.6916C22.9315 33.719 23.0685 33.719 23.2015 33.6916C23.3516 33.6607 23.4934 33.582 23.777 33.4244L25.25 32.6061M16.25 30.1061L14.823 29.3133C14.5235 29.1469 14.3737 29.0637 14.2646 28.9453C14.1682 28.8407 14.0951 28.7166 14.0505 28.5814C14 28.4286 14 28.2573 14 27.9146V26.3561M14 21.356V19.7975C14 19.4548 14 19.2835 14.0505 19.1307C14.0951 18.9955 14.1682 18.8715 14.2646 18.7668C14.3737 18.6484 14.5234 18.5652 14.823 18.3988L16.25 17.606M20.75 15.106L22.223 14.2877C22.5066 14.1302 22.6484 14.0514 22.7986 14.0205C22.9315 13.9932 23.0685 13.9932 23.2015 14.0205C23.3516 14.0514 23.4934 14.1302 23.777 14.2877L25.25 15.106M29.75 17.606L31.177 18.3988C31.4766 18.5652 31.6263 18.6484 31.7354 18.7668C31.8318 18.8715 31.9049 18.9955 31.9495 19.1307C32 19.2835 32 19.4548 32 19.7975V21.356M32 26.3561V27.9146C32 28.2573 32 28.4286 31.9495 28.5814C31.9049 28.7166 31.8318 28.8407 31.7354 28.9453C31.6263 29.0637 31.4766 29.1469 31.177 29.3133L29.75 30.1061M20.75 22.6061L23 23.8561M23 23.8561L25.25 22.6061M23 23.8561V26.3561M14 18.856L16.25 20.106M29.75 20.106L32 18.856M23 31.3561V33.8561" stroke="var(--stroke-0, #595959)" stroke-width="2" stroke-linecap="round" stroke-linejoin="round"/>
</g>
</svg>
