<svg preserveAspectRatio="none" width="100%" height="100%" overflow="visible" style="display: block;" viewBox="0 0 20 20" fill="none" xmlns="http://www.w3.org/2000/svg">
<g id="Frame">
<path id="Vector" d="M6.66667 17.5V5.83333C6.66667 5.05836 6.66667 4.67087 6.75185 4.35295C6.98302 3.49022 7.65689 2.81635 8.51958 2.58518C8.8375 2.5 9.225 2.5 10 2.5C10.775 2.5 11.1625 2.5 11.4804 2.58518C12.3431 2.81635 13.017 3.49022 13.2482 4.35295C13.3333 4.67087 13.3333 5.05836 13.3333 5.83333V11.25M13.3333 14.5833V17.5M5.66667 17.5H14.3333C15.7335 17.5 16.4335 17.5 16.9683 17.2275C17.4387 16.9878 17.8212 16.6054 18.0608 16.135C18.3333 15.6002 18.3333 14.9002 18.3333 13.5V9.83333C18.3333 8.43317 18.3333 7.73313 18.0608 7.19836C17.8212 6.72795 17.4387 6.3455 16.9683 6.10582C16.4335 5.83333 15.7335 5.83333 14.3333 5.83333H5.66667C4.26653 5.83333 3.56647 5.83333 3.03169 6.10582C2.56128 6.3455 2.17883 6.72795 1.93915 7.19836C1.66667 7.73313 1.66667 8.43317 1.66667 9.83333V13.5C1.66667 14.9002 1.66667 15.6002 1.93915 16.135C2.17883 16.6054 2.56128 16.9878 3.03169 17.2275C3.56647 17.5 4.26653 17.5 5.66667 17.5ZM10.6667 14.5833H14.75C14.9833 14.5833 15.1 14.5833 15.1892 14.5379C15.2676 14.498 15.3313 14.4342 15.3712 14.3558C15.4167 14.2667 15.4167 14.15 15.4167 13.9167V11.9167C15.4167 11.6833 15.4167 11.5667 15.3712 11.4775C15.3313 11.3991 15.2676 11.3353 15.1892 11.2954C15.1 11.25 14.9833 11.25 14.75 11.25H10.6667C10.4333 11.25 10.3167 11.25 10.2275 11.2954C10.1491 11.3353 10.0853 11.3991 10.0454 11.4775C10 11.5667 10 11.6833 10 11.9167V13.9167C10 14.15 10 14.2667 10.0454 14.3558C10.0853 14.4342 10.1491 14.498 10.2275 14.5379C10.3167 14.5833 10.4333 14.5833 10.6667 14.5833Z" stroke="var(--stroke-0, #595959)" stroke-width="2" stroke-linecap="round" stroke-linejoin="round"/>
</g>
</svg>
