<svg preserveAspectRatio="none" width="100%" height="100%" overflow="visible" style="display: block;" viewBox="0 0 303 239" fill="none" xmlns="http://www.w3.org/2000/svg">
<g id="Group 4665">
<path id="Intersect" d="M111.113 0C150.321 2.38264e-05 181.563 10.2037 197.428 26.6661C203.972 33.4556 214.617 37.6313 222.816 32.9747L252.277 16.2431C256.871 13.6341 262.498 13.6341 267.092 16.2429L275.568 21.0566C307.117 40.6929 311.459 65.8601 288.002 86.1534C287.723 86.3948 287.883 86.8662 288.252 86.8662V86.8662C288.657 86.8662 288.8 87.4044 288.447 87.6048L234.53 118.226C228.638 121.573 227.582 129.626 232.413 134.378V134.378C238.924 140.783 234.389 151.86 225.255 151.86L220.851 151.86C214.219 151.86 208.842 157.237 208.842 163.87V238.561C208.842 238.671 208.771 238.77 208.666 238.804L208.513 238.855C208.5 238.859 208.49 238.872 208.49 238.886V238.886C208.49 238.905 208.475 238.92 208.457 238.92L208.327 238.92C208.317 238.92 208.307 238.922 208.297 238.925V238.925C208.287 238.928 208.277 238.93 208.267 238.93H206.562C206.557 238.93 206.553 238.928 206.55 238.925V238.925C206.547 238.922 206.543 238.92 206.538 238.92H191.778C152.571 238.92 121.329 228.716 105.463 212.253C98.9201 205.464 88.2751 201.288 80.0759 205.945L50.6134 222.676C46.0198 225.285 40.3925 225.285 35.7989 222.676L27.3233 217.863C-9.3328 195.048 -9.25993 164.766 28.4698 143.338L67.8456 120.976C73.8211 117.583 74.8918 109.415 69.9928 104.596V104.596C63.3894 98.1006 67.9889 86.8662 77.2517 86.8662L82.0755 86.8662C88.883 86.8662 94.4015 81.3477 94.4015 74.5403V15C94.4015 6.71573 101.117 0 109.401 0L111.113 0Z" fill="url(#paint0_linear_1623_7589)"/>
</g>
<defs>
<linearGradient id="paint0_linear_1623_7589" x1="259.402" y1="112.301" x2="-5.05195" y2="190.471" gradientUnits="userSpaceOnUse">
<stop offset="0.182692" stop-color="#EB5000"/>
<stop offset="0.399038" stop-color="#FFE96B"/>
<stop offset="1" stop-color="white"/>
</linearGradient>
</defs>
</svg>
