<svg preserveAspectRatio="none" width="100%" height="100%" overflow="visible" style="display: block;" viewBox="0 0 20 20" fill="none" xmlns="http://www.w3.org/2000/svg">
<g id="Frame">
<path id="Vector" d="M2.08372 10.8333H7.08373M12.9171 10.8333H17.9171M10.0004 5.83333V17.5M10.0004 5.83333C11.151 5.83333 12.0838 4.90059 12.0838 3.75M10.0004 5.83333C8.84983 5.83333 7.91706 4.90059 7.91706 3.75M12.0838 3.75C12.0838 2.59941 11.151 1.66667 10.0004 1.66667C8.84983 1.66667 7.91706 2.59941 7.91706 3.75M12.0838 3.75H16.6671M7.91706 3.75L3.33373 3.75001M3.33373 17.5H16.6671M7.40076 11.947C7.06685 13.2255 5.93215 14.1667 4.58373 14.1667C3.23531 14.1667 2.10061 13.2255 1.7667 11.947C1.73942 11.8425 1.72578 11.7902 1.72446 11.5816C1.72365 11.4536 1.7712 11.1587 1.81216 11.0374C1.87898 10.8397 1.95132 10.7281 2.09599 10.5049L4.58373 6.66667L7.07147 10.5049C7.21614 10.7281 7.28848 10.8397 7.3553 11.0374C7.39626 11.1587 7.44381 11.4536 7.443 11.5816C7.44168 11.7902 7.42804 11.8425 7.40076 11.947ZM18.2341 11.947C17.9002 13.2255 16.7655 14.1667 15.4171 14.1667C14.0687 14.1667 12.9339 13.2255 12.6 11.947C12.5728 11.8425 12.5591 11.7902 12.5578 11.5816C12.557 11.4536 12.6045 11.1587 12.6455 11.0374C12.7123 10.8397 12.7847 10.7281 12.9293 10.5049L15.4171 6.66667L17.9048 10.5049C18.0495 10.7281 18.1218 10.8397 18.1887 11.0374C18.2296 11.1587 18.2772 11.4536 18.2763 11.5816C18.275 11.7902 18.2614 11.8425 18.2341 11.947Z" stroke="var(--stroke-0, #595959)" stroke-width="2" stroke-linecap="round" stroke-linejoin="round"/>
</g>
</svg>
