<svg preserveAspectRatio="none" width="100%" height="100%" overflow="visible" style="display: block;" viewBox="0 0 20 20" fill="none" xmlns="http://www.w3.org/2000/svg">
<g id="Frame" clip-path="url(#clip0_98_814)">
<path id="Vector" d="M7.5 1.66667V3.33333M12.5 1.66667V3.33333M7.5 16.6667V18.3333M12.5 16.6667V18.3333M16.6667 7.5H18.3333M16.6667 11.6667H18.3333M1.66667 7.5H3.33333M1.66667 11.6667H3.33333M7.33333 16.6667H12.6667C14.0668 16.6667 14.7668 16.6667 15.3017 16.3942C15.7721 16.1545 16.1545 15.7721 16.3942 15.3017C16.6667 14.7668 16.6667 14.0668 16.6667 12.6667V7.33333C16.6667 5.9332 16.6667 5.23313 16.3942 4.69836C16.1545 4.22795 15.7721 3.8455 15.3017 3.60582C14.7668 3.33333 14.0668 3.33333 12.6667 3.33333H7.33333C5.9332 3.33333 5.23313 3.33333 4.69836 3.60582C4.22795 3.8455 3.8455 4.22795 3.60582 4.69836C3.33333 5.23313 3.33333 5.9332 3.33333 7.33333V12.6667C3.33333 14.0668 3.33333 14.7668 3.60582 15.3017C3.8455 15.7721 4.22795 16.1545 4.69836 16.3942C5.23313 16.6667 5.9332 16.6667 7.33333 16.6667ZM8.83333 12.5H11.1667C11.6334 12.5 11.8668 12.5 12.045 12.4092C12.2018 12.3292 12.3292 12.2018 12.4092 12.045C12.5 11.8668 12.5 11.6334 12.5 11.1667V8.83333C12.5 8.36658 12.5 8.13327 12.4092 7.95501C12.3292 7.79821 12.2018 7.67072 12.045 7.59082C11.8668 7.5 11.6334 7.5 11.1667 7.5H8.83333C8.36658 7.5 8.13327 7.5 7.95501 7.59082C7.79821 7.67072 7.67072 7.79821 7.59082 7.95501C7.5 8.13327 7.5 8.36658 7.5 8.83333V11.1667C7.5 11.6334 7.5 11.8668 7.59082 12.045C7.67072 12.2018 7.79821 12.3292 7.95501 12.4092C8.13327 12.5 8.36658 12.5 8.83333 12.5Z" stroke="var(--stroke-0, #595959)" stroke-width="2" stroke-linecap="round" stroke-linejoin="round"/>
</g>
<defs>
<clipPath id="clip0_98_814">
<rect width="20" height="20" fill="white"/>
</clipPath>
</defs>
</svg>
