<svg preserveAspectRatio="none" width="100%" height="100%" overflow="visible" style="display: block;" viewBox="0 0 421 239" fill="none" xmlns="http://www.w3.org/2000/svg">
<g id="Group 4664">
<path id="Intersect" d="M170.01 0C209.217 6.23277e-05 240.458 10.2042 256.324 26.6666C262.867 33.456 273.512 37.6315 281.711 32.9749L311.177 16.2402C315.771 13.6312 321.399 13.6312 325.993 16.2402L334.343 20.9824C366 40.629 370.383 65.8324 346.899 86.1513C346.619 86.3935 346.779 86.8662 347.149 86.8662L348.451 86.8662C348.504 86.8662 348.523 86.937 348.477 86.9634V86.9634C348.43 86.9898 348.449 87.0605 348.502 87.0605L411.396 87.0605C416.53 87.0605 420.692 91.2229 420.692 96.3574V96.3574C420.692 128.958 382.182 151.86 326.96 151.86L267.834 151.86C267.781 151.86 267.737 151.904 267.737 151.957V151.957C267.737 152.01 267.694 152.054 267.641 152.054H267.564C267.469 152.054 267.392 152.131 267.392 152.227L267.392 223.922C267.392 232.206 260.676 238.922 252.392 238.922H250.68C211.471 238.922 180.23 228.718 164.365 212.255C157.821 205.465 147.176 201.289 138.976 205.945L109.51 222.679C104.916 225.288 99.2887 225.288 94.6949 222.678L86.3496 217.938C54.6908 198.292 50.3058 173.087 73.7894 152.768C74.069 152.526 73.9089 152.054 73.5391 152.054H72.235C72.1819 152.054 72.1633 151.983 72.2095 151.957V151.957C72.2557 151.931 72.2371 151.86 72.184 151.86L9.29687 151.86C4.16235 151.86 0 147.698 0 142.563V142.563C2.33096e-05 109.963 38.5107 87.0607 93.7324 87.0605L152.854 87.0605C152.908 87.0605 152.951 87.017 152.951 86.9634V86.9634C152.951 86.9097 152.995 86.8662 153.048 86.8662H153.125C153.22 86.8662 153.298 86.7886 153.298 86.6929L153.298 15C153.298 6.71573 160.014 0 168.298 0L170.01 0Z" fill="url(#paint0_linear_1623_7578)" fill-opacity="0.8"/>
</g>
<defs>
<linearGradient id="paint0_linear_1623_7578" x1="420.692" y1="119.461" x2="44.9533" y2="178.931" gradientUnits="userSpaceOnUse">
<stop stop-color="#FF6908"/>
<stop offset="1" stop-color="white"/>
</linearGradient>
</defs>
</svg>
