<svg preserveAspectRatio="none" width="100%" height="100%" overflow="visible" style="display: block;" viewBox="0 0 20 20" fill="none" xmlns="http://www.w3.org/2000/svg">
<g id="Frame" clip-path="url(#clip0_98_811)">
<path id="Vector" d="M10 1.66667V5.83333M10 1.66667C9.40558 1.66667 8.82575 1.72889 8.26659 1.84719M10 1.66667C10.5943 1.66667 11.1742 1.72889 11.7333 1.84719M10 5.83333C7.69879 5.83333 5.83333 7.69883 5.83333 10M10 5.83333C12.3012 5.83333 14.1667 7.69883 14.1667 10M5.83333 10C5.83333 12.3012 7.69879 14.1667 10 14.1667M5.83333 10H1.66667M14.1667 10C14.1667 12.3012 12.3012 14.1667 10 14.1667M14.1667 10H18.3333M10 14.1667V18.3333M10 18.3333C10.5935 18.3333 11.1725 18.2712 11.7308 18.1533M10 18.3333C9.40425 18.3333 8.82317 18.2708 8.26287 18.152M4.10742 4.10744L7.0537 7.05372M12.9462 12.9462L15.8925 15.8926M1.66667 10C1.66667 10.5944 1.72888 11.1743 1.8472 11.7335M1.66667 10C1.66667 9.40475 1.72907 8.824 1.84772 8.26402M18.3333 10C18.3333 9.40558 18.2711 8.82567 18.1527 8.26648M18.3333 10C18.3333 10.5942 18.2712 11.1738 18.1529 11.7328M4.10742 15.8926L7.0537 12.9462M12.9462 7.05372L15.8925 4.10744M14.5388 3.01007C15.5175 3.64683 16.3541 4.48352 16.9907 5.46224M16.9883 14.5413C16.3517 15.5191 15.5152 16.355 14.5371 16.9911M5.46142 16.9902C4.4842 16.3543 3.64859 15.5192 3.01228 14.5423M3.00976 5.46156C3.64621 4.48328 4.48245 3.64694 5.46062 3.01037" stroke="var(--stroke-0, #595959)" stroke-width="2" stroke-linecap="round" stroke-linejoin="round"/>
</g>
<defs>
<clipPath id="clip0_98_811">
<rect width="20" height="20" fill="white"/>
</clipPath>
</defs>
</svg>
