<svg preserveAspectRatio="none" width="100%" height="100%" overflow="visible" style="display: block;" viewBox="0 0 20 20" fill="none" xmlns="http://www.w3.org/2000/svg">
<g id="Frame">
<path id="Vector" d="M13.0262 6.35948C12.6961 6.02946 12.5311 5.86446 12.4693 5.67418C12.4149 5.50681 12.4149 5.32653 12.4693 5.15915C12.5311 4.96888 12.6961 4.80388 13.0262 4.47386L15.3914 2.10855C14.7638 1.82468 14.067 1.66667 13.3333 1.66667C10.5719 1.66667 8.33332 3.90524 8.33332 6.66667C8.33332 7.07587 8.3825 7.47358 8.47517 7.85424C8.5745 8.26187 8.62417 8.46567 8.61533 8.59442C8.60608 8.72925 8.586 8.801 8.52383 8.92092C8.4645 9.0355 8.35067 9.14925 8.12317 9.37683L2.91665 14.5833C2.2263 15.2737 2.2263 16.393 2.91665 17.0833C3.60701 17.7737 4.7263 17.7737 5.41665 17.0833L10.6232 11.8768C10.8507 11.6493 10.9645 11.5355 11.0791 11.4762C11.199 11.414 11.2708 11.3939 11.4056 11.3847C11.5343 11.3758 11.7381 11.4255 12.1458 11.5248C12.5264 11.6175 12.9241 11.6667 13.3333 11.6667C16.0948 11.6667 18.3333 9.42808 18.3333 6.66667C18.3333 5.93299 18.1753 5.23623 17.8914 4.60855L15.5262 6.97386C15.1961 7.30388 15.0311 7.46888 14.8408 7.5307C14.6735 7.58508 14.4932 7.58508 14.3258 7.5307C14.1355 7.46888 13.9705 7.30388 13.6405 6.97386L13.0262 6.35948Z" stroke="var(--stroke-0, #595959)" stroke-width="2" stroke-linecap="round" stroke-linejoin="round"/>
</g>
</svg>
