<svg preserveAspectRatio="none" width="100%" height="100%" overflow="visible" style="display: block;" viewBox="0 0 20 20" fill="none" xmlns="http://www.w3.org/2000/svg">
<g id="Frame">
<path id="Vector" d="M10.8333 4.16667C10.8333 5.08714 8.78133 5.83333 6.25 5.83333C3.71869 5.83333 1.66667 5.08714 1.66667 4.16667M10.8333 4.16667C10.8333 3.24619 8.78133 2.5 6.25 2.5C3.71869 2.5 1.66667 3.24619 1.66667 4.16667M10.8333 4.16667V7.88096C9.81542 8.18665 9.16667 8.64908 9.16667 9.16667M1.66667 4.16667V14.1667C1.66667 15.0872 3.71869 15.8333 6.25 15.8333C7.35802 15.8333 8.37425 15.6903 9.16667 15.4524V9.16667M9.16667 9.16667C9.16667 10.0872 11.2187 10.8333 13.75 10.8333C16.2813 10.8333 18.3333 10.0872 18.3333 9.16667M9.16667 9.16667C9.16667 8.24619 11.2187 7.5 13.75 7.5C16.2813 7.5 18.3333 8.24619 18.3333 9.16667M9.16667 9.16667V15.8333C9.16667 16.7538 11.2187 17.5 13.75 17.5C16.2813 17.5 18.3333 16.7538 18.3333 15.8333V9.16667M1.66667 7.5C1.66667 8.4205 3.71869 9.16667 6.25 9.16667C7.35802 9.16667 8.37425 9.02367 9.16667 8.78575M1.66667 10.8333C1.66667 11.7538 3.71869 12.5 6.25 12.5C7.35802 12.5 8.37425 12.357 9.16667 12.1191M18.3333 12.5C18.3333 13.4205 16.2813 14.1667 13.75 14.1667C11.2187 14.1667 9.16667 13.4205 9.16667 12.5" stroke="var(--stroke-0, #595959)" stroke-width="2" stroke-linecap="round" stroke-linejoin="round"/>
</g>
</svg>
