<svg preserveAspectRatio="none" width="100%" height="100%" overflow="visible" style="display: block;" viewBox="0 0 44 44" fill="none" xmlns="http://www.w3.org/2000/svg">
<path id="Sun" d="M26.3418 41.5615V44H17.4375V43.4629C17.4375 42.3256 18.1986 41.5305 19.2939 41.5303L26.3418 41.5615ZM40.5684 34.4414L34.2754 40.751L33.8945 40.3691C33.0865 39.5667 33.0706 38.4607 33.8398 37.6895L33.8477 37.6973L38.8516 32.7188L40.5684 34.4414ZM4.99609 33.3672C5.46983 33.3673 5.92015 33.5619 6.29297 33.9355L11.2578 38.9531L9.54102 40.6748L3.24805 34.3643L3.62793 33.9824C4.03196 33.5773 4.50664 33.3594 5.00391 33.3594L4.99609 33.3672ZM26.3027 40.0195L17.4375 39.9883V39.5049C17.4377 38.3678 18.1988 37.5735 19.2939 37.5732L26.3027 37.5576V40.0195ZM36.0029 29.9072L37.7354 31.6445L31.4424 37.9082L31.1006 37.5654C30.7044 37.1604 30.4864 36.6617 30.4863 36.1865C30.4863 35.7114 30.6809 35.2596 31.0537 34.8857L35.9951 29.9072H36.0029ZM7.79492 30.5771C8.26877 30.5772 8.71892 30.7726 9.0918 31.1465L14.0566 36.1006L12.3242 37.8379L6.07715 31.5283L6.41895 31.1846C6.82297 30.7795 7.29766 30.5615 7.79492 30.5615V30.5771ZM26.4424 36.0068H17.4375V35.6484H17.4453C17.4454 34.4176 18.2693 33.5527 19.4502 33.5527H26.4424V36.0068ZM34.9971 28.7227L28.6338 35.1035L28.377 34.8457C27.5149 33.9732 27.492 32.7739 28.3232 31.9404L33.2646 26.9854L34.9971 28.7227ZM10.6221 27.7803C11.1348 27.7803 11.6243 27.9905 12.0205 28.3955L16.9707 33.3584L15.2373 35.0957L8.87402 28.7148L9.13086 28.458C9.56588 28.0296 10.0939 27.7882 10.6299 27.7881L10.6221 27.7803ZM8.3291 17.498C9.55672 17.498 10.4199 18.3237 10.4199 19.5078V26.5195H7.97168V17.498H8.3291ZM39.8828 26.5186H39.4014C38.267 26.5186 37.4746 25.7547 37.4746 24.6562H37.4824L37.4668 17.6289H39.9141L39.8828 26.5186ZM43.875 26.5117H43.3389C42.2045 26.5117 41.4121 25.7478 41.4121 24.6494L41.4434 17.583H43.875V26.5117ZM35.9111 26.5107H35.5537C34.3265 26.5105 33.4641 25.6848 33.4639 24.501V17.4814H35.9111V26.5107ZM0.536133 17.4902C1.67027 17.4903 2.46269 18.2534 2.46289 19.3516L2.43164 26.418H0V17.4902H0.536133ZM4.48242 17.4902C5.61666 17.4902 6.40898 18.2533 6.40918 19.3516L6.4248 26.3789H3.97754L4.00879 17.4902H4.48242ZM15.502 9.15332C15.9292 9.58174 16.1553 10.0807 16.1709 10.6104C16.1787 11.1401 15.9607 11.6545 15.5566 12.0596L10.6143 17.0137L8.88281 15.2773L15.2461 8.89648L15.502 9.15332ZM35.0068 15.2842L34.75 15.541C34.315 15.9694 33.787 16.2108 33.251 16.2109L33.2588 16.2188C32.746 16.2188 32.2634 16.0086 31.8594 15.6035L26.9102 10.6406L28.6436 8.9043L35.0068 15.2842ZM12.7793 6.43457C13.5794 7.23696 13.5943 8.34307 12.8252 9.11426L7.88379 14.0928L6.15137 12.3555L12.4365 6.0918L12.7793 6.43457ZM37.8018 12.4717L37.4678 12.8145C37.0638 13.2195 36.5899 13.4384 36.0928 13.4385H36.085C35.611 13.4385 35.1601 13.2431 34.7871 12.8691L29.8223 7.90723L31.5547 6.16992L37.8018 12.4717ZM9.9873 3.62988C10.7876 4.4323 10.8034 5.53929 10.0342 6.31055V6.30273L5.03027 11.2803L3.31348 9.55859L9.60645 3.24805L9.9873 3.62988ZM40.6299 9.62891L40.249 10.0107C39.8451 10.4157 39.3478 10.6337 38.874 10.6338C38.4001 10.6338 37.9491 10.4393 37.5762 10.0654L32.6113 5.04785L32.6191 5.04004L34.3359 3.31836L40.6299 9.62891ZM26.4424 8.35059C26.4424 9.58148 25.6185 10.4463 24.4375 10.4463H17.4375V7.99219H26.4424V8.35059ZM26.4336 4.01172V4.49512C26.4334 5.63218 25.6723 6.42657 24.5771 6.42676L17.5684 6.44238V3.98047L26.4336 4.01172ZM26.4395 0.538086C26.4393 1.67525 25.6783 2.4696 24.583 2.46973L17.5352 2.43848V0H26.4395V0.538086Z" fill="var(--fill-0, #0F1012)"/>
</svg>
