<svg preserveAspectRatio="none" width="100%" height="100%" overflow="visible" style="display: block;" viewBox="0 0 66 66" fill="none" xmlns="http://www.w3.org/2000/svg">
<g id="Vector">
<path d="M26.2387 65.1937V66H39.6327V62.3424L29.032 62.2957C27.3841 62.2957 26.2387 63.4876 26.2387 65.1937Z" fill="var(--fill-0, white)"/>
<path d="M26.2387 53.4733V54.0108H39.7847V50.3298H29.2658C27.4893 50.3298 26.2504 51.6269 26.2504 53.4733H26.2387Z" fill="var(--fill-0, white)"/>
<path d="M39.5626 56.336L29.0204 56.3594C27.3724 56.3594 26.227 57.5513 26.227 59.2574V59.9819L39.5626 60.0287V56.336Z" fill="var(--fill-0, white)"/>
<path d="M11.7227 45.8427C10.9747 45.8427 10.2617 46.1699 9.65397 46.7775L9.13972 47.2917L18.5366 56.757L21.1429 54.1511L13.6745 46.7191C13.1135 46.1582 12.4356 45.8661 11.7227 45.8661V45.8427Z" fill="var(--fill-0, white)"/>
<path d="M15.9887 41.6827C15.1822 41.6827 14.3875 42.045 13.733 42.6877L13.3473 43.0733L22.9194 52.6438L25.5258 50.0379L18.0807 42.5942C17.4847 41.9865 16.7484 41.671 15.977 41.671L15.9887 41.6827Z" fill="var(--fill-0, white)"/>
<path d="M7.52684 50.0382C6.77883 50.0382 6.06588 50.3654 5.45813 50.973L4.88543 51.5456L14.3524 61.011L16.9354 58.4284L9.46698 50.9029C8.90598 50.342 8.22809 50.0498 7.51515 50.0498L7.52684 50.0382Z" fill="var(--fill-0, white)"/>
<path d="M6.75544 26.2342H6.03081L5.98406 39.5675H9.66566L9.64228 29.0271C9.64228 27.3794 8.45015 26.2342 6.74375 26.2342H6.75544Z" fill="var(--fill-0, white)"/>
<path d="M11.9915 26.2342V39.7779H15.6731V29.2608C15.6731 27.4846 14.3758 26.2459 12.5291 26.2459H11.9915V26.2342Z" fill="var(--fill-0, white)"/>
<path d="M0.806448 26.2342H0V39.6259H3.65823L3.70498 29.0271C3.70498 27.3794 2.51284 26.2342 0.806448 26.2342Z" fill="var(--fill-0, white)"/>
<path d="M11.8629 21.1392L19.2963 13.6721C20.4533 12.5152 20.43 10.8558 19.2261 9.65222L18.7119 9.13805L9.25659 18.5333L11.8629 21.1392Z" fill="var(--fill-0, white)"/>
<path d="M15.9536 25.533L23.3986 18.0893C24.0064 17.4816 24.3336 16.7104 24.3219 15.9157C24.2986 15.1211 23.9596 14.3732 23.3168 13.7305L22.9311 13.3449L13.3589 22.9154L15.9653 25.5213L15.9536 25.533Z" fill="var(--fill-0, white)"/>
<path d="M15.1004 9.46525C16.2575 8.30838 16.2341 6.64902 15.0303 5.4454L14.4576 4.87281L4.99061 14.3382L7.57357 16.9207L15.1004 9.45357V9.46525Z" fill="var(--fill-0, white)"/>
<path d="M36.7576 15.6706C38.5341 15.6706 39.773 14.3735 39.773 12.5271V11.9896H26.227V15.6706H36.7576Z" fill="var(--fill-0, white)"/>
<path d="M26.4374 9.66418L36.9796 9.6408C38.6276 9.6408 39.773 8.44887 39.773 6.74277V6.01827L26.4374 5.97152V9.66418Z" fill="var(--fill-0, white)"/>
<path d="M26.379 3.6576L36.9796 3.70434C38.6276 3.70434 39.773 2.51241 39.773 0.80631V0H26.379V3.6576Z" fill="var(--fill-0, white)"/>
<path d="M49.0646 7.57245L56.533 15.098C57.094 15.6589 57.7719 15.951 58.4849 15.951C59.1978 15.951 59.9458 15.6238 60.5536 15.0162L61.1263 14.4436L51.6593 4.97825L49.0646 7.57245Z" fill="var(--fill-0, white)"/>
<path d="M54.289 20.1581C55.037 20.1581 55.75 19.8309 56.3577 19.2232L56.8603 18.7091L47.4634 9.25537L44.8571 11.8613L52.3255 19.305C52.8865 19.8659 53.5644 20.1581 54.2773 20.1581H54.289Z" fill="var(--fill-0, white)"/>
<path d="M50.023 24.3178C50.8295 24.3178 51.6242 23.9555 52.2787 23.3128L52.6644 22.9272L43.0923 13.3567L40.4859 15.9626L47.9309 23.4063C48.5387 24.014 49.2633 24.3295 50.0347 24.3295L50.023 24.3178Z" fill="var(--fill-0, white)"/>
<path d="M62.3418 26.3743L62.295 36.9732C62.295 38.6209 63.4872 39.7661 65.1936 39.7661H66V26.3743H62.3418Z" fill="var(--fill-0, white)"/>
<path d="M50.3386 36.751C50.3386 38.5273 51.6359 39.7659 53.4826 39.7659H54.0202V26.2223H50.3386V36.751Z" fill="var(--fill-0, white)"/>
<path d="M56.3694 36.9845C56.3694 38.6322 57.5615 39.7774 59.2679 39.7774H59.9926L60.0393 26.4441H56.3577L56.3811 36.9845H56.3694Z" fill="var(--fill-0, white)"/>
<path d="M50.9113 56.535C49.7542 57.6919 49.7776 59.3512 50.9931 60.5549L51.5658 61.1275L61.0328 51.6621L58.4498 49.0796L50.923 56.5467L50.9113 56.535Z" fill="var(--fill-0, white)"/>
<path d="M50.0464 40.4673L42.6014 47.911C41.3508 49.1614 41.3859 50.961 42.6832 52.2698L43.0689 52.6554L52.6411 43.0849L50.0347 40.479L50.0464 40.4673Z" fill="var(--fill-0, white)"/>
<path d="M54.1488 44.8613L46.7154 52.3284C46.1544 52.8893 45.8622 53.5671 45.8622 54.2799C45.8622 54.9927 46.1895 55.7406 46.7855 56.3483L47.2998 56.8624L56.7668 47.4672L54.1604 44.8613H54.1488Z" fill="var(--fill-0, white)"/>
</g>
</svg>
