<svg preserveAspectRatio="none" width="100%" height="100%" overflow="visible" style="display: block;" viewBox="0 0 56 20" fill="none" xmlns="http://www.w3.org/2000/svg">
<path id="Elios Type" d="M11.0068 5.33887H4.65918C3.9657 5.33887 3.37795 5.90529 3.37793 6.62305V10.5986L5.0957 8.87695H12.0303V12.292H3.37793V14.5742C3.37793 15.2696 3.96569 15.8584 4.65918 15.8584H12.0303V19.2461H4.6084C2.07505 19.2459 0 17.1652 0 14.625V6.54492C0 4.00477 2.07505 1.92399 4.6084 1.92383H12.0303L11.0068 5.33887ZM23.6533 19.2461H20.2754V4.28418H23.6533V19.2461ZM36.2363 4.28418C38.1321 4.28418 39.6424 5.79843 39.6426 7.69922V15.8584C39.6426 17.7313 38.1322 19.2461 36.2363 19.2461H29.4531C27.5852 19.2461 26.0752 17.7313 26.0752 15.8584V7.69922C26.0754 5.79843 27.5853 4.28418 29.4531 4.28418H36.2363ZM17.8379 19.2451H14.46V0H17.8379V19.2451ZM53.584 7.69336H46.1348C45.749 7.69336 45.4416 7.97363 45.4414 8.36035V9.38672C45.4414 9.74561 45.7489 10.0547 46.1348 10.0547H52.2246C54.1205 10.0547 55.6309 11.5968 55.6309 13.4697V15.8584H55.6367C55.6366 17.7312 54.1263 19.2451 52.2305 19.2451H42.0684L43.0918 15.8584H51.5654C51.951 15.8582 52.2303 15.5497 52.2305 15.1631V14.1367C52.2305 13.778 51.9511 13.4699 51.5654 13.4697H45.4463C43.5786 13.4695 42.0686 11.9273 42.0684 10.0547V7.69336C42.0684 5.79254 43.5785 4.27851 45.4463 4.27832H54.6074L53.584 7.69336ZM30.1465 7.69922C29.7606 7.69922 29.4531 7.98026 29.4531 8.36719V15.1689C29.4531 15.5559 29.7606 15.8643 30.1465 15.8643H35.5713C35.9571 15.8642 36.2363 15.5558 36.2363 15.1689V8.36719C36.2363 7.98029 35.9571 7.69926 35.5713 7.69922H30.1465ZM23.6533 2.15332L20.2754 3.17969V0H23.6533V2.15332Z" fill="#0F1012"/>
</svg>
