<svg preserveAspectRatio="none" width="100%" height="100%" overflow="visible" style="display: block;" viewBox="0 0 21 19" fill="none" xmlns="http://www.w3.org/2000/svg">
<path id="Vector" d="M19.608 9.5C19.608 14.1944 15.8024 18 11.108 18C10.0312 18 9.0012 17.7998 8.05318 17.4345C7.87985 17.3678 7.79318 17.3344 7.72426 17.3185C7.65647 17.3029 7.6074 17.2963 7.53789 17.2937C7.46721 17.291 7.38967 17.299 7.23459 17.315L2.11357 17.8444C1.62532 17.8948 1.3812 17.9201 1.2372 17.8322C1.11177 17.7557 1.02634 17.6279 1.0036 17.4828C0.977492 17.3161 1.09415 17.1002 1.32746 16.6684L2.96312 13.6408C3.09782 13.3915 3.16517 13.2668 3.19568 13.1469C3.2258 13.0286 3.23309 12.9432 3.22345 12.8214C3.21369 12.6981 3.15959 12.5376 3.0514 12.2166C2.76387 11.3636 2.60802 10.45 2.60802 9.5C2.60802 4.80558 6.4136 1 11.108 1C15.8024 1 19.608 4.80558 19.608 9.5Z" stroke="var(--stroke-0, black)" stroke-width="2" stroke-linecap="round" stroke-linejoin="round"/>
</svg>
