<svg preserveAspectRatio="none" width="100%" height="100%" overflow="visible" style="display: block;" viewBox="0 0 15 15" fill="none" xmlns="http://www.w3.org/2000/svg">
<path id="Instagram" d="M7.5 0C10.4959 0 11.9943 -4.24409e-05 13.0732 0.713867C13.5549 1.03259 13.9674 1.44514 14.2861 1.92676C15 3.00571 15 4.50405 15 7.5C15 10.4959 15 11.9943 14.2861 13.0732C13.9674 13.5549 13.5549 13.9674 13.0732 14.2861C11.9943 15 10.4959 15 7.5 15C4.50405 15 3.00571 15 1.92676 14.2861C1.44514 13.9674 1.03259 13.5549 0.713867 13.0732C-4.24409e-05 11.9943 0 10.4959 0 7.5C0 4.50405 -4.24386e-05 3.00571 0.713867 1.92676C1.03259 1.44514 1.44514 1.03259 1.92676 0.713867C3.00571 -4.24386e-05 4.50405 0 7.5 0ZM7.5 3.61719C5.35563 3.61719 3.61729 5.35565 3.61719 7.5C3.61719 9.64443 5.35557 11.3828 7.5 11.3828C9.64437 11.3827 11.3828 9.64439 11.3828 7.5C11.3827 5.3557 9.64431 3.61726 7.5 3.61719ZM7.5 4.93066C8.91879 4.93074 10.0692 6.08122 10.0693 7.5C10.0693 8.91887 8.91885 10.0693 7.5 10.0693C6.08109 10.0693 4.93066 8.91891 4.93066 7.5C4.93077 6.08117 6.08115 4.93066 7.5 4.93066ZM11.5361 2.50977C11.0324 2.50977 10.6242 2.91818 10.624 3.42188C10.624 3.92575 11.0323 4.33496 11.5361 4.33496C12.04 4.33492 12.4482 3.92573 12.4482 3.42188C12.448 2.9182 12.0398 2.5098 11.5361 2.50977Z" fill="var(--fill-0, #121212)"/>
</svg>
