<svg preserveAspectRatio="none" width="100%" height="100%" overflow="visible" style="display: block;" viewBox="0 0 30 30" fill="none" xmlns="http://www.w3.org/2000/svg">
<g id="Group 73">
<rect id="Social Media Icon" width="30" height="30" rx="4" fill="var(--fill-0, white)"/>
<path id="LinkedIn" d="M7.50002 9.51659C7.50002 9.03558 7.66894 8.63876 8.00677 8.32612C8.34461 8.01346 8.7838 7.85714 9.32434 7.85714C9.85523 7.85714 10.2848 8.01105 10.613 8.3189C10.9508 8.63636 11.1197 9.05001 11.1197 9.55988C11.1197 10.0216 10.9556 10.4064 10.6274 10.7143C10.2896 11.0317 9.84558 11.1905 9.29538 11.1905H9.2809C8.75001 11.1905 8.32048 11.0317 7.99229 10.7143C7.6641 10.3968 7.50002 9.99759 7.50002 9.51659ZM7.68824 22.1429V12.5036H10.9025V22.1429H7.68824ZM12.6834 22.1429H15.8977V16.7605C15.8977 16.4237 15.9363 16.164 16.0135 15.9812C16.1487 15.6542 16.3538 15.3776 16.6289 15.1515C16.904 14.9254 17.249 14.8124 17.6641 14.8124C18.7452 14.8124 19.2857 15.5387 19.2857 16.9913V22.1429H22.5V16.6162C22.5 15.1924 22.1622 14.1126 21.4865 13.3766C20.8108 12.6407 19.918 12.2727 18.8079 12.2727C17.5628 12.2727 16.5927 12.8066 15.8977 13.8745V13.9033H15.8832L15.8977 13.8745V12.5036H12.6834C12.7027 12.8114 12.7124 13.7686 12.7124 15.3752C12.7124 16.9817 12.7027 19.2376 12.6834 22.1429Z" fill="var(--fill-0, #121212)"/>
</g>
</svg>
