<svg preserveAspectRatio="none" width="100%" height="100%" overflow="visible" style="display: block;" viewBox="0 0 127 50" fill="none" xmlns="http://www.w3.org/2000/svg">
<g id="Elios Logo" clip-path="url(#clip0_79_266)">
<path id="Sun" d="M29.9326 47.2285V49.999H19.8145V49.3887C19.8145 48.0962 20.6799 47.1934 21.9248 47.1934L29.9326 47.2285ZM46.0996 39.1367L38.9482 46.3076L38.5156 45.873C37.5976 44.9612 37.5801 43.7045 38.4541 42.8281L38.4629 42.8369L44.1484 37.1807L46.0996 39.1367ZM5.67676 37.916C6.21528 37.916 6.7276 38.1377 7.15137 38.5625L12.793 44.2637L10.8418 46.2197L3.69043 39.0498L4.12305 38.6152C4.58202 38.1551 5.12069 37.9073 5.68555 37.9072L5.67676 37.916ZM29.8887 45.4756L19.8145 45.4404V44.8916C19.8145 43.5991 20.6799 42.6963 21.9248 42.6963L29.8887 42.6787V45.4756ZM40.9121 33.9844L42.8809 35.959L35.7295 43.0762L35.3408 42.6865C34.8907 42.2263 34.6436 41.66 34.6436 41.1201C34.6436 40.5801 34.8643 40.0665 35.2881 39.6416L40.9033 33.9844H40.9121ZM8.85742 34.7461C9.39595 34.7461 9.90827 34.9677 10.332 35.3926L15.9736 41.0225L14.0049 42.9971L6.90625 35.8262L7.29492 35.4365C7.75395 34.9764 8.29251 34.7285 8.85742 34.7285V34.7461ZM30.0479 40.916H19.8145V40.5088H19.8232C19.8233 39.1102 20.7596 38.1279 22.1016 38.1279H30.0479V40.916ZM39.7686 32.6387L32.5371 39.8896L32.2461 39.5967C31.2663 38.6052 31.2399 37.2421 32.1846 36.2949L37.7998 30.665L39.7686 32.6387ZM12.0713 31.5674C12.6538 31.5675 13.21 31.8065 13.6602 32.2666L19.2842 37.9062L17.3154 39.8799L10.084 32.6299L10.376 32.3379C10.8704 31.8511 11.4709 31.5762 12.0801 31.5762L12.0713 31.5674ZM9.46484 19.8838C10.8598 19.8838 11.8398 20.8224 11.8398 22.168V30.1348H9.05859V19.8838H9.46484ZM45.3203 30.1338H44.7734C43.4844 30.1338 42.584 29.2658 42.584 28.0176H42.5928L42.5752 20.0332H45.3564L45.3203 30.1338ZM49.8564 30.126H49.248C47.959 30.126 47.0576 29.258 47.0576 28.0098L47.0938 19.9805H49.8564V30.126ZM40.8076 30.125H40.4014C39.0065 30.1249 38.0264 29.1863 38.0264 27.8408V19.8652H40.8076V30.125ZM0.609375 19.875C1.89809 19.8752 2.79871 20.7423 2.79883 21.9902L2.76367 30.0195H0V19.875H0.609375ZM5.09375 19.875C6.38271 19.875 7.28308 20.7421 7.2832 21.9902L7.30078 29.9756H4.52051L4.55566 19.875H5.09375ZM17.6162 10.4014C18.1018 10.8883 18.3573 11.4556 18.375 12.0576C18.3837 12.6595 18.1367 13.2439 17.6777 13.7041L12.0615 19.333L10.0938 17.3604L17.3242 10.1094L17.6162 10.4014ZM39.7793 17.3682L39.4883 17.6602C38.9939 18.1471 38.3934 18.4219 37.7842 18.4219L37.793 18.4307C37.2104 18.4307 36.6631 18.1915 36.2041 17.7314L30.5801 12.0918L32.5488 10.1182L39.7793 17.3682ZM14.5215 7.31152C15.4309 8.22335 15.4483 9.48101 14.5742 10.3574L8.95898 16.0137L6.99023 14.04L14.1328 6.92285L14.5215 7.31152ZM42.9561 14.1729L42.5762 14.5615C42.1171 15.0218 41.5786 15.2704 41.0137 15.2705H41.0049C40.4664 15.2705 39.954 15.0489 39.5303 14.624L33.8887 8.98438L35.8574 7.01074L42.9561 14.1729ZM11.3496 4.125C12.2589 5.03682 12.2764 6.2945 11.4023 7.1709V7.16211L5.7168 12.8184L3.76465 10.8623L10.917 3.69141L11.3496 4.125ZM46.1689 10.9414L45.7363 11.376C45.2773 11.8361 44.7123 12.0839 44.1738 12.084C43.6353 12.084 43.123 11.8624 42.6992 11.4375L37.0576 5.73633L37.0664 5.72754L39.0176 3.77148L46.1689 10.9414ZM30.0479 9.48926C30.0479 10.888 29.1115 11.8711 27.7695 11.8711H19.8145V9.08203H30.0479V9.48926ZM30.0381 4.55859V5.10742C30.0381 6.39988 29.1726 7.30269 27.9277 7.30273L19.9639 7.32031V4.52344L30.0381 4.55859ZM30.0449 0.611328C30.0448 1.90369 29.1794 2.80661 27.9346 2.80664L19.9268 2.77148V0H30.0449V0.611328Z" fill="var(--fill-0, #09141F)"/>
<path id="Elios Type" d="M75.4863 20.1309H68.2724C67.4846 20.1311 66.8173 20.7753 66.8173 21.5908V26.1084L68.7685 24.1523H76.6494V28.0332H66.8173V30.626C66.8173 31.416 67.4846 32.0857 68.2724 32.0859H76.6494V35.9346H68.2158C65.3369 35.9346 62.9795 33.5702 62.9795 30.6836V21.501C62.9796 18.6145 65.337 16.251 68.2158 16.251H76.6494L75.4863 20.1309ZM89.8574 35.9346H86.0185V18.9336H89.8574V35.9346ZM104.155 18.9336C106.31 18.9336 108.026 20.6535 108.026 22.8135V32.085C108.026 34.2133 106.31 35.9346 104.155 35.9346H96.4472C94.3246 35.9346 92.6084 34.2133 92.6084 32.085V22.8135C92.6085 20.6535 94.3247 18.9336 96.4472 18.9336H104.155ZM83.249 35.9336H79.4111V14.0645H83.249V35.9336ZM123.868 22.8066H115.403C114.965 22.8066 114.615 23.1258 114.615 23.5654V24.7314C114.615 25.1392 114.965 25.4893 115.403 25.4893H122.324C124.478 25.4894 126.194 27.2419 126.194 29.3701V32.085H126.2C126.2 34.2131 124.484 35.9336 122.33 35.9336H110.783L111.946 32.085H121.574C122.012 32.0849 122.33 31.7344 122.33 31.2949V30.1289C122.33 29.7211 122.013 29.3702 121.574 29.3701H114.621C112.499 29.3699 110.783 27.6174 110.783 25.4893V22.8066C110.783 20.6467 112.499 18.926 114.621 18.9258H125.031L123.868 22.8066ZM97.2353 22.8135C96.7968 22.8135 96.4472 23.1326 96.4472 23.5723V31.3018C96.4473 31.7413 96.7969 32.0918 97.2353 32.0918H103.399C103.838 32.0918 104.155 31.7413 104.155 31.3018V23.5723C104.155 23.1326 103.838 22.8135 103.399 22.8135H97.2353ZM89.8574 16.5117L86.0185 17.6777V14.0645H89.8574V16.5117Z" fill="var(--fill-0, #09141F)"/>
</g>
<defs>
<clipPath id="clip0_79_266">
<rect width="126.2" height="49.999" fill="white"/>
</clipPath>
</defs>
</svg>
