<svg preserveAspectRatio="none" width="100%" height="100%" overflow="visible" style="display: block;" viewBox="0 0 1242 1038" fill="none" xmlns="http://www.w3.org/2000/svg">
<g id="Group 4665">
<path id="Intersect" d="M361.01 0C426.216 3.87595e-05 485.15 9.93607 535.05 27.9844L498.506 232.624L849.563 659.591H704.323V1036.97L702.357 1037.77H696.294L415.67 696.468L360.764 1003.92L360.922 1003.03L302.671 997.901C302.548 997.891 302.425 997.879 302.302 997.868V859.215L153.921 963.406C44.8171 918.226 -14.3727 835.742 2.99514 738.489L16.9473 660.362L18.0469 659.591H17.085L67.499 377.296L302.302 377.296L302.302 0L361.01 0ZM924.772 81.1982C1049.55 168.819 1068.59 285.073 979.466 377.296H1241.65V418.52C1241.65 560.115 1106.36 659.591 912.37 659.591H859.334L859.334 68.8486L883.26 52.0488L924.772 81.1982Z" fill="url(#paint0_linear_102_1938)" fill-opacity="0.9"/>
</g>
<defs>
<linearGradient id="paint0_linear_102_1938" x1="881.943" y1="487.769" x2="-73.6272" y2="716.221" gradientUnits="userSpaceOnUse">
<stop offset="0.182692" stop-color="#FF6908"/>
<stop offset="0.399038" stop-color="#FFE96B"/>
<stop offset="1" stop-color="white"/>
</linearGradient>
</defs>
</svg>
