<svg preserveAspectRatio="none" width="100%" height="100%" overflow="visible" style="display: block;" viewBox="0 0 1478 1038" fill="none" xmlns="http://www.w3.org/2000/svg">
<g id="Group 4664">
<path id="Intersect" d="M597.219 0.00195312C773.697 0.00195312 904.231 72.7607 934.069 182.235L1119.19 52.248L1173.99 90.7295C1286.99 177.123 1301.61 288.381 1215.67 377.299H1224.74L1223.58 378.116H1477.86V418.523C1477.85 560.118 1342.57 659.594 1148.58 659.594H940.533V660.41H939.33V1037.71H880.622C704.139 1037.71 573.603 964.951 543.77 855.472L358.661 985.451L303.874 946.979C190.866 860.587 176.24 749.33 262.166 660.41H253.092L254.255 659.594H0V619.187C0.000330613 477.591 135.283 378.116 329.274 378.116L537.31 378.116V377.299H538.511V0.00195312L597.219 0.00195312Z" fill="url(#paint0_linear_102_1967)" fill-opacity="0.8"/>
</g>
<defs>
<linearGradient id="paint0_linear_102_1967" x1="1477.86" y1="518.858" x2="146.667" y2="689.269" gradientUnits="userSpaceOnUse">
<stop stop-color="#FF6908"/>
<stop offset="1" stop-color="white"/>
</linearGradient>
</defs>
</svg>
