<svg preserveAspectRatio="none" width="100%" height="100%" overflow="visible" style="display: block;" viewBox="0 0 1242 1038" fill="none" xmlns="http://www.w3.org/2000/svg">
<g id="Group 4665">
<path id="Intersect" d="M361.011 0.000976562C426.217 0.00102462 485.15 9.93628 535.05 27.9844L498.505 232.626L849.562 659.59H704.324V1036.97L702.354 1037.77H696.292L415.67 696.47L360.764 1003.92L360.922 1003.03L302.67 997.901C302.548 997.891 302.425 997.879 302.303 997.868V859.217L153.923 963.406C44.8183 918.226 -14.3726 835.744 2.99517 738.49L16.9473 660.363L18.0499 659.59H17.086L67.4991 377.295L302.303 377.295L302.303 0.000976562L361.011 0.000976562ZM924.773 81.1992C1049.55 168.819 1068.59 285.072 979.469 377.295H1241.65V418.519C1241.65 560.114 1106.36 659.59 912.371 659.59H859.333L859.333 68.8506L883.261 52.0498L924.773 81.1992Z" fill="url(#paint0_linear_102_1956)" fill-opacity="0.9"/>
</g>
<defs>
<linearGradient id="paint0_linear_102_1956" x1="881.943" y1="487.77" x2="-73.6272" y2="716.222" gradientUnits="userSpaceOnUse">
<stop offset="0.182692" stop-color="#FF6908"/>
<stop offset="0.399038" stop-color="#FFE96B"/>
<stop offset="1" stop-color="white"/>
</linearGradient>
</defs>
</svg>
