<svg preserveAspectRatio="none" width="100%" height="100%" overflow="visible" style="display: block;" viewBox="0 0 15 13" fill="none" xmlns="http://www.w3.org/2000/svg">
<path id="Twitter" d="M10.0225 0.0027014V0H10.7259L10.9829 0.0513266C11.1542 0.0846484 11.3097 0.128317 11.4495 0.182345C11.5893 0.236373 11.7245 0.29941 11.8553 0.371443C11.986 0.443476 12.1046 0.516873 12.211 0.591607C12.3165 0.66545 12.4112 0.74379 12.4951 0.826629C12.578 0.910372 12.7074 0.931984 12.8832 0.891463C13.0591 0.850941 13.2484 0.794658 13.4513 0.722625C13.6542 0.650592 13.8548 0.56955 14.0532 0.479499C14.2516 0.389448 14.3724 0.332272 14.4157 0.30796C14.4581 0.282756 14.4806 0.269249 14.4833 0.267439L14.486 0.263387L14.4995 0.256633L14.5131 0.24988L14.5266 0.243126L14.5401 0.236373L14.5428 0.232321L14.5469 0.229619L14.551 0.226918L14.5537 0.222866L14.5672 0.218814L14.5807 0.216112L14.578 0.236373L14.5739 0.256633L14.5672 0.276894L14.5604 0.297154L14.5537 0.310661L14.5469 0.324168L14.5401 0.344429C14.5356 0.357936 14.5311 0.375941 14.5266 0.398457C14.5221 0.420973 14.4793 0.511011 14.3981 0.668597C14.317 0.826183 14.2155 0.986012 14.0938 1.1481C13.972 1.31018 13.8629 1.43263 13.7665 1.51549C13.6691 1.59923 13.6046 1.65776 13.573 1.69108C13.5415 1.72529 13.5032 1.7568 13.4581 1.78563L13.3904 1.8302L13.3769 1.83695L13.3634 1.84371L13.3607 1.84776L13.3566 1.85046L13.3526 1.85316L13.3499 1.85721L13.3363 1.86397L13.3228 1.87072L13.3201 1.87477L13.3161 1.87747L13.312 1.88018L13.3093 1.88423L13.3066 1.88828L13.3025 1.89098L13.2985 1.89368L13.2958 1.89773H13.3634L13.7421 1.81669C13.9946 1.76266 14.2358 1.69739 14.4657 1.62084L14.8309 1.49928L14.8715 1.48577L14.8918 1.47902L14.9053 1.47226L14.9188 1.46551L14.9324 1.45876L14.9459 1.452L14.9729 1.44795L15 1.44525V1.47226L14.9932 1.47497L14.9865 1.47902L14.9838 1.48307L14.9797 1.48577L14.9757 1.48847L14.9729 1.49252L14.9703 1.49658L14.9662 1.49928L14.9621 1.50198L14.9594 1.50603L14.9567 1.51008L14.9527 1.51278L14.9459 1.52629L14.9391 1.5398L14.9351 1.5425C14.9333 1.5452 14.876 1.62173 14.7633 1.77212C14.6506 1.9234 14.5897 1.99993 14.5807 2.00174C14.5717 2.00444 14.5591 2.01795 14.5428 2.04226C14.5275 2.06746 14.4319 2.16787 14.2561 2.34347C14.0803 2.51906 13.908 2.67528 13.7394 2.81216C13.5699 2.94993 13.4842 3.11921 13.4824 3.32002C13.4797 3.51993 13.4694 3.74595 13.4513 3.99807C13.4333 4.25021 13.3995 4.52259 13.3499 4.81525C13.3003 5.1079 13.2236 5.43883 13.1199 5.80801C13.0162 6.1772 12.89 6.53739 12.7412 6.88857C12.5924 7.23976 12.4369 7.55492 12.2746 7.83406C12.1123 8.11321 11.9635 8.34959 11.8282 8.54318C11.693 8.73678 11.5555 8.91912 11.4157 9.09022C11.2759 9.26131 11.0992 9.45401 10.8855 9.66832C10.6709 9.88173 10.5537 9.99879 10.5338 10.0195C10.5131 10.0393 10.4247 10.1132 10.2687 10.241C10.1136 10.3698 9.9468 10.4985 9.76826 10.6273C9.59063 10.7552 9.42741 10.8619 9.27863 10.9474C9.12985 11.033 8.95041 11.1307 8.74031 11.2405C8.53112 11.3513 8.30478 11.4539 8.06132 11.5485C7.81785 11.643 7.56087 11.7308 7.29035 11.8119C7.01984 11.8929 6.75835 11.956 6.50586 12.001C6.25339 12.046 5.96709 12.0843 5.64698 12.1158L5.16682 12.1631V12.1698H4.28765V12.1631L4.17268 12.1563C4.09604 12.1518 4.03292 12.1473 3.98332 12.1428C3.93373 12.1383 3.74662 12.1135 3.422 12.0685C3.09738 12.0235 2.84266 11.9785 2.6578 11.9334C2.47296 11.8884 2.19793 11.8029 1.83273 11.6768C1.46754 11.5507 1.15509 11.4233 0.895401 11.2946C0.636614 11.1667 0.474306 11.0856 0.408476 11.0514C0.343553 11.0181 0.270514 10.9767 0.18936 10.9272L0.0676285 10.8529L0.0649369 10.8488L0.0608656 10.8461L0.0568079 10.8434L0.0541028 10.8394L0.0405771 10.8326L0.0270514 10.8259L0.0243598 10.8218L0.0202885 10.8191L0.0162308 10.8164L0.0135257 10.8124L0.0108341 10.8083L0.00676285 10.8056H0V10.7786L0.0135257 10.7813L0.0270514 10.7853L0.087917 10.7921C0.128494 10.7966 0.238959 10.8034 0.419297 10.8124C0.599648 10.8214 0.791253 10.8214 0.994139 10.8124C1.19702 10.8034 1.40443 10.7831 1.61632 10.7516C1.82823 10.7201 2.07845 10.666 2.367 10.5895C2.65555 10.5129 2.92066 10.422 3.16232 10.3167C3.40308 10.2104 3.5744 10.1312 3.6763 10.0789C3.77728 10.0276 3.93147 9.93215 4.13886 9.79258L4.44995 9.58322L4.45266 9.57917L4.45672 9.57647L4.46079 9.57377L4.46348 9.56971L4.46619 9.56566L4.47024 9.56296L4.47431 9.56026L4.47701 9.55621L4.49053 9.55216L4.50406 9.54945L4.50676 9.53595L4.51082 9.52244L4.51489 9.51974L4.51758 9.51569L4.40938 9.50893C4.33725 9.50444 4.26736 9.49992 4.19973 9.49543C4.1321 9.49093 4.02615 9.47067 3.88188 9.43464C3.73761 9.39862 3.58206 9.34459 3.41524 9.27256C3.24843 9.20053 3.08612 9.11497 2.92831 9.01593C2.77052 8.91688 2.65645 8.83447 2.58611 8.76875C2.51669 8.7039 2.42651 8.61207 2.3156 8.49321C2.2056 8.37345 2.11001 8.25053 2.02885 8.12447C1.9477 7.9984 1.87016 7.85296 1.79623 7.68819L1.68395 7.44236L1.67719 7.4221L1.67042 7.40184L1.66637 7.38833L1.66366 7.37483L1.68395 7.37753L1.70424 7.38158L1.85302 7.40184C1.95222 7.41535 2.10776 7.41985 2.31966 7.41535C2.53156 7.41085 2.67809 7.40184 2.75924 7.38833C2.8404 7.37483 2.89 7.36582 2.90803 7.36132L2.93508 7.35457L2.96889 7.34781L3.00271 7.34106L3.00541 7.33701L3.00947 7.33431L3.01354 7.3316L3.01623 7.32755L2.98918 7.3208L2.96213 7.31404L2.93508 7.30729L2.90803 7.30054L2.88097 7.29378C2.86294 7.28929 2.83139 7.28028 2.78629 7.26677C2.74121 7.25326 2.61948 7.20373 2.4211 7.11819C2.22273 7.03265 2.06493 6.94936 1.9477 6.86831C1.83018 6.78704 1.71813 6.69815 1.61226 6.60223C1.50676 6.50497 1.3909 6.37981 1.26465 6.22673C1.13842 6.07366 1.02571 5.89581 0.92651 5.6932C0.827326 5.4906 0.752935 5.297 0.703336 5.1124C0.653937 4.92889 0.621346 4.74127 0.605965 4.55186L0.581605 4.26821L0.595131 4.27092L0.608656 4.27497L0.622182 4.28172L0.635708 4.28847L0.649234 4.29523L0.662759 4.30198L0.872408 4.39653C1.01218 4.45957 1.18576 4.5136 1.39315 4.55862C1.60055 4.60363 1.72453 4.62841 1.7651 4.6329L1.82597 4.63966H1.9477L1.94501 4.63561L1.94094 4.6329L1.93688 4.6302L1.93417 4.62615L1.93148 4.6221L1.92741 4.6194L1.92335 4.6167L1.92065 4.61264L1.90712 4.60589L1.8936 4.59914L1.89091 4.59508L1.88683 4.59238L1.88278 4.58968L1.88007 4.58563L1.86655 4.57888L1.85302 4.57212L1.85033 4.56807C1.84762 4.56626 1.80885 4.53745 1.73399 4.48162C1.66005 4.4249 1.58251 4.35151 1.50135 4.26146C1.4202 4.17141 1.33904 4.07686 1.25789 3.97781C1.17659 3.87854 1.10417 3.77233 1.04148 3.6604C0.978368 3.54785 0.911632 3.40466 0.841298 3.23088C0.771871 3.05799 0.719121 2.88375 0.683048 2.70816C0.646988 2.53256 0.6267 2.35923 0.622182 2.18814C0.617678 2.01704 0.622182 1.87072 0.635708 1.74916C0.649234 1.62759 0.676285 1.49027 0.716862 1.33719C0.757439 1.18412 0.816059 1.02203 0.892696 0.850941L1.00766 0.594308L1.01443 0.574048L1.02119 0.553787L1.02526 0.551086L1.02795 0.547034L1.03066 0.542982L1.03472 0.54028L1.03879 0.542982L1.04148 0.547034L1.04418 0.551086L1.04824 0.553787L1.05231 0.556489L1.055 0.560541L1.05771 0.564593L1.06177 0.567294L1.06853 0.580801L1.07529 0.594308L1.07936 0.59701L1.08206 0.601062L1.26465 0.803667C1.38638 0.938737 1.53066 1.08957 1.69748 1.25615C1.8643 1.42273 1.95672 1.50918 1.97475 1.51549C1.9928 1.52269 2.01533 1.54339 2.04238 1.57762C2.06943 1.61094 2.15961 1.69063 2.31289 1.81669C2.46619 1.94275 2.66682 2.08909 2.91479 2.25567C3.16277 2.42225 3.43779 2.58659 3.73986 2.74868C4.04194 2.91076 4.36656 3.05708 4.71371 3.18765C5.06087 3.31823 5.30433 3.40377 5.44409 3.44429C5.58387 3.48481 5.82281 3.53658 6.16096 3.59962C6.4991 3.66265 6.75384 3.70318 6.92516 3.72118C7.09649 3.73919 7.21371 3.74955 7.27683 3.75225L7.37151 3.75495L7.36881 3.73469L7.36474 3.71443L7.33769 3.54559C7.31966 3.43304 7.31064 3.27545 7.31064 3.07284C7.31064 2.87024 7.32642 2.6834 7.35798 2.5123C7.38955 2.34121 7.43689 2.16787 7.5 1.99228C7.56312 1.81669 7.6249 1.67576 7.6853 1.56951C7.74663 1.46416 7.82688 1.34395 7.92606 1.20888C8.02526 1.07381 8.15375 0.934239 8.31154 0.79016C8.46935 0.646081 8.64968 0.517764 8.85257 0.40521C9.05546 0.292656 9.24257 0.207103 9.41389 0.148577C9.58522 0.0900512 9.72949 0.0517724 9.84671 0.0337675C9.96394 0.0157627 10.0225 0.0054028 10.0225 0.0027014V0.0027014Z" fill="var(--fill-0, #121212)"/>
</svg>
