<svg preserveAspectRatio="none" width="100%" height="100%" overflow="visible" style="display: block;" viewBox="0 0 152 60" fill="none" xmlns="http://www.w3.org/2000/svg">
<g id="Elios Logo" clip-path="url(#clip0_92_608)">
<path id="Sun" d="M35.9189 56.6758V60H23.7773V59.2676C23.7773 57.7166 24.8157 56.6328 26.3096 56.6328L35.9189 56.6758ZM55.3203 46.9648L46.7383 55.5693L46.2197 55.0488C45.1179 53.9546 45.0966 52.4462 46.1455 51.3945L46.1562 51.4053L52.9795 44.6172L55.3203 46.9648ZM6.8125 45.5C7.45864 45.5001 8.0726 45.7666 8.58105 46.2764L15.3516 53.1172L13.0098 55.4648L4.42773 46.8604L4.94727 46.3398C5.49809 45.7875 6.14434 45.4904 6.82227 45.4902L6.8125 45.5ZM35.8662 54.5723L23.7773 54.5293V53.8711C23.7773 52.3201 24.8157 51.2364 26.3096 51.2363L35.8662 51.2148V54.5723ZM49.0947 40.7822L51.458 43.1514L42.876 51.6924L42.4102 51.2256C41.8698 50.6732 41.5723 49.9928 41.5723 49.3447C41.5724 48.697 41.8375 48.081 42.3457 47.5713L49.085 40.7822H49.0947ZM10.6289 41.6963C11.2751 41.6963 11.8899 41.9618 12.3984 42.4717L19.168 49.2285L16.8057 51.5977L8.28711 42.9922L8.75391 42.5254C9.30482 41.9731 9.95088 41.6758 10.6289 41.6758V41.6963ZM36.0566 49.1006H23.7773V48.6113H23.7881C23.7883 46.9331 24.9112 45.7539 26.5215 45.7539H36.0566V49.1006ZM47.7227 39.168L39.0459 47.8682L38.6963 47.5176C37.5202 46.3278 37.4884 44.6914 38.6221 43.5547L45.3604 36.7988L47.7227 39.168ZM14.4844 37.8818C15.1836 37.8818 15.8513 38.1684 16.3916 38.7207L23.1406 45.4883L20.7783 47.8574L12.1006 39.1562L12.4502 38.8057C13.0435 38.2215 13.7641 37.8926 14.4951 37.8926L14.4844 37.8818ZM11.3574 23.8604C13.0314 23.8604 14.208 24.9868 14.208 26.6016V36.1631H10.8701V23.8604H11.3574ZM54.3857 36.1611H53.7295C52.1826 36.1611 51.1016 35.12 51.1016 33.6221H51.1123L51.0908 24.04H54.4287L54.3857 36.1611ZM59.8281 36.1514H59.0977C57.5508 36.1514 56.4697 35.1102 56.4697 33.6123L56.5127 23.9775H59.8281V36.1514ZM48.9697 36.1504H48.4824C46.8085 36.1504 45.632 35.0247 45.6318 33.4102V23.8379H48.9697V36.1504ZM0.730469 23.8506C2.27735 23.8506 3.3584 24.8918 3.3584 26.3896L3.31543 36.0244H0V23.8506H0.730469ZM6.11328 23.8506C7.66001 23.8507 8.74023 24.8918 8.74023 26.3896L8.76172 35.9717H5.42383L5.4668 23.8506H6.11328ZM21.1396 12.4824C21.7222 13.0666 22.0296 13.7465 22.0508 14.4688C22.0614 15.1911 21.7648 15.8929 21.2139 16.4453L14.4648 23.2119L14.4746 23.2012L12.1123 20.832L20.79 12.1318L21.1396 12.4824ZM47.7363 20.8418L47.3867 21.1924C46.7934 21.7767 46.0729 22.1064 45.3418 22.1064L45.3525 22.1172C44.6533 22.1172 43.9962 21.8297 43.4453 21.2773L36.6963 14.5107L39.0596 12.1416L47.7363 20.8418ZM17.4258 8.77441C18.517 9.86858 18.538 11.377 17.4893 12.4287L10.751 19.2168L8.3877 16.8486L16.959 8.30664L17.4258 8.77441ZM51.5479 17.0078L51.0928 17.4746C50.5418 18.027 49.8949 18.3252 49.2168 18.3252H49.2061C48.5599 18.3251 47.946 18.0586 47.4375 17.5488L40.667 10.7822L43.0293 8.41309L51.5479 17.0078ZM13.6182 4.9502C14.7095 6.0444 14.7306 7.55278 13.6816 8.60449V8.59375L6.8584 15.3828L4.51758 13.0352L13.0996 4.42969L13.6182 4.9502ZM55.4033 13.1309L54.8848 13.6514C54.3338 14.2037 53.6551 14.501 53.0088 14.501C52.3628 14.5009 51.7486 14.2352 51.2402 13.7256L44.4697 6.88379L44.4805 6.87305L46.8213 4.52539L55.4033 13.1309ZM36.0566 11.3877C36.0565 13.066 34.9336 14.2451 33.3232 14.2451H23.7773V10.8984H36.0566V11.3877ZM36.0459 5.4707V6.12891C36.0459 7.67985 35.0075 8.76358 33.5137 8.76367L23.957 8.78516V5.42773L36.0459 5.4707ZM36.0537 0.733398C36.0537 2.28437 35.0154 3.36816 33.5215 3.36816L23.9121 3.3252V0H36.0537V0.733398Z" fill="var(--fill-0, #09141F)"/>
<path id="Elios Type" d="M90.5848 24.1582H81.9296C80.984 24.1582 80.1826 24.9305 80.1825 25.9092V31.3311L82.5243 28.9834H91.9803V33.6406H80.1825V36.7529C80.1827 37.701 80.984 38.5039 81.9296 38.5039H91.9803V43.1221H81.8602C78.4056 43.1219 75.576 40.2852 75.576 36.8213V25.8027C75.576 22.3388 78.4056 19.5021 81.8602 19.502H91.9803L90.5848 24.1582ZM107.83 43.1221H103.223V22.7207H107.83V43.1221ZM124.989 22.7207C127.574 22.7209 129.633 24.785 129.634 27.377V38.5029C129.634 41.0568 127.574 43.1219 124.989 43.1221H115.738C113.191 43.1221 111.132 41.0569 111.132 38.5029V27.377C111.132 24.7849 113.191 22.7207 115.738 22.7207H124.989ZM99.9012 43.1211H95.2948V16.8779H99.9012V43.1211ZM148.644 27.3691H138.486C137.96 27.3692 137.541 27.7517 137.541 28.2793V29.6787C137.541 30.1679 137.96 30.5878 138.486 30.5879H146.792C149.377 30.5881 151.435 32.6913 151.435 35.2451V38.5029H151.443C151.443 41.0569 149.384 43.1211 146.799 43.1211H132.942L134.338 38.5029H145.891C146.418 38.5029 146.799 38.0822 146.799 37.5547V36.1553C146.799 35.6659 146.418 35.2451 145.891 35.2451H137.549C135.001 35.2451 132.942 33.1419 132.942 30.5879V27.3691C132.942 24.7769 135.001 22.7119 137.549 22.7119H150.04L148.644 27.3691ZM116.683 27.377C116.157 27.3771 115.738 27.7596 115.738 28.2871V37.5625C115.738 38.09 116.157 38.5106 116.683 38.5107H124.081C124.607 38.5107 124.989 38.0901 124.989 37.5625V28.2871C124.989 27.7596 124.607 27.377 124.081 27.377H116.683ZM107.83 19.8145L103.223 21.2139V16.8779H107.83V19.8145Z" fill="var(--fill-0, #09141F)"/>
</g>
<defs>
<clipPath id="clip0_92_608">
<rect width="151.443" height="60" fill="white"/>
</clipPath>
</defs>
</svg>
