<svg preserveAspectRatio="none" width="100%" height="100%" overflow="visible" style="display: block;" viewBox="0 0 1478 1038" fill="none" xmlns="http://www.w3.org/2000/svg">
<g id="Group 4664">
<path id="Intersect" d="M597.219 0C773.696 0.000193047 904.23 72.7591 934.068 182.233L1119.18 52.2471L1173.99 90.7275C1286.99 177.122 1301.6 288.379 1215.67 377.298H1224.74L1223.58 378.115L1477.85 378.115V418.521C1477.85 560.117 1342.57 659.593 1148.58 659.593H940.532V660.41H939.33V1037.71H880.622C704.139 1037.71 573.603 964.951 543.77 855.471L358.661 985.45L303.878 946.982C190.866 860.59 176.239 749.331 262.165 660.41H253.088L254.252 659.593H0L0 619.186C0.0003112 477.59 135.284 378.115 329.275 378.115L537.31 378.115V377.298H538.511V0L597.219 0Z" fill="url(#paint0_linear_102_1978)" fill-opacity="0.8"/>
</g>
<defs>
<linearGradient id="paint0_linear_102_1978" x1="1477.85" y1="518.857" x2="146.666" y2="689.267" gradientUnits="userSpaceOnUse">
<stop stop-color="#FF6908"/>
<stop offset="1" stop-color="white"/>
</linearGradient>
</defs>
</svg>
