<svg preserveAspectRatio="none" width="100%" height="100%" overflow="visible" style="display: block;" viewBox="0 0 189 30" fill="none" xmlns="http://www.w3.org/2000/svg">
<g id="Group">
<path id="Vector" d="M7.18109 7.85848C7.04233 7.30213 7.07702 6.74577 7.1464 6.43282C7.31986 5.56352 7.90962 4.62467 9.60951 4.62467C11.2053 4.62467 12.1073 5.59829 12.1073 7.09349C12.1073 7.58031 12.1073 8.76256 12.1073 8.76256H18.8375V6.85009C18.8722 0.938818 13.5644 -3.14713e-05 9.74827 -3.14713e-05C4.96083 -3.14713e-05 1.04067 1.59949 0.31215 6.01556C0.104 7.23258 0.0693086 8.31052 0.381533 9.66664C1.56105 15.1954 11.1706 16.7949 12.5583 20.3069C12.8358 20.9676 12.7318 21.8021 12.6277 22.3237C12.4195 23.2278 11.7951 24.1666 9.99111 24.1666C8.29122 24.1666 7.28517 23.193 7.28517 21.6978V19.0899H-7.47157e-05V21.1762C-7.47157e-05 27.2266 4.75268 29.0347 9.81766 29.0347C14.7092 29.0347 18.6987 27.3657 19.3579 22.8453C19.6701 20.5156 19.4272 18.9856 19.3232 18.4292C18.213 12.6918 7.94431 11.0228 7.18109 7.85848ZM95.055 7.89326C94.9509 7.37167 94.9856 6.78055 95.0203 6.50237C95.2285 5.63306 95.7835 4.69421 97.4834 4.69421C99.0445 4.69421 99.9465 5.66784 99.9465 7.12827C99.9465 7.61508 99.9465 8.79733 99.9465 8.79733H106.607V6.91963C106.607 1.07791 101.404 0.173829 97.6222 0.173829C92.8694 0.173829 88.984 1.73858 88.2554 6.11987C88.082 7.30213 88.0126 8.38007 88.3248 9.73618C89.4696 15.1954 98.9751 16.7949 100.363 20.2722C100.606 20.9328 100.536 21.7674 100.398 22.2542C100.189 23.1582 99.5996 24.0623 97.7956 24.0623C96.1304 24.0623 95.0897 23.0887 95.0897 21.6283V19.0204H87.9085V21.0719C87.9085 27.0527 92.5919 28.8609 97.6222 28.8609C102.444 28.8609 106.434 27.1918 107.058 22.741C107.371 20.4112 107.128 18.916 107.024 18.3597C105.948 12.7266 95.8182 11.0575 95.055 7.89326ZM156.39 22.6714L150.041 0.869273H140.015V27.6786H146.641L146.26 5.18102L153.094 27.6786H162.704V0.869273H156.043L156.39 22.6714ZM28.9327 0.869273L23.9025 27.9568H31.1877L34.9691 2.88606L38.6464 27.9568H45.897L40.9361 0.869273H28.9327ZM69.7301 0.869273L66.3303 22.0455L62.9305 0.869273H51.8986L51.3088 27.9568H58.0737L58.2472 2.88606L62.8959 27.9568H69.7301L74.3788 2.88606L74.5522 27.9568H81.3171L80.7274 0.869273H69.7301ZM132.522 0.869273H125.688V20.8981C125.688 21.2458 125.688 21.6283 125.618 21.9412C125.48 22.6019 124.924 23.9232 123.016 23.9232C121.143 23.9232 120.588 22.6367 120.449 21.9412C120.38 21.663 120.38 21.2458 120.38 20.8981V0.869273H113.546V20.2722C113.546 20.759 113.58 21.8021 113.615 22.0455C114.101 27.0875 118.056 28.7566 123.016 28.7566C127.977 28.7566 131.967 27.1223 132.453 22.0455C132.487 21.7674 132.557 20.759 132.522 20.2722V0.869273ZM179.425 12.7266V16.6906H182.2V20.6199C182.2 20.9676 182.2 21.3501 182.131 21.663C182.027 22.3933 181.333 23.6451 179.356 23.6451C177.413 23.6451 176.719 22.3933 176.615 21.663C176.58 21.3501 176.546 20.9676 176.546 20.6199V8.24098C176.546 7.78894 176.58 7.3369 176.684 6.95441C176.823 6.29373 177.413 5.00716 179.356 5.00716C181.437 5.00716 181.923 6.36328 182.062 6.95441C182.131 7.3369 182.131 7.99757 182.131 7.99757V9.49278H188.931V8.5887C188.931 8.5887 188.965 7.64985 188.896 6.78055C188.375 1.73858 184.178 0.139057 179.39 0.139057C174.603 0.139057 170.509 1.77335 169.92 6.81532C169.85 7.26736 169.781 8.10189 169.781 8.62347V19.994C169.781 20.4808 169.781 20.8633 169.885 21.7674C170.336 26.705 174.603 28.4436 179.39 28.4436C184.212 28.4436 188.445 26.705 188.896 21.7674C188.965 20.8633 189 20.4808 189 19.994V12.7266H179.425Z" fill="var(--fill-0, white)"/>
</g>
</svg>
