<svg preserveAspectRatio="none" width="100%" height="100%" overflow="visible" style="display: block;" viewBox="0 0 142 23" fill="none" xmlns="http://www.w3.org/2000/svg">
<g id="Group">
<path id="Vector" d="M5.37366 5.96163C5.26982 5.53957 5.29578 5.11751 5.3477 4.8801C5.4775 4.22062 5.91882 3.50839 7.19084 3.50839C8.38499 3.50839 9.05994 4.247 9.05994 5.38129C9.05994 5.7506 9.05994 6.64748 9.05994 6.64748H14.0961V5.19664C14.1221 0.71223 10.1503 0 7.29468 0C3.71224 0 0.778792 1.21343 0.233638 4.56355C0.0778792 5.48681 0.0519195 6.30456 0.285557 7.33333C1.16819 11.5276 8.35903 12.741 9.39742 15.4053C9.6051 15.9065 9.52722 16.5396 9.44934 16.9353C9.29358 17.6211 8.82631 18.3333 7.4764 18.3333C6.20437 18.3333 5.45154 17.5947 5.45154 16.4604V14.482H0V16.0647C0 20.6547 3.55648 22.0264 7.3466 22.0264C11.0069 22.0264 13.9923 20.7602 14.4855 17.3309C14.7192 15.5635 14.5374 14.4029 14.4596 13.9808C13.6289 9.6283 5.94478 8.36211 5.37366 5.96163ZM71.1296 5.98801C71.0518 5.59233 71.0777 5.14389 71.1037 4.93285C71.2594 4.27338 71.6748 3.56115 72.9468 3.56115C74.115 3.56115 74.79 4.29976 74.79 5.40767C74.79 5.77698 74.79 6.67386 74.79 6.67386H79.7742V5.2494C79.7742 0.817746 75.8803 0.131894 73.0507 0.131894C69.4942 0.131894 66.5867 1.31894 66.0415 4.64269C65.9117 5.53957 65.8598 6.35731 66.0935 7.38609C66.9501 11.5276 74.0631 12.741 75.1015 15.3789C75.2832 15.8801 75.2313 16.5132 75.1274 16.8825C74.9717 17.5683 74.5304 18.2542 73.1805 18.2542C71.9344 18.2542 71.1556 17.5156 71.1556 16.4077V14.4293H65.7819V15.9856C65.7819 20.5228 69.2865 21.8945 73.0507 21.8945C76.6591 21.8945 79.6444 20.6283 80.1117 17.2518C80.3453 15.4844 80.1636 14.3501 80.0857 13.9281C79.281 9.65468 71.7008 8.38849 71.1296 5.98801ZM117.026 17.199L112.276 0.659472H104.773V20.9976H109.732L109.446 3.93046L114.56 20.9976H121.751V0.659472H116.767L117.026 17.199ZM21.6504 0.659472L17.8863 21.2086H23.3378L26.1674 2.18945L28.9191 21.2086H34.3447L30.6325 0.659472H21.6504ZM52.179 0.659472L49.635 16.7242L47.0909 0.659472H38.8357L38.3944 21.2086H43.4566L43.5864 2.18945L47.065 21.2086H52.179L55.6576 2.18945L55.7874 21.2086H60.8496L60.4083 0.659472H52.179ZM99.1661 0.659472H94.0521V15.8537C94.0521 16.1175 94.0521 16.4077 94.0002 16.6451C93.8963 17.1463 93.481 18.1487 92.0532 18.1487C90.6514 18.1487 90.236 17.1727 90.1322 16.6451C90.0802 16.4341 90.0802 16.1175 90.0802 15.8537V0.659472H84.9662V15.3789C84.9662 15.7482 84.9921 16.5396 85.0181 16.7242C85.3815 20.5492 88.3409 21.8153 92.0532 21.8153C95.7654 21.8153 98.7508 20.5755 99.1142 16.7242C99.1402 16.5132 99.1921 15.7482 99.1661 15.3789V0.659472ZM134.264 9.65468V12.6619H136.34V15.6427C136.34 15.9065 136.34 16.1966 136.289 16.4341C136.211 16.988 135.691 17.9376 134.212 17.9376C132.758 17.9376 132.239 16.988 132.161 16.4341C132.135 16.1966 132.109 15.9065 132.109 15.6427V6.2518C132.109 5.90887 132.135 5.56595 132.213 5.27578C132.317 4.77458 132.758 3.79856 134.212 3.79856C135.769 3.79856 136.133 4.82734 136.237 5.27578C136.289 5.56595 136.289 6.06715 136.289 6.06715V7.20144H141.377V6.51559C141.377 6.51559 141.403 5.80336 141.351 5.14388C140.961 1.31894 137.82 0.105516 134.238 0.105516C130.655 0.105516 127.592 1.34532 127.151 5.17026C127.099 5.51319 127.047 6.14628 127.047 6.54197V15.1679C127.047 15.5372 127.047 15.8273 127.125 16.5132C127.462 20.259 130.655 21.5779 134.238 21.5779C137.846 21.5779 141.013 20.259 141.351 16.5132C141.403 15.8273 141.429 15.5372 141.429 15.1679V9.65468H134.264Z" fill="var(--fill-0, black)"/>
</g>
</svg>
