<svg preserveAspectRatio="none" width="100%" height="100%" overflow="visible" style="display: block;" viewBox="0 0 40 40" fill="none" xmlns="http://www.w3.org/2000/svg">
<path id="Union" d="M24.0146 37.7842V40.001H15.8984V39.5117C15.8985 38.4778 16.5933 37.7559 17.5918 37.7559L24.0146 37.7842ZM36.9844 31.3105L31.248 37.0469L30.9004 36.7002C30.1639 35.9708 30.1497 34.9648 30.8506 34.2637L30.8584 34.2705L35.4189 29.7451L36.9844 31.3105ZM4.55469 30.3359C4.98665 30.336 5.3974 30.5126 5.7373 30.8525L10.2627 35.4131L8.69727 36.9785L2.96094 31.2422L3.30762 30.8945C3.67588 30.5263 4.10828 30.3281 4.56152 30.3281L4.55469 30.3359ZM23.9766 36.3838L15.8965 36.3555V35.917C15.8965 34.883 16.5903 34.1602 17.5889 34.1602L23.9766 34.1465V36.3838ZM32.8232 27.1934L34.4023 28.7725L28.666 34.4668L28.3545 34.1553C27.9933 33.787 27.7949 33.3334 27.7949 32.9014C27.7949 32.4694 27.9717 32.0587 28.3115 31.7188L32.8164 27.1934H32.8232ZM7.10449 27.8008C7.53636 27.8008 7.94724 27.9776 8.28711 28.3174L12.8125 32.8223L11.2334 34.4014L5.53906 28.665L5.85059 28.3535C6.21887 27.9852 6.65122 27.7871 7.10449 27.7871V27.8008ZM24.1074 32.7363H15.8984V32.4102H15.9053C15.9055 31.2914 16.657 30.5059 17.7334 30.5059H24.1074V32.7363ZM31.9014 26.1123L26.1016 31.9131L25.8672 31.6797C25.0812 30.8866 25.06 29.7959 25.8174 29.0381L30.3223 24.5332L31.9014 26.1123ZM9.68457 25.2578C10.152 25.2578 10.5988 25.4491 10.96 25.8174L15.4707 30.3291L13.8916 31.9082L8.09082 26.1074L8.3252 25.874C8.72165 25.4847 9.20296 25.2648 9.69141 25.2646L9.68457 25.2578ZM7.5918 15.9082C8.71061 15.9083 9.497 16.659 9.49707 17.7354V24.1094H7.26562V15.9082H7.5918ZM36.3564 24.1074H35.918C34.8839 24.1074 34.1611 23.4127 34.1611 22.4141H34.168L34.1543 16.0264H36.3848L36.3564 24.1074ZM39.9932 24.1064H39.5039C38.4701 24.1063 37.748 23.4116 37.748 22.4131L37.7764 15.9893H39.9932V24.1064ZM32.7363 24.1045H32.4111C31.2922 24.1045 30.506 23.3537 30.5059 22.2773V15.8955H32.7363V24.1045ZM0.488281 15.9014C1.52228 15.9014 2.24507 16.5952 2.24512 17.5938L2.2168 24.0176H0V15.9014H0.488281ZM4.09082 15.9014C5.1247 15.9015 5.84663 16.5953 5.84668 17.5938L5.86133 23.9824H3.62988L3.6582 15.9014H4.09082ZM14.1279 8.32227C14.5174 8.71173 14.7231 9.16497 14.7373 9.64648C14.7444 10.128 14.5459 10.5956 14.1777 10.9639L9.67285 15.4688L8.09375 13.8887L13.8945 8.08887L14.1279 8.32227ZM31.9111 13.8945L31.6777 14.1279C31.2811 14.5175 30.7992 14.7373 30.3105 14.7373L30.3174 14.7441C29.8501 14.744 29.4111 14.5527 29.043 14.1846L24.5312 9.67285L26.1113 8.09375L31.9111 13.8945ZM11.6504 5.85059C12.3799 6.58005 12.3945 7.58596 11.6934 8.28711L7.18848 12.8125L5.60938 11.2334L11.3389 5.53906L11.6504 5.85059ZM34.459 11.3389L34.1543 11.6504C33.786 12.0187 33.3537 12.2168 32.9004 12.2168H32.8936C32.4616 12.2168 32.0509 12.0401 31.7109 11.7002L27.1855 7.18848L28.7646 5.60938L34.459 11.3389ZM9.10742 3.2998C9.83691 4.02928 9.85057 5.03518 9.14941 5.73633V5.72949L4.58887 10.2549L3.02344 8.68945L8.75977 2.95312L9.10742 3.2998ZM37.041 8.75195L36.6943 9.09961C36.3261 9.46787 35.8724 9.66602 35.4404 9.66602C35.0086 9.66598 34.5977 9.48917 34.2578 9.14941L29.7324 4.58789L31.3047 3.01562L37.041 8.75195ZM24.1045 7.5918C24.1043 8.7106 23.3537 9.49703 22.2773 9.49707H15.8965V7.26562H24.1045V7.5918ZM24.1016 3.64844V4.08691C24.1016 5.12093 23.4078 5.84375 22.4092 5.84375L16.0215 5.85742V3.62012L24.1016 3.64844ZM24.1064 0.488281C24.1064 1.5223 23.4117 2.24512 22.4131 2.24512L15.9902 2.2168V0H24.1064V0.488281Z" fill="var(--fill-0, #09141F)"/>
</svg>
