<svg width="30" height="30" viewBox="0 0 30 30" fill="none" xmlns="http://www.w3.org/2000/svg">
<rect width="30" height="30" rx="7" fill="#0A66C2"/>
<path d="M12.775 23V13.3176H9.61172V23H12.775ZM11.1937 11.9648C12.2031 11.9648 12.9906 11.1422 12.9906 10.1328C12.9703 9.10234 12.2031 8.3 11.2141 8.3C10.2047 8.3 9.41719 9.10234 9.41719 10.1328C9.41719 11.1422 10.1844 11.9648 11.1734 11.9648H11.1937ZM14.8859 23H18.05V17.6711C18.05 17.3875 18.0703 17.1039 18.1516 16.9016C18.3953 16.3344 18.9219 15.7469 19.7906 15.7469C20.9422 15.7469 21.4078 16.6156 21.4078 17.8891V23H24.5711V17.5289C24.5711 14.6555 23.0305 13.3176 20.9219 13.3176C19.2188 13.3176 18.4516 14.2672 18.0297 14.9133H18.05V13.3176H14.8859C14.9266 14.3066 14.8859 23 14.8859 23Z" fill="white"/>
</svg>