<svg preserveAspectRatio="none" width="100%" height="100%" overflow="visible" style="display: block;" viewBox="0 0 50 50" fill="none" xmlns="http://www.w3.org/2000/svg">
<g id="Frame">
<path id="Vector" d="M25 5.2085V25.0002M25 25.0002L42.7083 15.1621M25 25.0002L7.29167 15.1621M25 25.0002V44.7919M42.7083 34.8381L26.6188 25.8996C26.0279 25.5713 25.7325 25.4071 25.4198 25.3427C25.1427 25.2858 24.8573 25.2858 24.5804 25.3427C24.2675 25.4071 23.9721 25.5713 23.3812 25.8996L7.29167 34.8381M43.75 33.4554V16.5449C43.75 15.831 43.75 15.4741 43.6448 15.1558C43.5519 14.8741 43.3996 14.6156 43.1987 14.3975C42.9715 14.151 42.6596 13.9777 42.0354 13.631L26.6188 5.06619C26.0279 4.73794 25.7325 4.57381 25.4198 4.50946C25.1427 4.45252 24.8573 4.45252 24.5804 4.50946C24.2675 4.57381 23.9721 4.73794 23.3812 5.06619L7.96452 13.631C7.34052 13.9777 7.02852 14.151 6.80131 14.3975C6.60033 14.6156 6.44823 14.8741 6.35517 15.1558C6.25 15.4741 6.25 15.831 6.25 16.5449V33.4554C6.25 34.1694 6.25 34.5263 6.35517 34.8446C6.44823 35.1263 6.60033 35.3848 6.80131 35.6027C7.02852 35.8494 7.34052 36.0227 7.96452 36.3694L23.3812 44.9342C23.9721 45.2625 24.2675 45.4265 24.5804 45.4908C24.8573 45.5479 25.1427 45.5479 25.4198 45.4908C25.7325 45.4265 26.0279 45.2625 26.6188 44.9342L42.0354 36.3694C42.6596 36.0227 42.9715 35.8494 43.1987 35.6027C43.3996 35.3848 43.5519 35.1263 43.6448 34.8446C43.75 34.5263 43.75 34.1694 43.75 33.4554Z" stroke="var(--stroke-0, white)" stroke-width="2" stroke-linecap="round" stroke-linejoin="round"/>
</g>
</svg>
