<svg preserveAspectRatio="none" width="100%" height="100%" overflow="visible" style="display: block;" viewBox="0 0 50 50" fill="none" xmlns="http://www.w3.org/2000/svg">
<g id="Frame">
<path id="Vector" d="M44.1667 45.8333C44.75 45.8333 45.0417 45.8333 45.2646 45.7198C45.4606 45.62 45.62 45.4606 45.7198 45.2646C45.8333 45.0417 45.8333 44.75 45.8333 44.1667V22.5C45.8333 21.9167 45.8333 21.625 45.7198 21.4021C45.62 21.206 45.4606 21.0467 45.2646 20.9469C45.0417 20.8333 44.75 20.8333 44.1667 20.8333H39.1667C38.5833 20.8333 38.2917 20.8333 38.0688 20.9469C37.8727 21.0467 37.7133 21.206 37.6135 21.4021C37.5 21.625 37.5 21.9167 37.5 22.5V27.5C37.5 28.0833 37.5 28.375 37.3865 28.5979C37.2867 28.794 37.1273 28.9533 36.9312 29.0531C36.7083 29.1667 36.4167 29.1667 35.8333 29.1667H30.8333C30.25 29.1667 29.9583 29.1667 29.7354 29.2802C29.5394 29.38 29.38 29.5394 29.2802 29.7354C29.1667 29.9583 29.1667 30.25 29.1667 30.8333V35.8333C29.1667 36.4167 29.1667 36.7083 29.0531 36.9312C28.9533 37.1273 28.794 37.2867 28.5979 37.3865C28.375 37.5 28.0833 37.5 27.5 37.5H22.5C21.9167 37.5 21.625 37.5 21.4021 37.6135C21.206 37.7133 21.0467 37.8727 20.9469 38.0688C20.8333 38.2917 20.8333 38.5833 20.8333 39.1667V44.1667C20.8333 44.75 20.8333 45.0417 20.9469 45.2646C21.0467 45.4606 21.206 45.62 21.4021 45.7198C21.625 45.8333 21.9167 45.8333 22.5 45.8333H44.1667Z" stroke="var(--stroke-0, white)" stroke-width="2" stroke-linecap="round" stroke-linejoin="round"/>
<path id="Vector_2" d="M20.8333 14.1667C20.8333 13.5833 20.8333 13.2916 20.9469 13.0687C21.0467 12.8727 21.206 12.7134 21.4021 12.6135C21.625 12.5 21.9167 12.5 22.5 12.5H27.5C28.0833 12.5 28.375 12.5 28.5979 12.6135C28.794 12.7134 28.9533 12.8727 29.0531 13.0687C29.1667 13.2916 29.1667 13.5833 29.1667 14.1667V19.1667C29.1667 19.7501 29.1667 20.0418 29.0531 20.2646C28.9533 20.4606 28.794 20.6199 28.5979 20.7198C28.375 20.8333 28.0833 20.8333 27.5 20.8333H22.5C21.9167 20.8333 21.625 20.8333 21.4021 20.7198C21.206 20.6199 21.0467 20.4606 20.9469 20.2646C20.8333 20.0418 20.8333 19.7501 20.8333 19.1667V14.1667Z" stroke="var(--stroke-0, white)" stroke-width="2" stroke-linecap="round" stroke-linejoin="round"/>
<path id="Vector_3" d="M6.25 26.6667C6.25 26.0833 6.25 25.7917 6.36354 25.5687C6.4634 25.3727 6.62275 25.2133 6.81875 25.1135C7.04158 25 7.33327 25 7.91667 25H12.9167C13.5001 25 13.7918 25 14.0146 25.1135C14.2106 25.2133 14.3699 25.3727 14.4698 25.5687C14.5833 25.7917 14.5833 26.0833 14.5833 26.6667V31.6667C14.5833 32.25 14.5833 32.5417 14.4698 32.7646C14.3699 32.9606 14.2106 33.12 14.0146 33.2198C13.7918 33.3333 13.5001 33.3333 12.9167 33.3333H7.91667C7.33327 33.3333 7.04158 33.3333 6.81875 33.2198C6.62275 33.12 6.4634 32.9606 6.36354 32.7646C6.25 32.5417 6.25 32.25 6.25 31.6667V26.6667Z" stroke="var(--stroke-0, white)" stroke-width="2" stroke-linecap="round" stroke-linejoin="round"/>
<path id="Vector_4" d="M4.16667 5.83333C4.16667 5.24994 4.16667 4.95825 4.28021 4.73542C4.38006 4.53942 4.53942 4.38006 4.73542 4.28021C4.95825 4.16667 5.24994 4.16667 5.83333 4.16667H10.8333C11.4167 4.16667 11.7084 4.16667 11.9313 4.28021C12.1273 4.38006 12.2866 4.53942 12.3865 4.73542C12.5 4.95825 12.5 5.24994 12.5 5.83333V10.8333C12.5 11.4167 12.5 11.7084 12.3865 11.9313C12.2866 12.1273 12.1273 12.2866 11.9313 12.3865C11.7084 12.5 11.4167 12.5 10.8333 12.5H5.83333C5.24994 12.5 4.95825 12.5 4.73542 12.3865C4.53942 12.2866 4.38006 12.1273 4.28021 11.9313C4.16667 11.7084 4.16667 11.4167 4.16667 10.8333V5.83333Z" stroke="var(--stroke-0, white)" stroke-width="2" stroke-linecap="round" stroke-linejoin="round"/>
</g>
</svg>
