<svg preserveAspectRatio="none" width="100%" height="100%" overflow="visible" style="display: block;" viewBox="0 0 50 50" fill="none" xmlns="http://www.w3.org/2000/svg">
<g id="Frame">
<path id="Vector" d="M41.6667 25C41.6667 34.2048 34.2048 41.6667 25 41.6667M41.6667 25C41.6667 15.7953 34.2048 8.33333 25 8.33333M41.6667 25H8.33333M25 41.6667C15.7953 41.6667 8.33333 34.2048 8.33333 25M25 41.6667C29.1688 37.1027 31.5392 31.18 31.6679 25C31.5392 18.8201 29.1688 12.8973 25 8.33333M25 41.6667C20.8312 37.1027 18.4632 31.18 18.3345 25C18.4632 18.8201 20.8312 12.8973 25 8.33333M25 8.33333C15.7953 8.33333 8.33333 15.7953 8.33333 25M12.5 41.6667C12.5 43.9679 10.6345 45.8333 8.33333 45.8333C6.03215 45.8333 4.16667 43.9679 4.16667 41.6667C4.16667 39.3654 6.03215 37.5 8.33333 37.5C10.6345 37.5 12.5 39.3654 12.5 41.6667ZM45.8333 41.6667C45.8333 43.9679 43.9679 45.8333 41.6667 45.8333C39.3654 45.8333 37.5 43.9679 37.5 41.6667C37.5 39.3654 39.3654 37.5 41.6667 37.5C43.9679 37.5 45.8333 39.3654 45.8333 41.6667ZM12.5 8.33333C12.5 10.6345 10.6345 12.5 8.33333 12.5C6.03215 12.5 4.16667 10.6345 4.16667 8.33333C4.16667 6.03215 6.03215 4.16667 8.33333 4.16667C10.6345 4.16667 12.5 6.03215 12.5 8.33333ZM45.8333 8.33333C45.8333 10.6345 43.9679 12.5 41.6667 12.5C39.3654 12.5 37.5 10.6345 37.5 8.33333C37.5 6.03215 39.3654 4.16667 41.6667 4.16667C43.9679 4.16667 45.8333 6.03215 45.8333 8.33333Z" stroke="var(--stroke-0, white)" stroke-width="2" stroke-linecap="round" stroke-linejoin="round"/>
</g>
</svg>
