<svg width="24" height="24" viewBox="0 0 24 24" fill="none" xmlns="http://www.w3.org/2000/svg">
<path d="M18 10H19.26C20.7 10 22 11.3 22 12.74C22 14.18 20.7 15.48 19.26 15.48H18M18 10C18 6.69 15.31 4 12 4C8.69 4 6 6.69 6 10M18 10C18 10.34 17.97 10.67 17.91 11M6 10C4.34 10 3 11.34 3 13C3 14.66 4.34 16 6 16H7" stroke="#6B7280" stroke-width="1.5" stroke-linecap="round" stroke-linejoin="round"/>
<path d="M12 14V20M12 20L9 17M12 20L15 17" stroke="#6B7280" stroke-width="1.5" stroke-linecap="round" stroke-linejoin="round"/>
</svg>