<svg width="24" height="24" viewBox="0 0 24 24" fill="none" xmlns="http://www.w3.org/2000/svg">
<path d="M13 3L13.7359 3.14435C14.9568 3.35942 16.0481 4.02309 16.8042 5.01008L17 5.26795V8H20.732L20.99 8.19615C21.9769 8.95191 22.6406 10.0432 22.8556 11.2641L23 12V18C23 18.5523 22.5523 19 22 19H13C12.4477 19 12 18.5523 12 18V4C12 3.44772 12.4477 3 13 3Z" stroke="#6B7280" stroke-width="1.5"/>
<path d="M8 7L6 9L8 11" stroke="#6B7280" stroke-width="1.5" stroke-linecap="round" stroke-linejoin="round"/>
<path d="M16 7L18 9L16 11" stroke="#6B7280" stroke-width="1.5" stroke-linecap="round" stroke-linejoin="round"/>
<path d="M14 6L10 12" stroke="#6B7280" stroke-width="1.5" stroke-linecap="round" stroke-linejoin="round"/>
</svg>