<svg preserveAspectRatio="none" width="100%" height="100%" overflow="visible" style="display: block;" viewBox="0 0 142 43" fill="none" xmlns="http://www.w3.org/2000/svg">
<path id="Vector 181" d="M1 19.236L5.94839 12.0913C6.39058 11.4529 7.33321 11.4492 7.78033 12.0842L12.283 18.4792C12.5922 18.9182 13.1698 19.0752 13.6587 18.8531L15.6029 17.9699C16.0778 17.7541 16.6388 17.8957 16.9544 18.311L19.9493 22.2513C20.472 22.9389 21.544 22.7987 21.8722 21.9997L26.1533 11.577C26.4686 10.8094 27.4811 10.6413 28.0275 11.2657L29.5835 13.0438C29.9877 13.5057 30.6888 13.5551 31.1537 13.1543L33.2965 11.3072C33.6638 10.9907 34.19 10.9533 34.6266 11.1642C38.3241 12.9508 45.0478 12.9775 48.4075 1.71872C48.6963 0.750975 50.0315 0.533882 50.5549 1.3976L53.1351 5.65578C53.4725 6.21264 54.2127 6.36413 54.7418 5.98462L56.7073 4.57467C57.242 4.19115 57.9906 4.35043 58.3229 4.91838L62.4406 11.9577C62.7573 12.4992 63.4578 12.6738 63.9917 12.3443L64.8936 11.7877C65.6237 11.337 66.5732 11.8401 66.6307 12.6962C67.1047 19.7544 69.0516 31.4848 74.0193 34.9603C74.3583 35.1975 74.8082 35.1775 75.1265 34.9131C76.4463 33.8167 78.3699 31.481 79.1938 28.0197C79.4176 27.0793 80.6387 26.6422 81.3158 27.3322L83.3734 29.4292C83.7482 29.8111 84.3411 29.8737 84.7874 29.5784L88.922 26.8425C89.4342 26.5036 90.1239 26.6416 90.4661 27.1515L93.3824 31.4958C93.7425 32.0322 94.4812 32.1522 94.9926 31.7575L98.4785 29.0669C98.7641 28.8465 99.1385 28.7775 99.4839 28.8818L102.583 29.8173C103.1 29.9734 103.655 29.737 103.901 29.2559L108.727 19.8059C109.127 19.0226 110.233 18.9873 110.683 19.7435L115.286 27.4955C115.656 28.1172 116.509 28.2297 117.027 27.7249L118.323 26.4607C118.816 25.9802 119.622 26.0551 120.017 26.6182L124.249 32.6397C124.613 33.1573 125.333 33.2699 125.837 32.8881L129.071 30.44C129.727 29.9435 130.681 30.3007 130.895 31.095C132.101 35.569 135.002 42.1381 140.863 42.2195" stroke="var(--stroke-0, #314CFF)" stroke-width="1.11722" stroke-linecap="round"/>
</svg>
