<svg preserveAspectRatio="none" width="100%" height="100%" overflow="visible" style="display: block;" viewBox="0 0 140 69" fill="none" xmlns="http://www.w3.org/2000/svg">
<path id="Vector 180" d="M4.94839 12.0913L0.198775 18.949C0.0693445 19.1359 0 19.3578 0 19.5851V67.8241C0 68.4411 0.500191 68.9413 1.11722 68.9413H138.688C139.305 68.9413 139.805 68.4411 139.805 67.8241V43.3116C139.805 42.7007 139.31 42.2125 138.707 42.1153C133.582 41.2897 131.011 35.2789 129.893 31.0955C129.681 30.3008 128.727 29.9435 128.071 30.44L124.837 32.8881C124.333 33.2699 123.613 33.1573 123.249 32.6397L119.017 26.6182C118.622 26.0551 117.816 25.9802 117.323 26.4607L116.027 27.7249C115.509 28.2297 114.656 28.1172 114.286 27.4955L109.683 19.7435C109.233 18.9873 108.127 19.0226 107.727 19.8059L102.901 29.2559C102.655 29.737 102.1 29.9734 101.583 29.8173L98.4839 28.8818C98.1385 28.7775 97.7641 28.8465 97.4784 29.0669L93.9926 31.7575C93.4812 32.1522 92.7425 32.0322 92.3824 31.4958L89.4661 27.1515C89.1238 26.6416 88.4342 26.5036 87.922 26.8425L83.7873 29.5784C83.3411 29.8737 82.7481 29.8111 82.3734 29.4292L80.3157 27.3322C79.6387 26.6422 78.4176 27.0793 78.1938 28.0197C77.3699 31.481 75.4463 33.8167 74.1265 34.9131C73.8082 35.1775 73.3583 35.1975 73.0193 34.9603C68.0516 31.4848 66.1047 19.7544 65.6307 12.6962C65.5732 11.8401 64.6237 11.337 63.8935 11.7877L62.9917 12.3443C62.4578 12.6738 61.7573 12.4992 61.4405 11.9577L57.3229 4.91838C56.9906 4.35043 56.242 4.19115 55.7073 4.57467L53.7418 5.98462C53.2127 6.36413 52.4725 6.21264 52.1351 5.65578L49.5549 1.3976C49.0315 0.533881 47.6963 0.750974 47.4075 1.71872C44.0478 12.9775 37.3241 12.9508 33.6266 11.1642C33.19 10.9533 32.6638 10.9907 32.2965 11.3072L30.1537 13.1543C29.6888 13.5551 28.9877 13.5057 28.5835 13.0438L27.0275 11.2657C26.4811 10.6413 25.4686 10.8094 25.1533 11.577L20.8722 21.9997C20.544 22.7987 19.472 22.9389 18.9493 22.2512L15.9544 18.311C15.6388 17.8957 15.0778 17.7541 14.6029 17.9699L12.6587 18.8531C12.1698 19.0752 11.5922 18.9182 11.283 18.4792L6.78033 12.0842C6.33321 11.4492 5.39058 11.4529 4.94839 12.0913Z" fill="url(#paint0_linear_3377_20516)"/>
<defs>
<linearGradient id="paint0_linear_3377_20516" x1="70.2112" y1="-1" x2="70.2112" y2="68.9413" gradientUnits="userSpaceOnUse">
<stop stop-color="#314CFF"/>
<stop offset="0.932292" stop-color="#D9D9D9" stop-opacity="0"/>
</linearGradient>
</defs>
</svg>
