<svg preserveAspectRatio="none" width="100%" height="100%" overflow="visible" style="display: block;" viewBox="0 0 46 46" fill="none" xmlns="http://www.w3.org/2000/svg">
<g id="Frame">
<path id="Vector" d="M17.25 22.0415L21.0833 25.8748L29.7083 17.2498M38.3333 22.9998C38.3333 32.4076 28.0715 39.2501 24.3378 41.4282C23.9135 41.6758 23.7013 41.7996 23.4019 41.8638C23.1694 41.9137 22.8306 41.9137 22.5981 41.8638C22.2987 41.7996 22.0865 41.6758 21.6622 41.4282C17.9284 39.2501 7.66667 32.4076 7.66667 22.9998V13.8335C7.66667 12.3011 7.66667 11.5349 7.91729 10.8763C8.13868 10.2944 8.49846 9.77529 8.96551 9.36368C9.49421 8.89776 10.2116 8.62874 11.6464 8.09067L21.9232 4.23687C22.3217 4.08745 22.5208 4.01273 22.7259 3.98312C22.9076 3.95684 23.0924 3.95684 23.2741 3.98312C23.4792 4.01273 23.6783 4.08745 24.0768 4.23687L34.3536 8.09067C35.7884 8.62874 36.5058 8.89776 37.0344 9.36368C37.5015 9.77529 37.8613 10.2944 38.0826 10.8763C38.3333 11.5349 38.3333 12.3011 38.3333 13.8335V22.9998Z" stroke="var(--stroke-0, black)" stroke-width="2" stroke-linecap="round" stroke-linejoin="round"/>
</g>
</svg>
