<svg preserveAspectRatio="none" width="100%" height="100%" overflow="visible" style="display: block;" viewBox="0 0 46 46" fill="none" xmlns="http://www.w3.org/2000/svg">
<g id="Frame">
<path id="Vector" d="M23 4.79182V23.0002M23 23.0002L39.2917 13.9491M23 23.0002L6.70833 13.9491M23 23.0002V41.2085M39.2917 32.0511L24.4893 23.8276C23.9457 23.5255 23.6739 23.3745 23.3862 23.3153C23.1313 23.263 22.8687 23.263 22.614 23.3153C22.3261 23.3745 22.0543 23.5255 21.5107 23.8276L6.70833 32.0511M40.25 30.779V15.2213C40.25 14.5645 40.25 14.2362 40.1532 13.9433C40.0677 13.6842 39.9276 13.4464 39.7428 13.2457C39.5337 13.0189 39.2468 12.8595 38.6726 12.5405L24.4893 4.66089C23.9457 4.3589 23.6739 4.20791 23.3862 4.1487C23.1313 4.09632 22.8687 4.09632 22.614 4.1487C22.3261 4.20791 22.0543 4.3589 21.5107 4.66089L7.32736 12.5405C6.75328 12.8595 6.46624 13.0189 6.25721 13.2457C6.07231 13.4464 5.93237 13.6842 5.84675 13.9433C5.75 14.2362 5.75 14.5645 5.75 15.2213V30.779C5.75 31.4358 5.75 31.7642 5.84675 32.057C5.93237 32.3162 6.07231 32.554 6.25721 32.7545C6.46624 32.9814 6.75328 33.1409 7.32736 33.4598L21.5107 41.3394C22.0543 41.6415 22.3261 41.7923 22.614 41.8516C22.8687 41.9041 23.1313 41.9041 23.3862 41.8516C23.6739 41.7923 23.9457 41.6415 24.4893 41.3394L38.6726 33.4598C39.2468 33.1409 39.5337 32.9814 39.7428 32.7545C39.9276 32.554 40.0677 32.3162 40.1532 32.057C40.25 31.7642 40.25 31.4358 40.25 30.779Z" stroke="var(--stroke-0, black)" stroke-width="2" stroke-linecap="round" stroke-linejoin="round"/>
</g>
</svg>
