<svg preserveAspectRatio="none" width="100%" height="100%" overflow="visible" style="display: block;" viewBox="0 0 46 46" fill="none" xmlns="http://www.w3.org/2000/svg">
<g id="Frame">
<path id="Vector" d="M7.66667 34.5V34.1167C7.66667 30.8963 7.66667 29.2863 8.29338 28.0562C8.84465 26.9742 9.72428 26.0946 10.8062 25.5434C12.0362 24.9167 13.6464 24.9167 16.8667 24.9167H29.1333C32.3537 24.9167 33.9637 24.9167 35.1938 25.5434C36.2758 26.0946 37.1553 26.9742 37.7066 28.0562C38.3333 29.2863 38.3333 30.8963 38.3333 34.1167V34.5M7.66667 34.5C5.54957 34.5 3.83333 36.2162 3.83333 38.3333C3.83333 40.4505 5.54957 42.1667 7.66667 42.1667C9.78376 42.1667 11.5 40.4505 11.5 38.3333C11.5 36.2162 9.78376 34.5 7.66667 34.5ZM38.3333 34.5C36.2162 34.5 34.5 36.2162 34.5 38.3333C34.5 40.4505 36.2162 42.1667 38.3333 42.1667C40.4505 42.1667 42.1667 40.4505 42.1667 38.3333C42.1667 36.2162 40.4505 34.5 38.3333 34.5ZM23 34.5C20.8828 34.5 19.1667 36.2162 19.1667 38.3333C19.1667 40.4505 20.8828 42.1667 23 42.1667C25.1171 42.1667 26.8333 40.4505 26.8333 38.3333C26.8333 36.2162 25.1171 34.5 23 34.5ZM23 34.5V15.3333M11.5 15.3333H34.5C36.2861 15.3333 37.1791 15.3333 37.8837 15.0415C38.8228 14.6525 39.5692 13.9062 39.9583 12.967C40.25 12.2625 40.25 11.3694 40.25 9.58333C40.25 7.79723 40.25 6.90418 39.9583 6.19971C39.5692 5.26045 38.8228 4.51419 37.8837 4.12513C37.1791 3.83333 36.2861 3.83333 34.5 3.83333H11.5C9.7139 3.83333 8.82084 3.83333 8.11637 4.12513C7.17711 4.51419 6.43086 5.26045 6.04179 6.19971C5.75 6.90418 5.75 7.79723 5.75 9.58333C5.75 11.3694 5.75 12.2625 6.04179 12.967C6.43086 13.9062 7.17711 14.6525 8.11637 15.0415C8.82084 15.3333 9.7139 15.3333 11.5 15.3333Z" stroke="var(--stroke-0, black)" stroke-width="2" stroke-linecap="round" stroke-linejoin="round"/>
</g>
</svg>
