<svg preserveAspectRatio="none" width="100%" height="100%" overflow="visible" style="display: block;" viewBox="0 0 46 46" fill="none" xmlns="http://www.w3.org/2000/svg">
<g id="Frame">
<path id="Vector" d="M23.001 28.75C26.1765 28.75 28.751 26.1757 28.751 23C28.751 19.8243 26.1765 17.25 23.001 17.25C19.8252 17.25 17.2509 19.8243 17.2509 23C17.2509 26.1757 19.8252 28.75 23.001 28.75Z" stroke="var(--stroke-0, black)" stroke-width="2" stroke-linecap="round" stroke-linejoin="round"/>
<path id="Vector_2" d="M17.805 37.1279L18.9252 39.6474C19.2583 40.3972 19.8017 41.0345 20.4895 41.4816C21.1776 41.9288 21.9805 42.1669 22.8011 42.1667C23.6218 42.1669 24.4247 41.9288 25.1125 41.4816C25.8006 41.0345 26.344 40.3972 26.6771 39.6474L27.7972 37.1279C28.1961 36.234 28.8667 35.4888 29.7139 34.9983C30.5664 34.5065 31.5526 34.297 32.5314 34.3999L35.2722 34.6917C36.0882 34.7779 36.9115 34.6257 37.6426 34.2533C38.3736 33.8811 38.981 33.3046 39.3909 32.5941C39.8015 31.8837 39.997 31.0697 39.9539 30.2506C39.9108 29.4314 39.6309 28.6423 39.1481 27.9791L37.5255 25.7493C36.9476 24.9494 36.6388 23.9867 36.6438 23C36.6436 22.016 36.9552 21.0573 37.5339 20.2613L39.1567 18.0316C39.6393 17.3684 39.9194 16.5793 39.9625 15.7601C40.0056 14.941 39.8099 14.1269 39.3994 13.4167C38.9894 12.706 38.3822 12.1296 37.651 11.7573C36.92 11.3849 36.0966 11.2327 35.2809 11.319L32.54 11.6107C31.5612 11.7135 30.5749 11.5041 29.7225 11.0123C28.8736 10.5191 28.2026 9.76994 27.8058 8.87204L26.6771 6.35268C26.344 5.60274 25.8006 4.96555 25.1125 4.51835C24.4247 4.07115 23.6218 3.8332 22.8011 3.83333C21.9805 3.8332 21.1776 4.07115 20.4895 4.51835C19.8017 4.96555 19.2583 5.60274 18.9252 6.35268L17.805 8.87204C17.4081 9.76994 16.7372 10.5191 15.8883 11.0123C15.0358 11.5041 14.0496 11.7135 13.0708 11.6107L10.3215 11.319C9.50563 11.2327 8.68225 11.3849 7.95118 11.7573C7.22012 12.1296 6.61277 12.706 6.20279 13.4167C5.79228 14.1269 5.5967 14.941 5.63981 15.7601C5.6829 16.5793 5.96281 17.3684 6.44558 18.0316L8.06834 20.2613C8.64706 21.0573 8.95871 22.016 8.95854 23C8.95871 23.984 8.64706 24.9429 8.06834 25.7387L6.44558 27.9684C5.96281 28.6315 5.6829 29.4206 5.63981 30.2398C5.5967 31.059 5.79228 31.8732 6.20279 32.5833C6.61319 33.2936 7.2206 33.8698 7.95156 34.242C8.68252 34.6142 9.50569 34.7668 10.3215 34.6809L13.0623 34.3892C14.0411 34.2865 15.0273 34.496 15.8798 34.9876C16.7318 35.4794 17.4059 36.2288 17.805 37.1279Z" stroke="var(--stroke-0, black)" stroke-width="2" stroke-linecap="round" stroke-linejoin="round"/>
</g>
</svg>
